<?xml version="1.0" standalone="no"?>
<!DOCTYPE svg PUBLIC "-//W3C//DTD SVG 1.1//EN" "http://www.w3.org/Graphics/SVG/1.1/DTD/svg11.dtd" >
<svg xmlns="http://www.w3.org/2000/svg" xmlns:xlink="http://www.w3.org/1999/xlink" version="1.1">
<metadata>
Created by FontForge 20190801 at Thu Mar  1 08:37:07 2018
 By Jimmy Wärting
Copyright (c) 2009 by Gilles Le Corre. All rights reserved.
</metadata>
<defs>
<font id="iCielBC1790RoyalPrinting-CapsItalic" horiz-adv-x="632" >
  <font-face 
    font-family="iCielBC 1790RoyalPrinting Caps It"
    font-weight="400"
    font-style="italic"
    font-variant="small-caps"
    font-stretch="normal"
    units-per-em="1000"
    panose-1="2 10 5 2 6 0 0 9 0 3"
    ascent="800"
    descent="-200"
    x-height="512"
    cap-height="798"
    bbox="-503 -374 1594 1229"
    underline-thickness="50"
    underline-position="-125"
    slope="-12"
    unicode-range="U+0020-F000"
  />
<missing-glyph horiz-adv-x="500" 
d="M63 0v1000h375v-1000h-375zM125 63h250v875h-250v-875z" />
    <glyph glyph-name="AE" unicode="AE" horiz-adv-x="1203" 
d="M1195 797q0 -7 -10 -26q-11 -20 -17 -35t-11 -39q-6 -36 -11 -46.5t-22 -10.5q-5 0 -8 4q-4 3 -9 29q-4 21 -8 32q-13 25 -62 26l-128 1l-38 1q-9 0 -11.5 -2t-3 -6.5t-1.5 -7.5q-12 -66 -25 -83q-7 -8 -9 -14q-4 -10 -7 -15l2 -13l3 -17q0 -11 -13 -27q-16 -16 -18 -24
q1 -3 1 -12q0 -10 -1 -16l-12 -51q0 -11 6 -22q4 1 14 1q12 0 19 -1l36 -2q78 0 104 59q0 6 3 18q8 15 20 15l21 -5q15 4 19 0l1 -9q-2 -1 -7.5 -5.5t-9.5 -13t-6 -21.5l-14 -42l-18 -71q3 -36 -15 -36q-9 0 -16 9.5t-7 23.5q0 11 4 20q3 28 -53 28q-18 0 -63 -5l-50 -5
q-10 -5 -14 -21q-1 -3 -2 -11t-15 -53q-13 -38 -13 -41q0 -13 -16 -48q0 -7 -3 -13q-4 -7 -4 -13q2 -8 2 -14l-1 -15q-6 -8 -11.5 -17t-10.5 -25q-1 -5 -1 -13q0 -41 34 -44q11 0 12 -15h32q26 18 56 23q3 0 15 -5l11 -6q3 -1 11 -1q15 0 30 7h3l11 -2q14 -7 25 -7
q34 0 64.5 17.5t31.5 42.5q18 19 19 31q0 3 1.5 16.5t13.5 19t35 5.5t23 -8t-13 -22q-12 -14 -17 -21q-12 -52 -17 -78q-13 -43 -48 -63q-4 -3 -18 5.5t-19 12.5h-1l-11 -2l-14 -3q-25 -3 -59 -2l-57 3q-16 -10 -25 -10q-7 0 -20 11h-57q-20 -11 -29 -11q-3 0 -15 5
q-15 6 -18 7h-1q-5 0 -12 -3t-8 -3h-4q-6 0 -9 1q-12 -2 -36 -2q-30 0 -60 6q-12 -7 -18 -7q-5 0 -9 4q-9 5 -12 4q-12 -4 -26 -10h-34q-8 6 -6 20q-4 4 -4 8q0 7 12 16q11 19 27 13h31q19 -1 33 14.5t13 50.5q0 4 8 20t8 23q0 18 10 42q5 15 9.5 26t6.5 18v1q0 9 -20 13
q-29 6 -31 8h-3q-3 0 -21 -4q-20 -5 -26 -5h-134q-6 2 -9 2q-15 0 -33 -17.5t-27 -37.5q-80 -60 -129 -116q-41 -27 -41 -38q0 -6 30 -11q29 -5 29 -12q0 -9 -15 -20t-27 -11q-4 0 -6 2q-7 7 -53 7q-17 0 -30 -1h-29q-56 0 -56 12q0 4 8 12q6 6 35 11q38 6 64 19.5t54 48.5
q17 10 38 27q17 21 50 56l118 104q3 4 34 37q24 17 31 23q34 29 125 117l42 48q27 30 49 44q24 15 39 33q26 29 35.5 38t38.5 34q7 25 7 39q0 30 -36 37q-12 -8 -24 -8t-19 7.5t-7 18.5q0 22 25 34q6 2 18.5 -4t15.5 -7l4 -1q5 0 11 3q12 3 16 2q16 -6 32 -6q18 0 49 10
q6 -5 18 -10q20 20 33 20q10 0 10 -13q0 -2 -2 -12q44 -1 84 13h1q3 0 10 -5q7 -7 10 -7h5q12 0 28 6q18 7 24 7l49 -1q5 0 17 4l18 5q7 -6 28 -9l21 9q14 6 21 6q8 0 13 -5q1 -1 1 -4zM690 572q-1 19 -16 17q-26 -5 -53 -35l-44 -49q-62 -59 -124 -124q-62 -50 -62 -58
q0 -6 19 -6l45 2q50 2 65 2q7 0 19 4t18 4q24 -2 40 -1q15 10 19 15.5t4 14.5l-1 24q0 6 18.5 68t21.5 66l27 41zM746 560q-8 0 -11 -6h2q7 0 11 6h-2z" />
    <glyph glyph-name="ae" unicode="ae" horiz-adv-x="819" 
d="M713 495q-18 -100 -52 -100q-7 0 -15 5q-6 4 -17 29q-9 20 -24 21l-78 2q-26 0 -35.5 -7.5t-16.5 -35.5l-31 -109l-5 -12q-6 -10 -6 -14q0 -5 25 -5q59 2 79 20q5 5 15 23q8 17 15 20q4 2 7 2q9 0 16 -10.5t6 -22.5q-14 -20 -17 -59q-5 -37 -20 -49q-13 -11 -19 -11
q-8 0 -20 30t-35 30q-14 0 -31 -7q-14 4 -28.5 -13.5t-12.5 -33.5l-23 -83q-7 -22 -7 -35q0 -23 40 -24q13 -2 44.5 -4t49.5 -2q24 0 31 4t15 19l12 21q17 13 35 35q10 9 19 9t16 -10q2 -3 -18.5 -60t-27.5 -65q-9 -9 -17 -12q1 1 -21 1l-96 3q-6 0 -23 5t-24 5h-14
q-24 -15 -89 -15q-89 0 -95 8q-2 4 -2 7q0 7 7 14l-1 4q0 10 12 22q42 8 57 33q11 38 23 96q-9 4 -44 4q-42 0 -75 -3q-17 0 -27 -10q1 1 -22 -25q-63 -64 -63 -88q0 -16 21 -20q5 -4 3 -12q-3 -12 -31 -18t-64 -6q-19 0 -43 2q-13 1 -13 11q0 21 30 37q29 0 93 73l49 48
l33 42q34 41 112.5 126.5t104.5 108.5q-26 5 -26 29q0 27 31 45q4 2 13 2q18 0 23.5 -0.5t6.5 -0.5q4 0 11 3q13 10 24 10t19 -7l2 -2q25 4 64 4q30 0 81 -3l76 -5zM378 355.5q2 5.5 4 11.5q0 2 -1.5 7.5t-3.5 7.5t-6 2q-14 -6 -65 -65.5t-72 -91.5q3 -9 39 -9q50 0 63 10
l9 21q6 14 6 20q4 10 22 69l2 7q1 5 3 10.5zM580 -19h2h-2z" />
    <glyph glyph-name="OE" unicode="OE" horiz-adv-x="1034" 
d="M1035 790q0 -9 -13 -31t-15 -26q-1 -6 -7.5 -36t-15.5 -48.5t-20 -18.5q-5 0 -13 5q-13 11 -14 35q-3 25 -13 35q-18 18 -68 19l-164 8l28 -31q8 -8 15 -25q0 -10 8 -29q-3 -6 3 -39q8 -40 8 -42q0 -9 -3 -29q-4 -17 -4 -28q1 -8 0.5 -36.5t-5.5 -46.5q25 8 37.5 21.5
t32.5 51.5q10 16 16 16l16 -4q10 2 13 2q4 0 8 -2l2 -10q-11 -7 -17 -14t-9 -25q-8 -24 -13 -43l-18 -71q1 -5 1 -13q0 -26 -22 -26q-11 0 -20 8.5t-9 20.5q0 10 4 18q2 17 -36 25q-10 -15 -20 -44q-8 -37 -23 -61l-41 -52q-4 -10 -16 -29q-29 -32 -124 -100q-10 4 -25 -5.5
t-29.5 -22.5t-21.5 -19h5q9 0 21 -4l12 -5l43 -1q5 3 46.5 8.5t47.5 4.5q7 -2 14 -7q8 -7 16 -7t23 7q18 6 26 5q22 -2 34 -2q81 0 81 42q22 22 56 80q8 12 31 12q22 0 22 -9q0 -7 -11 -20t-22 -23q-12 -56 -19 -84q-20 -59 -53 -59q-8 0 -21 10q-12 8 -18 10q1 -1 -30 -5
q-21 -3 -49 -3q-31 0 -85 4q-17 -10 -28 -10t-24 10l-65 1q-22 -11 -32 -11q-5 0 -17 5q-12 4 -23 6h-3l-8 -1q-9 -4 -12 -4h-5q-8 0 -17 3q-12 4 -32 4q-12 0 -41 -3q-28 -3 -40 -3q-5 -4 -12 -4q-6 0 -11 4l-21 2q-4 0 -21 -7l-16 14q-20 3 -54 43q-36 39 -50 39
q-46 64 -46 203q0 55 9 101q11 18 20 46q11 33 20 47q36 58 53 87q27 40 71 78q10 15 26 33q27 21 85 61q5 1 37 10q6 12 39.5 23t55.5 11q6 0 8 -1q15 15 28 15q8 0 21 -7t23 -9l22 6l7 -5h5q7 0 29 -4q26 -6 34 -6q9 -1 89 13h2q3 0 11 -5q8 -7 12 -7q3 -1 8 -1q13 0 29 6
q23 8 28 7l106 -8q6 0 21 5q12 4 19 4q12 -5 33 -8l24 8q15 7 24 7q16 0 16 -10zM436 664q8 30 8 42q0 32 -43 39q-43 -25 -95 -71t-73 -79q-16 -35 -45 -85l-16 -28l-20 -69q-7 -15 -22 -57q-12 -69 -12 -94q0 -27 7 -40q-5 -15 -5 -26q0 -28 29 -72l22 -33l19 -29
q21 -11 32 -14q50 21 52 65l15 20l32 126q7 11 12 32q1 19 34 147q17 21 23 43zM647 572q0 111 -51 141q-20 0 -27.5 -4.5t-9 -14t-2.5 -36.5q-2 -15 -7 -22q-17 -20 -17 -29l3 -12q4 -10 4 -18q0 -13 -14 -27q-19 -17 -20 -24q2 -12 2 -28l-7 -24q-5 -18 -5 -26
q0 -12 8 -23q30 2 62 -2l61 -5q20 83 20 154zM511.5 663q-3.5 4 -8.5 4q-6 0 -10.5 -4.5t-4.5 -12.5q0 -19 17 -17q10 4 10 18q0 8 -3.5 12zM489.5 558q-3.5 3 -8.5 3q-6 0 -12 -4.5t-6 -10.5q0 -14 16 -10q14 5 14 14q0 5 -3.5 8zM828 515zM600.5 337q12.5 26 18.5 51
l-67 -3q-53 -2 -67 -1q-8 -3 -11.5 -14t-7.5 -33l-10 -32l-15 -48l-24 -73l3 -15q1 -2 1 -5q0 -5 -3 -10t-7 -10t-9 -12q-3 -12 -3 -26q0 -7 2 -25q111 67 153 155q9 26 14 39q20 36 32.5 62zM77 214q0 10 -9 8q-10 -7 -10 -18q0 -8 5 -8q14 0 14 18z" />
    <glyph glyph-name="oe" unicode="oe" horiz-adv-x="714" 
d="M584 501q-20 -101 -51 -101q-6 0 -13 5q-6 5 -15 34q-7 25 -22 27l-61 2q14 -20 26 -56t12 -52q1 -13 -11 -72q18 7 20 26q2 18 7 21q4 2 7 2q8 0 14 -11t5 -21q-18 -28 -25 -55q-9 -41 -13 -54t-17 -13q-8 0 -13 4q2 8 2 19l-1 22l-3 -9q-25 -49 -65 -99.5t-72 -67.5h31
q76 0 84 7l25 39q14 11 33 36q10 10 18 10q10 0 14 -9q2 -4 -18 -61t-28 -66q-17 -20 -30 -19l-124 4h-6q-14 0 -23 -1q-19 -3 -27 -3h-45q-14 -8 -29 -6l-46 2q-41 0 -96 73q-6 10 -16.5 46t-10.5 57q0 74 34.5 149.5t120.5 153.5q9 9 30 20q20 11 31 23q2 -1 5 -1
q6 0 25 11q17 10 26 10q58 1 95 -7q34 1 117 -2l92 -3zM228 454q-44 -30 -68 -71q-54 -88 -66 -157q-3 -42 -3 -74q0 -81 35 -101q20 14 34 61l68 238q18 62 18 82q0 13 -4 21q-10 0 -14 1zM335 449q-7 -8 -13 -33l-32 -109q-2 -9 -6 -16l-5 -10q0 -3 23 -5l30 -1l26 1
q7 49 7 87q0 32 -6 48q-9 25 -24 38zM298 242q-12 4 -26.5 -14t-13.5 -34l-24 -83q-8 -30 -7 -38q42 30 77.5 77.5t47.5 93.5q-14 0 -54 -2z" />
    <glyph glyph-name=".notdef" horiz-adv-x="500" 
d="M63 0v1000h375v-1000h-375zM125 63h250v875h-250v-875z" />
    <glyph glyph-name="space" unicode=" " horiz-adv-x="660" 
 />
    <glyph glyph-name="uni0000" horiz-adv-x="0" 
 />
    <glyph glyph-name="uni0000" horiz-adv-x="0" 
 />
    <glyph glyph-name="g2" horiz-adv-x="660" 
 />
    <glyph glyph-name="hyphen" unicode="-" horiz-adv-x="398" 
d="M321 255q-11 -19 -30 -26.5t-54 -7.5q-7 0 -37.5 -1t-66.5 -1q-60 0 -65 5q-12 15 -37 40q-20 23 -20 31q0 17 62 17h188l26 2q35 2 53 -3q-8 -37 -19 -56z" />
    <glyph glyph-name="A" unicode="A" horiz-adv-x="808" 
d="M716.5 46q6.5 -7 6.5 -15q0 -15 -23 -21q-54 -16 -98 -16q-22 0 -58 6t-58 6q-8 0 -28 -2h-7q-18 0 -18 15q0 17 11 21.5t40 4.5q13 0 21 2.5t13 10.5q6 8 6 20q0 15 -7 33q2 10 2 22l-1 21q-5 18 -4 42q1 12 2 21t1 15q0 10 -5 14t-20 6q-26 5 -35 8q-7 0 -22 -4
q-18 -5 -24 -5l-134 -4q-6 2 -9 2q-15 0 -27.5 -18t-15.5 -38q-60 -63 -90 -117q-29 -26 -29 -36t34 -13q33 -3 33 -15q0 -9 -10.5 -18.5t-20.5 -9.5q-3 0 -7 2q-9 6 -43 6q-23 0 -42 -1t-42 -1q-47 0 -47 12q0 5 3 9q7 9 32 13q36 7 57.5 20.5t38.5 48.5q17 15 29 28
q9 19 31 56l83 107q17 28 23 36l23 24q39 51 86 118q3 6 14.5 28.5t23 39t22.5 25.5q18 14 29 33l21 37q29 35 59 76l27 55q23 41 37 41q18 0 18 -37q0 -13 -1 -21q-1 -14 4 -58q7 -41 7 -61q0 -25 -7 -40q3 -13 4.5 -43t1.5 -42q-4 -11 -5 -26q2 -7 6 -13q4 -7 4 -14
q-1 -18 3 -43l5 -41q-2 -7 -8 -41l5 -95q0 -3 7 -10q6 -6 6 -12q0 -4 -5 -17q-4 -12 -3 -18l14 -70q13 -39 48 -41q6 -1 12.5 -8zM509 573q-8 11 -18 9q-19 -3 -33 -24t-35 -61q-70 -92 -83 -125q-38 -42 -42 -52l-1 -4q0 -8 18 -8l45 3l67 3q12 5 33 9l20 -1l21 1
q14 14 14 25q0 4 -9 29q-2 4 -4 42t-2 70q0 20 1 21l13 43q3 9 -5 20zM558 556q0 -7 7 -7q5 0 9 4t4 10q0 9 -9 7q-11 -5 -11 -14zM535 42q0 -8 9 -7q10 7 10 17q0 8 -8 10q-11 -8 -11 -20z" />
    <glyph glyph-name="B" unicode="B" horiz-adv-x="835" 
d="M834 702.5q-4 -14.5 -5 -19.5q1 -6 1 -29l-4 -11q-4 -7 -3 -12q1 -4 1 -11q0 -25 -19.5 -53.5t-62.5 -74.5q-22 -6 -48 -20t-26 -23q0 -5 16.5 -10t23.5 -6q20 -19 41 -35q30 -27 32 -38v-3q0 -6 3 -14q3 -10 3 -19l-2 -12q-2 -12 -1 -17q1 -7 1 -19q0 -66 -74 -152
q-32 -25 -58 -47q-40 -35 -51.5 -42.5t-34.5 -12.5q-21 -1 -40 -3.5t-67 -12.5q-43 -8 -65 -8h-102q-18 -8 -27 -8t-23 9q-53 0 -73.5 0.5t-27.5 0.5t-7 -1t1.5 -2t1.5 -2q0 -3 -9 -8h-85q-9 1 -17.5 5.5t-8.5 11.5q0 19 19.5 30t48.5 11h31q20 0 30 5.5t26 25.5
q21 27 17 40q-2 10 -2 16q0 42 36 76l39 138q4 14 20 52q18 45 19 50l66 232q2 8 2 12q0 39 -53 39q-13 0 -25 -4q-15 -5 -19 -5q-11 0 -17 4t-6 11q0 12 20 34t32 20q11 -15 29 -15q13 0 36 9q22 9 29 9t17 -6l14 -7l21 9q2 1 115 7q17 -2 71 -4q26 12 37 9l70 -17
q22 -6 42 -32q20 -27 29 -28l14 1h2q4 0 9 -7q1 -2 -3 -16.5zM680 745q-33 1 -47 3t-34 11l-4 1q-1 0 -9 -2l-15 -3q-10 -1 -42 4q-17 -4 -31 -20l-26 -75q-6 -15 -26 -71q-35 -101 -34 -133q8 -3 22 -5q16 7 47 5l21 -1q8 0 56.5 10.5t56.5 14.5q21 9 34.5 23.5t23.5 29.5
l14 21q39 49 39 96q0 63 -46 91zM662 331q0 51 -41 77t-107 25q-2 -1 -10.5 -6t-25.5 -5q-9 0 -26 3q-35 5 -39 5q-10 1 -23 -8t-10 -17q5 -17 5 -24q0 -3 -10 -39l-74 -255q-3 -10 -3 -19q0 -31 46 -31q7 0 74 9l19 -1l24 1q66 23 102 51.5t75 87.5q3 15 5 21q21 48 21 54
q0 12 -7 36q5 22 5 35zM716 273q0 -6 6 -6q5 0 9.5 4t4.5 12q0 11 -8 9q-12 -6 -12 -19z" />
    <glyph glyph-name="C" unicode="C" horiz-adv-x="817" 
d="M801 697q-7 -17 -7 -29q0 -8 3 -16q-5 -22 -9 -33l-6 -7q-7 -4 -12 -4q-10 0 -16 13.5t-10 29t-6 22.5q-11 3 -25 17q-15 19 -25.5 27.5t-26.5 9.5q-33 2 -34 2q-60 16 -74 16q-20 0 -41 -8q-51 3 -137 -58q-108 -76 -166 -206q-3 -4 -14 -24l-30 -103q-1 -3 -1 -69
q0 -11 -4 -27q-5 -20 -5 -27q7 -7 17 -53q13 -57 37 -88t72 -39q9 -7 12 -8h5q7 0 16 -3q11 -4 17 -4h83q5 0 13 7q9 6 15 6l22 3q70 22 98 56q12 3 39 26t37 38q1 4 11 16q7 4 12 4q6 0 6 -8q0 -14 -17 -39l-11 -40q-7 -7 -15 -24q-1 -3 -4.5 -11t-10.5 -12t-18 -8
q-10 -7 -33 -18h-4q-7 0 -19 -3q-21 -6 -128 -30l-18 4q-18 3 -32 3q-21 0 -29 -7q-14 8 -24 8q-7 -1 -17 -1q-6 0 -8 1q-7 8 -29 8l-10 -1q-11 8 -21 8h-6q-7 0 -11.5 2t-9.5 9q-5 5 -22 6q-10 10 -23 13q-11 3 -18 8q-48 36 -82 108q-11 8 -24 25l-4 23q5 8 5 29l-2 34
l-2 33q0 11 2 19q28 98 52.5 155.5t61.5 96.5q3 5 16 6q10 1 15 13q3 6 55 65l37 28q38 13 79 41q14 3 27 12q15 10 19 11h6q13 0 22 1q8 3 17.5 6.5t19.5 7.5l40 15h50q6 0 22 6q15 4 22 3q26 -9 30 -6l11 8q8 5 12 5q5 0 18 -13l26 -4q3 -4 12 -12q38 -8 94 -26l15 1
q3 -2 11 -14q-1 -7 -11 -32zM98 455q5 -5 14 -8l8 12q2 8 -5 8q-9 0 -17 -12zM122 416q0 12 -10 15q-11 -6 -11 -16q0 -9 7 -9q5 0 9 1q5 0 5 9zM240 6h1h-1z" />
    <glyph glyph-name="D" unicode="D" horiz-adv-x="959" 
d="M913 320q-36 -46 -65 -89q-43 -45 -121 -117q-23 -41 -142 -77h-5q-11 0 -19 -1q-28 -10 -87 -27l-51 -8q-31 -6 -50 -6q-57 0 -100 13q-2 1 -5 1q-10 0 -25 -6q-21 -9 -29 -9q-7 0 -12 3q-26 14 -46 14l-21 -1q-22 -2 -29 -2q-17 -11 -26 -11l-23 -1q-10 -1 -25 -1
q-50 0 -50 22q0 16 25 44q2 3 10.5 13.5t16.5 17t15 8.5h1q6 0 26 -13q20 -16 33 -16q16 0 27 23q4 21 5 24q4 4 17 26q1 23 12 73l84 292q-1 2 -1 7q0 11 18 20q23 12 27 18q4 4 4 13q0 15 -17 20l-4 15q24 86 24 96q0 20 -16 27q-15 7 -58 7q-8 -3 -14 -3q-19 0 -19 24
q0 31 29 39l130 -3q34 -8 50 -8t34 7q20 6 39 6q173 0 193 -1q31 -2 68 -15q42 -16 63 -23q8 -3 25 -15q14 -13 26 -16l26 -31l14 -16q29 -32 29 -43q0 -5 -1 -9t-1 -7q0 -11 15 -28q15 -16 15 -42q0 -31 4 -78zM803 469q2 6 2 10q0 6 -5 24q-4 18 -4 22l1 24
q0 60 -30.5 105.5t-80.5 55.5q-8 2 -15 11q-7 8 -14 10l-21 -1l-28 1q-8 2 -24 12q-17 10 -27 10q-4 0 -6 -1q-15 -6 -42 -6q-29 -1 -42 -10t-21 -39q-69 -289 -150 -523q-2 -5 -11 -17q-11 -14 -10 -18q0 -3 3 -9q3 -7 3 -11q0 -7 -4 -19t-4 -19t3 -10q17 -19 45 -23l55 -2
q7 -2 16 -7q11 -6 14 -6q2 0 6 2q18 9 35 13q29 6 40 9.5t33 17.5l38 23q20 7 59 29q37 30 79 72q8 9 12 27q5 17 9 24q16 13 36 44zM868 534q0 16 -12 16q-7 0 -13.5 -5.5t-6.5 -12.5q0 -18 11 -18l8 2q13 6 13 18zM312 404q-8 0 -15 -4t-7 -9q0 -6 13 -6q21 0 20 16
q-5 3 -11 3zM191 122l6 2q4 4 4 9q0 6 -4 11q-10 -12 -6 -22z" />
    <glyph glyph-name="E" unicode="E" horiz-adv-x="846" 
d="M832 741q-6 -13 -11 -43q-6 -36 -11.5 -47t-24.5 -11q-6 0 -10 4q-3 2 -11 29q-8 29 -11 33q-16 25 -72 25l-148 2l-43 1q-10 0 -13 -2t-3.5 -7t-1.5 -7q-1 -5 -4.5 -25t-8.5 -35t-12 -23q-17 -20 -17 -30l3 -12q1 -3 2.5 -8.5t1.5 -9.5q0 -12 -14 -26q-19 -19 -20 -25
q1 -6 1 -28q-11 -53 -11 -49q0 -13 7 -23q8 1 39 -1l41 -1q45 0 81.5 18t36.5 49q0 25 25 25l24 -5q6 2 14 2q6 0 8 -2l2 -10q-10 -5 -16.5 -12.5t-9.5 -26.5l-14 -43l-18 -71q1 -4 1 -11q0 -29 -30 -29q-15 0 -26.5 9t-11.5 22q0 7 3 14q1 34 -80 34q-28 0 -48 -1l-40 -2
q-9 -4 -14 -21q-1 -3 -2 -11.5t-16 -52.5q-13 -38 -13 -42q1 -13 -10 -36q-11 -21 -13 -37q4 -8 2 -29l-16 -23q-16 -43 -16 -62q0 -16 12 -21q10 2 14 2q10 0 22 -5l10 -5l42 -1q34 20 64 23q6 1 17 -4t13 -6q10 -2 15 -2q16 0 33 7l4 1q5 0 11 -3l15 -4q10 -2 15 -2
q38 0 73 17.5t35 42.5q18 17 20 30q2 21 6 28q8 14 50 14q26 0 26 -8q0 -6 -11 -19t-21 -24q-5 -26 -17 -78q-14 -45 -51 -64q-6 -3 -22 6t-21 13h-2l-13 -2l-16 -3q-14 -2 -49 -2q-45 0 -84 3q-19 -10 -29 -10t-23 10l-66 1q-21 -12 -32 -12q-4 0 -16 5q-19 6 -23 7h-3
l-10 -2l-11 -3h-6q-5 0 -15 2q-15 6 -48 4q-10 -1 -26 -1t-21 2h-2q-3 0 -11 -3l-13 -6q-1 -1 -4 -1q-6 0 -10 4q-10 6 -15 5l-28 -10h-40q-7 4 -7 18t8.5 27t19.5 13q6 0 30 -10q8 -4 27 5t34 26.5t15 39.5l15 20l32 126l8 16q5 11 5 19q0 38 33 144q17 21 23 43l47 183
q7 28 7 42q0 30 -43 39q-14 -9 -28 -9q-30 0 -30 28q0 23 27 33h3q8 0 17 -4q16 -7 25 -7l12 2q11 3 18 1q22 -5 37 -5q20 0 56 10q19 -15 71 -15q55 0 94 13h1q3 0 11 -5q8 -7 12 -7q3 -1 9 -1q14 0 30 6q20 7 27 7h56q7 0 20 4q12 4 20 4q12 -5 33 -8l23 9q17 6 25 6
q15 0 15 -10q0 -14 -27 -56zM390 650q0 8 -3.5 12.5t-8.5 4.5q-6 0 -10.5 -5t-4.5 -13q0 -18 17 -16q10 4 10 17zM368 549q0 6 -3.5 9t-9.5 3t-12 -4.5t-6 -10.5q0 -15 17 -10q14 5 14 13z" />
    <glyph glyph-name="F" unicode="F" horiz-adv-x="856" 
d="M848 789q0 -28 -5 -40q-7 -15 -12 -44q-1 -5 -5 -24.5t-11.5 -26t-21.5 -6.5q-6 0 -10 4q-4 3 -10 27q-6 29 -10 34q-15 25 -72 25h-148q-20 0 -30.5 0.5t-3.5 1.5q-23 -1 -28 -18q-6 -33 -11.5 -52.5t-15.5 -30.5q-17 -20 -17 -31l3 -12q1 -3 2 -6.5t1 -8.5
q0 -13 -15 -28q-18 -18 -21 -25q2 -15 1 -29l-13 -50q0 -13 7 -23q5 1 18 1q15 0 23 -1l42 -2q79 0 106 58l4 18q9 16 23 16l25 -5l-2 -4q0 -3 3 -9l2 -9q-6 -26 -22 -70l-19 -72q5 -41 -31 -41q-14 0 -25.5 9t-11.5 22q0 8 4 15q2 33 -66 33q-38 0 -97 -10q-10 -4 -12 -15
l-4 -22q0 -2 -13 -40l-14 -41q0 -14 -12 -37q-13 -22 -13 -37q-2 -10 -7 -18q-7 -10 -7 -14q2 -16 -3 -42l-9 -22q-7 -15 -7 -25t12 -15q12 2 16 2q8 0 29 -10l29 -12l-15 -23q-21 -12 -33 -12q-7 0 -16 4q-19 7 -23 7h-3l-9 -2l-12 -3l-8 -1q-7 0 -13 3q-10 3 -27 3
q-13 0 -20 -1q-10 -1 -27 -1q-16 0 -21 2h-2q-3 0 -11 -3q-4 -2 -9.5 -5t-8.5 -3q-2 0 -10 5q-9 5 -14 4l-29 -10h-40q-7 4 -7 17q0 39 28 39q14 0 32 -7q4 -2 10 -2q21 0 44 15.5t25 41.5l14 36l31 104q17 59 17 56q0 25 15 56q19 40 24 57q11 11 15 46q6 47 7 49l51 167
q10 30 10 44q0 29 -43 38q-19 -11 -34 -11q-33 0 -33 25q0 12 14 21t35 9q15 0 27 -4h3q5 0 14 3q13 3 18 2q20 -6 36 -6q17 0 58 11q25 -19 51 -19q21 0 48 10q20 0 55.5 -1t40.5 -2q13 0 30 7q21 8 25 8q2 0 6 -2l35 -20h3q6 0 18 3l25 7q6 -2 13 -2q18 0 39 14
q17 11 23 11t10 -4q3 -3 3 -19zM364 609q0 8 -3.5 12t-8.5 4q-6 0 -11 -5t-5 -13q0 -18 17 -16q11 5 11 18zM353 435q-7 0 -13 -4.5t-6 -10.5q0 -10 11 -10q20 0 20 15q0 10 -12 10z" />
    <glyph glyph-name="G" unicode="G" horiz-adv-x="847" 
d="M840 748q0 -7 -6 -19l-10 -20q-14 -48 -36 -144l-12 -2q5 28 5 47q0 79 -51.5 123.5t-134.5 44.5q-97 0 -193.5 -57t-157.5 -156q-25 -42 -44.5 -86.5t-43.5 -105.5l-4 -24q-16 -54 -16 -108q0 -98 48.5 -160t133.5 -62q54 0 114 25q12 5 20 5q4 0 7 -1q2 -1 5 -1
q5 0 25 32q17 13 42.5 83.5t29.5 105.5q1 12 -38 15q-40 1 -40 14q0 4 1 6q18 2 37 2q27 0 69 -3q36 -3 71 -3q16 0 50 2q7 0 30 4q21 3 28 2q3 0 3 -6v-9q-2 -2 -39 -5q-39 -4 -49 -25q-3 -5 -28 -103q-21 -85 -32 -91q-29 -10 -77 -30q-13 1 -36 -8.5t-30 -12.5
q-26 -10 -57.5 -14t-81.5 -7l-23 -2q-7 -4 -13 -4q-138 0 -238 88q-15 15 -29 42l-23 45l-5 29q4 13 3 34l-3 34q6 80 15 120t38 103q43 97 85 140l55 49q11 4 76 51q53 37 71 37q12 6 46 19l9 -1q4 0 8 2l14 7q44 13 100 16q11 -1 41 2q3 1 9 1q12 0 22 -4.5t14 -5.5
q4 1 14.5 3t20.5 2q15 0 52 -8q34 -7 53 -6q12 -7 41 -15q29 -7 39 -15q6 -4 6 -11zM199.5 600q3.5 -2 7.5 -2q12 0 15 11q-10 5 -15 5t-8 -2.5t-3 -6.5q0 -3 3.5 -5zM142 491q0 10 -10 10q-7 -10 -7 -16q0 -4 4 -4q13 0 13 10zM57 270h7q1 9 -3 10q-4 -3 -4 -10zM76 234
q0 6 -7 8q-5 -4 -7 -11t3 -7q3 0 4 1q7 3 7 9zM578 212q0 -13 9 -12q10 6 10 16q0 7 -7 7q-12 0 -12 -11zM66 200q0 13 -15 14l-6 -6q0 -6 5.5 -12t12.5 -5q3 5 3 9zM614 93q1 -1 3 -1q6 0 17 17q-1 4 -6 4q-8 0 -14 -20z" />
    <glyph glyph-name="H" unicode="H" horiz-adv-x="1019" 
d="M988 749q-47 -15 -58.5 -26t-14 -25.5t-3.5 -20.5q-4 -25 -13 -43q-10 -21 -35 -109q-16 -19 -24.5 -46t-18.5 -71q-5 -19 -4 -21q3 -5 5 -15l-3 -10q-37 -43 -40 -134q-1 -8 -8 -19t-14 -20q-16 -28 -18 -63q0 -6 -7 -14q-7 -10 -6 -15l12 -47q10 -28 31 -28q8 0 30 11
q6 2 7 2q9 0 9 -10q0 -26 -21 -36q-3 -1 -8 -1q-9 0 -28 7q-10 2 -19 2q-14 0 -44 -5h-3q-3 0 -15 4q-12 5 -16 5h-65q-15 0 -35 -6q-19 -6 -27 -6q-11 0 -27 8q-8 5 -9 11q-2 32 31 32q10 0 29 -3q5 -1 9.5 -2t8.5 -1q6 0 10 4t13 16q12 17 14 25q20 71 29.5 97t28.5 57
l23 86l8 31q0 13 -23 21q-4 2 -22 2q-23 0 -40 -2l-34 -6q-22 -5 -34 -5h-75q-11 0 -28 6q-18 5 -27 5q-62 0 -83 -2.5t-34 -16t-24 -49.5l-9 -30q-15 -44 -23 -76.5t-6 -55.5v-4q0 -10 -6 -18q-13 -15 -16.5 -25.5t-4 -19.5t-0.5 -13q-4 -7 -14 -30q8 -12 42 -12q27 0 52 6
q13 -6 13 -13q0 -10 -25 -23q-24 0 -57 4q-37 3 -54 3q-12 0 -34.5 -2.5t-27.5 -3.5q-6 0 -29 -1t-49 -1q-45 0 -46 8q-3 6 -3 12q0 12 17.5 18.5t38.5 10t28 4.5q25 8 35.5 16.5t13.5 27t4 60.5q0 16 22 48q19 29 16 55q0 6 6 16q5 12 5 16q-2 5 -4 20q8 13 32 65l48 169
l16 37q12 28 10 33q-2 8 -2 13q0 17 16 49q18 38 18 57q0 27 -33 27l-21 -2q-5 -1 -12 -1q-6 0 -8.5 2.5t-2.5 9.5q0 10 10 19t24 9q6 1 21 1q18 0 28 -1q4 -2 25 -10h64q18 8 29 8q3 0 15 -2q13 -4 18 -4q21 5 54 8q11 -11 11 -20q0 -10 -17 -24q-4 -2 -7 -2t-11 5t-10 5
q-16 2 -42.5 -15.5t-30.5 -33.5l-39 -136q-5 -12 -15 -29q-12 -20 -14 -28q-18 -66 -18 -74q0 -29 28 -29h344q29 12 38 21q6 6 7 22l2 22l21 66q16 48 16 76q0 7 -2 15q-1 2 16 31q16 28 16 52q0 14 -4 23q-8 17 -42 17q-31 2 -30 21q14 15 55 15t60 -10q10 -1 68 5
q59 7 87 7q34 0 35 -9q4 -14 -46 -31zM348 709q0 7 -11 7q-4 -4 -4 -8q0 -7 7 -7q4 0 7 3q1 2 1 5zM827 669q-8 -6 -8 -14q0 -7 5 -7q14 0 14 13q0 8 -11 8zM729 405q0 -5 7 -4q12 2 12 9q0 6 -6 10q-13 -4 -13 -15zM716 290q0 -10 8 -10t16.5 8t8.5 16q0 10 -10 10
q-23 0 -23 -24zM677 173l-6 -11q0 -7 6 -7q5 0 11.5 5t6.5 9q0 6 -12 7zM678 77q0 11 -16 11q-9 -4 -9 -15q0 -12 13 -8q12 5 12 12z" />
    <glyph glyph-name="I" unicode="I" horiz-adv-x="567" 
d="M564 781q0 -12 -12.5 -22.5t-26.5 -10.5q-10 0 -18 8q-2 3 -22.5 -6t-40.5 -22.5t-22 -20.5q-1 -4 -3 -33q0 -16 -19 -29q-18 -60 -24 -86t-9 -59q0 -5 -9 -16t-11 -16l-17 -69q2 -13 1 -16q-5 -6 -13 -31q1 -11 -5 -38q-12 -16 -19 -31q-10 -64 -9 -81q1 -7 -22 -49
q-4 -7 -3 -17l2 -14q0 -5 -3 -13.5t-5 -14.5q-5 -16 -3 -24q4 -13 46 -13q24 -1 34 -5t10 -13t-10 -27q-11 -20 -28 -28q-13 6 -46.5 9t-72.5 3q-51 0 -75 -4l-71 3q-3 0 -17 -3q-12 -4 -19 -4q-14 0 -14 12q0 11 11 23.5t23 15.5h7q16 0 27 1q10 7 28 15q19 6 26 11
t10 12.5t10 34.5q10 28 17.5 54.5t7.5 41.5q0 13 -3 34v1q0 4 13 15q13 12 15 20l2 14l111 386q10 34 10 47q0 16 -16 19q-9 2 -54 3q-16 0 -16 15q0 29 29 35q21 -9 81 -9q75 0 120 9h4q8 0 27 -3l31 -5l27 4l12 1q9 0 12 -3q4 -4 4 -11zM309 552q0 -5 7 -5q4 0 8 3t4 8
q0 8 -6 9q-13 -4 -13 -15z" />
    <glyph glyph-name="J" unicode="J" horiz-adv-x="643" 
d="M630 761h-10q-5 1 -12 1q-35 0 -38 -28q-2 -17 -14 -49.5t-18 -46.5q-11 -52 -43 -148q-3 -28 -5 -36q-15 -38 -47 -151q-6 -34 -19 -73q-7 -15 -18 -50v-6q0 -13 -4 -28q-36 -56 -62 -85q-7 -7 -30 -21q-53 -30 -73 -38.5t-43 -10.5q-11 -1 -32 -1q-130 0 -154 80
q-2 8 6 40q15 58 70 58q44 0 44 -38q0 -27 -28 -59q-4 -6 -7 -19.5t-1 -19.5q8 -2 19 -10q10 -10 18 -10q7 0 14 6q6 -1 32 4.5t32 9.5q13 9 36 33q9 14 32 88q10 13 23 38q1 14 9 40q10 13 19 43q10 33 17 89q8 14 8 20q-1 22 19 66q12 25 32 132q2 15 24 70q19 48 19 74
q0 40 -36 40h-8q-4 -1 -9 -1q-21 0 -16 20q9 2 29.5 6t28.5 4q11 0 12 -4h79q12 0 36 8q22 7 38 6v-2q0 -8 15 -8h10q5 1 11 1q20 0 20 -14q0 -2 -2 -10q-3 -10 -23 -10z" />
    <glyph glyph-name="K" unicode="K" horiz-adv-x="866" 
d="M893 781q0 -12 -26 -20l-39 -10q-36 1 -67 -20q-33 -24 -112.5 -91t-143.5 -127t-65 -72q6 -11 45 -95q10 -6 24 -21q1 -10 10 -48q62 -127 117 -211q2 -17 43 -24q41 -8 41 -22q0 -4 -3 -10l-14 -9q-50 -2 -102 4h-3q-3 0 -11 -2q-8 -4 -12 -4q-16 -3 -43 -3
q-44 0 -60.5 0.5t-19.5 0.5q-9 3 -9 11q0 5 2 8l36 14q22 8 23 24q2 14 -60 151q0 5 -2 25q-6 3 -16 13q-23 49 -41.5 84.5t-30 49t-22.5 13.5q-4 0 -9 -3q-1 -7 -1 -26q-2 -16 -9 -47q-12 -16 -19 -31q-10 -64 -9 -81q1 -7 -22 -49q-4 -7 -3 -17l2 -14q0 -5 -3 -13.5
t-5 -14.5q-5 -16 -3 -24q4 -13 46 -13q24 -1 34 -5t10 -13t-10 -27q-11 -20 -28 -28q-13 6 -46.5 9t-72.5 3q-51 0 -75 -4l-71 3q-3 0 -17 -3q-12 -4 -19 -4q-14 0 -14 12q0 11 11 23.5t23 15.5h7q16 0 27 1q10 7 28 15q19 6 26 11t10 12.5t10 34.5q10 28 17.5 54.5
t7.5 41.5q0 13 -3 34v1q0 4 13 15q13 12 15 20l2 14l111 386q10 34 10 47q0 16 -16 19q-9 2 -54 3q-16 0 -16 15q0 29 29 35q21 -9 81 -9q75 0 120 9h4q8 0 27 -3l31 -5l27 4l12 1q9 0 12 -3q4 -4 4 -11q0 -12 -12.5 -22.5t-26.5 -10.5q-10 0 -18 8q-2 3 -22.5 -6
t-40.5 -22.5t-22 -20.5q-1 -4 -3 -33q0 -16 -19 -29q-18 -60 -24 -86t-9 -59q0 -5 -9 -16t-11 -16q-12 -30 -19 -65l15 14q42 32 196 171q8 1 23 8q1 9 11 23q29 28 99 91q6 11 6 20q0 20 -24 30l-9 13q2 11 6 14t21 3h87q80 0 132 -1q2 -6 2 -8zM309 552q0 -5 7 -5q4 0 8 3
t4 8q0 8 -6 9q-13 -4 -13 -15z" />
    <glyph glyph-name="L" unicode="L" horiz-adv-x="731" 
d="M712 222q0 -6 -7 -18l-11 -20l-28 -98q-1 -8 -2.5 -36.5t-9 -45.5t-22.5 -17q-4 0 -12 6q-9 6 -12 6h-169q-1 0 -16 -5q-13 -6 -24 -6q-39 0 -47 3q-13 5 -26 8q-9 -1 -44 1q-7 2 -26 2q-18 0 -29 -1q-30 -2 -38 -2l-17 1q-4 0 -16 4q-10 3 -16 2q-101 -18 -120 -18
q-25 0 -25 13q0 10 10.5 24.5t20.5 19.5q6 2 12 2q4 0 22 -2q31 -4 37 -4q8 0 31 23t26 33l6 22q14 53 25 85t29 59q4 5 4 14q0 6 -2 13.5t-3 10.5v2q0 5 10 20q12 16 13 18q7 15 11 39q5 28 10 38q17 19 33 70.5t35 128.5l8 29q15 51 15 62q0 20 -26 20q-14 0 -59 -8
q-12 5 -12 22q0 36 25 42h3q9 0 20 -7q13 -8 19 -10q0 1 33 7q9 0 28 -4q21 -5 35 -3q2 0 18 8q10 6 16 4q9 -9 19 -9q7 0 12 2t8.5 3t4.5 2q17 3 83 3q35 0 35 -9q0 -8 -26 -31h-63q-31 -22 -43 -34q-2 -2 -14.5 -28t-12.5 -28q2 -10 2 -14q0 -18 -15 -50q-8 -17 -22 -50
l-45 -159q-6 -26 -5 -21q-3 -5 -15.5 -41t-17.5 -51q0 -17 -16 -78l-19 -26q-14 -50 -14 -69q0 -34 48 -34l46 2q48 2 63 2q17 0 48 -12h2q6 0 13 5l14 7l33 3q18 1 41.5 15.5t35.5 29.5q6 8 9 24q3 17 10 30.5t18 32.5t16 27q8 11 19 11t12 -10v-2zM383 651q4 0 11 5
q4 4 4 7q0 4 -8 9q-10 -4 -12 -13q-2 -8 5 -8z" />
    <glyph glyph-name="M" unicode="M" horiz-adv-x="1179" 
d="M1193 777q0 -13 -15 -24t-30 -11q-5 0 -11 2l-65 -18q-24 -11 -34 -48l-12 -42q-1 -4 0 -12q3 -7 3 -11q0 -5 -4 -12q-20 -34 -20 -63l1 -12q1 -6 -10 -36q-10 -28 -12 -38q4 -10 6 -38q-1 -15 -20 -69q-16 -44 -16 -69q0 -11 3 -22l-23 -82q-5 -18 -5 -23q0 -2 3 -7
t2 -16q-20 -34 -20 -51q0 -19 20 -25q39 -6 59.5 -11.5t28.5 -17.5q-4 -30 -26 -30q-10 0 -27 7q-19 6 -27 6h-53q-26 -14 -33 -14q-4 0 -11 4q-16 7 -20 8q-15 5 -35 5q-17 0 -30 -4q-28 -9 -64 -9q-37 0 -37 15q0 10 16 25q7 0 34.5 0.5t45 4.5t21.5 11q12 21 13 64
q0 14 4 26l20 71q6 20 9 57q3 39 9 58l36 125q6 21 7 46q3 33 5 43.5t15 32.5t15 35v2q0 13 -15 13q-24 0 -38 -20q-22 -31 -59 -102q-40 -78 -57 -104q-11 -7 -36 -29q-6 -8 -43.5 -79t-40.5 -79q-32 -25 -43 -42q-15 -13 -71 -101l-13 -31q-5 -11 -13 -17.5t-16 -6.5
q-7 0 -12 7t-5 20q0 8 3 24l2 19q1 15 -5 42q-5 25 -7 43q-5 168 -12 186q-8 18 -20 149q6 22 11 47q0 6 -8 20q-7 11 -7 19q0 4 2.5 11t3.5 10q4 12 4 20q0 17 -17 17q-14 0 -28 -17t-13 -30l-20 -68q-5 -18 -23 -48q-14 -23 -14 -40q0 -14 7 -31v-4q0 -6 -3 -14
q-15 -8 -22 -22.5t-10 -24.5q-11 -10 -23 -30q0 -14 -1 -25q-6 -17 -13 -29q-6 -11 -11 -58q-5 -36 -34 -59q-25 -43 -25 -68q0 -31 53 -34q52 -4 56 -19q1 -8 -17 -19.5t-26 -7.5l-103 1q-25 1 -50 -7q-23 -9 -41 -9q-14 0 -44 5q-13 3 -13 13t11 23.5t25.5 23t23.5 7.5
l8 -6q5 -5 8 -5q19 0 42.5 26.5t30.5 50.5l35 123q15 21 15 40q0 8 4 13q6 7 22 30q3 17 17 68q1 5 19 31q9 12 34 104q12 14 24 32q9 28 38 105q0 3 10 19q7 10 7 19q0 20 -42 27q-50 11 -52 14q-4 3 -4 12q0 26 22 39q72 -5 138 -23q28 14 39 14q6 0 18 -5q14 -9 24 -13h6
q12 0 20 -1q4 -4 4 -13q0 -5 -3 -17q-3 -11 -1 -16q13 -40 13 -64q0 -21 -7 -42q16 -33 16 -74q0 -7 -2 -35q-2 -18 -1 -19q26 -68 24 -89q0 -8 -4 -21q-5 -15 -3 -23q1 -38 5.5 -62.5t18.5 -24.5q21 0 34 25q36 70 107 153q6 17 35.5 67t40.5 61q20 18 36 48l31 51
q10 14 18 45q9 35 19 48t33 13q62 0 82.5 -0.5t23.5 -0.5q49 0 94 8l18 6q11 3 17 3q22 0 22 -19zM953 665.5q8 10.5 8 22.5q0 16 -13 16q-2 0 -8 -2q-19 -7 -19 -26q0 -21 15 -21q9 0 17 10.5zM496 240q0 12 -9 12q-5 0 -10.5 -5t-5.5 -12q0 -14 13 -10q12 5 12 15z" />
    <glyph glyph-name="N" unicode="N" horiz-adv-x="1046" 
d="M1045 791q0 -33 -59 -50q-65 -17 -74 -49l-142 -496q1 -13 -2 -47l-16 -32q1 -6 1 -17q0 -14 -7 -28q-7 -15 -9 -29q4 -8 2 -29q-30 -33 -34 -38q-3 -1 -9 -1q-15 0 -20 26q0 6 -0.5 22.5t-6 33t-17.5 33.5q-22 30 -29 46q-3 6 -36 65q-23 41 -27 70q-2 8 -38 61
q-38 57 -45 71q-18 42 -52 109q-15 18 -52 71q-2 7 -1 19v4q0 12 -5 15q-5 4 -10 4q-10 0 -16.5 -19.5t-12.5 -51.5q-14 -18 -29 -54q1 -3 2 -10t1 -17q0 -18 -5 -24q-13 -21 -11 -40l-77 -269q-14 -16 -14 -37q0 -39 32 -39q11 -10 23 -10q7 0 11 3q19 9 30 9q19 0 19 -29
q0 -12 -1 -23l-2 -24q-8 -7 -19 -7t-25 7q-28 17 -45 17q-11 0 -24 -7t-35 -21q-4 -2 -6 -2q-7 0 -14 7q-6 6 -12 8q-12 2 -27 2q-8 0 -46 -2q-27 -11 -34 -10q-3 4 -3 9q0 16 15 35.5t30 23.5q64 0 85 35q16 25 13 51l4 14q9 12 14 35q5 32 6 35q23 85 93 329q11 31 34 111
q1 9 -10 27t-21 25q-12 2 -20 7q-13 10 -17 11q-27 9 -27 21q0 7 34 50l11 5q6 1 16 1q16 0 18 -11q1 -13 11 -13q7 0 22 6q9 4 19 4t23 -5t18 -7q12 -2 59 -2q8 0 21.5 -19.5t13.5 -28.5q2 -19 45 -101t68 -121v-6q0 -8 3 -25q114 -189 114 -196q0 -23 14 -23q8 0 16.5 9
t8.5 18q0 4 -1 6l122 423v2q0 6 -12 15h-94q-6 0 -20 21.5t-12 27.5q20 9 65 9l47 -2q39 -3 60 -3q32 0 47 5q44 19 90 17q2 -12 2 -16z" />
    <glyph glyph-name="O" unicode="O" horiz-adv-x="814" 
d="M798 549q-4 -21 -4 -35q0 -11 2 -18l2 -18q0 -13 -4 -28l-16 -53q-12 -22 -26 -59q-7 -40 -24 -66l-45 -54q-7 -16 -16 -31q-37 -37 -134 -105q-13 4 -31.5 -8.5t-36 -28t-23.5 -20.5q-5 8 -13 8q-9 0 -32 -17q-25 -18 -29 -19q-61 -18 -113 -18q-33 0 -53 2.5t-43 15
t-49 38.5q-41 41 -55 41q-7 14 -21 35q-27 36 -27 197q0 55 5 90q10 16 18 43q6 25 26 56q39 67 64.5 103t68.5 72q7 12 28 35q69 49 92 65q14 2 38 9l29 20q8 7 41 14q32 7 44 14q19 17 43 17q10 0 58 -13q17 2 35 1q61 -22 85 -49q11 -1 31 -12q14 -12 50 -49q7 -7 16 -27
q0 -12 9 -31q-4 -5 4 -40q9 -40 9 -46q0 -10 -3 -31zM686 556q0 60 -15 111.5t-41 68.5q-14 8 -54 34q-25 13 -87 13q-36 0 -51 -4q-34 -9 -75 -41q-102 -82 -130 -127q-13 -28 -65 -119l-21 -74q-11 -24 -24 -61q-12 -91 -12 -99q0 -26 8 -42q-5 -15 -5 -27q0 -31 32 -78
l45 -65q32 -17 77 -19q9 0 15 -12q42 2 103.5 33t112.5 76q60 52 87 107l15 41q18 28 43 79q36 120 40 169q2 22 2 36zM212 682q-2 -4 -2 -8q0 -5 2 -8.5t6 -2.5l17 11q11 8 11 15q0 10 -7 10q-5 0 -27 -17zM56 216q-10 -7 -10 -19q0 -8 6 -8q15 0 15 18q0 11 -11 9z" />
    <glyph glyph-name="P" unicode="P" horiz-adv-x="824" 
d="M806 589q0 -5 4 -10t4 -10q0 -18 -24 -50t-57 -61.5t-55 -39.5q-10 -9 -51 -35l-33 -7l-66 -19l-67 -3l-32 -1q-16 0 -34 2q-3 0 -17 6q-13 6 -21 6q-2 0 -8 -2q-13 -11 -17 -19.5t-5 -17t-2 -12.5l-65 -225q0 -1 11 -25q17 -32 50 -36q35 -4 35 -16q0 -7 -12 -19
q-13 -15 -27 -15q-8 0 -23 9q-22 14 -23 14h-94q-15 -11 -30 -11q-8 0 -35 5q-16 3 -27 3q-19 0 -51 -9q-8 -2 -16.5 5t-8.5 16q0 3 2 7q14 18 50 23l55 3q21 1 21 13q0 9 -10 17v2q0 6 10 19t12 19l14 51l-2 18q0 6 4 12.5t11 14.5l27 94l-1 10l1 14q7 10 16 32l23 77
q3 12 14 30q12 18 15 25q-3 10 -5 39l20 36q4 7 3 20v21q1 9 17 39q8 39 16 69q3 16 -11 19t-66 6q-18 8 -29 22q0 35 37 35q12 0 31 -3q20 -3 27 -3q5 0 12 -3q7 -4 13 -4q7 0 25 5q15 4 23 4q32 -5 68 -6q17 7 56 7q37 0 93 -10q68 -13 91 -14h6q12 0 20 -1q33 -12 45 -28
l4 -21q17 -13 42 -51q6 -12 6 -40q0 -14 -1 -22q-2 -3 -8 -20zM682 606q2 12 2 25q0 36 -10 65.5t-27 32.5q-27 0 -68 4q-25 19 -40 19q-8 0 -26 -3h-4q-11 0 -23 6q-15 7 -20 7q-13 0 -23 -34l-47 -165q-18 -16 -18 -25q0 -4 5 -19l-18 -64q-13 -16 -13 -34q0 -25 25 -29
l10 -8l8 -1l12 1q16 7 36 11q10 2 37 7q67 21 101 37q19 9 29 30q13 26 20 33q18 14 31 32zM310 364q0 13 -13 13q-9 0 -17 -6t-8 -14q0 -12 11 -12q4 0 10 2q17 2 17 17z" />
    <glyph glyph-name="Q" unicode="Q" horiz-adv-x="775" 
d="M700 -135q-23 -19 -28 -23q-17 -4 -40 -21q-24 -18 -30 -19q-26 -9 -76 -22q-43 2 -70 1q-26 -10 -33 -10q-8 0 -22 8q-14 -6 -28 -6q-61 0 -135 73q-4 4 -11 0q-9 -4 -12 -4q-4 0 -6 5q8 11 8 25q0 16 -9 31t-28 42q-1 0 -7 22q-4 13 -13 15q-15 1 -51.5 30.5
t-49.5 49.5q-59 -8 -59 220q0 55 3 86q2 8 8 17q7 11 8 13l-1 8q0 8 3 20q8 18 33 57q29 50 71 112q18 13 48 43q29 41 114 96q13 1 37 9q3 2 17 13t29 13l18 2q22 14 66 33l31 2h3q6 0 18 -5q6 -2 22 -8q15 2 32 1q37 -14 51.5 -22t29.5 -25q7 -1 27 -10q11 -15 44 -47
q3 -1 13.5 -3.5t16 -8t5.5 -14.5q0 -15 -9 -44q12 -27 12 -59q0 -11 -2 -36t-3 -34q0 -11 3 -22l2 -18q0 -8 -5 -26q-2 -7 -8 -27.5t-13.5 -40t-18.5 -41.5q-3 -17 -18 -55q-13 -23 -47 -60q-6 -13 -16 -30q-27 -27 -128 -102q-12 4 -29.5 -7.5t-34 -26.5t-22.5 -20
q-6 6 -14 6q-16 0 -33 -18q0 -11 21.5 -42.5t31.5 -37.5l30 -6q4 -3 12.5 -11t10.5 -8h46q8 0 15 -6q5 -5 13 -7l122 18q8 7 24 15l28 7q23 5 31 5q16 0 16 -14q0 -7 -8 -25q-9 -4 -56 -26zM644 529q0 57 -14 106t-39 65l-50 33q-25 13 -80 13q-33 0 -51 -5q-31 -7 -72 -40
q-97 -79 -123 -121q-29 -58 -62 -116l-21 -70q-6 -13 -23 -59q-12 -88 -12 -96q0 -26 8 -40q-5 -15 -5 -26q0 -31 30 -76q30 -43 43.5 -57.5t27 -18t45.5 -4.5q8 0 13 -11q40 2 98.5 31.5t107.5 73.5q56 49 82 102q9 26 14 39q19 29 42 77q32 106 39 162q2 24 2 38zM676 590
q0 -11 8 -9q12 5 12 20q0 10 -8 7q-12 -3 -12 -18zM310 -48q0 -9 13 -9q12 0 12 13q0 12 -11 15q-14 -9 -14 -19zM353 -90q0 17 -21 19q-11 -9 -11 -25q0 -15 10 -15q4 0 9 3q13 7 13 18z" />
    <glyph glyph-name="R" unicode="R" horiz-adv-x="797" 
d="M787 630v-8q0 -10 -1 -11q-7 -7 -9 -14q4 -4 4 -11q0 -17 -20.5 -50.5t-48.5 -67t-47 -48.5q-20 -16 -68 -25q-7 -9 -28 -11q-19 -1 -33 -15q-3 -11 10 -16t41 -12q47 -22 52 -112q-8 -11 -8 -24q0 -8 1 -14t2 -10q-4 -8 -4 -24q0 -6 2 -26q2 -18 2 -24q0 -12 -4 -22
q13 -39 62 -42q6 -5 26 -13l19 -24q-1 -15 -12 -20t-24.5 -7t-17.5 -3q-9 4 -30 7q-10 10 -29 10q-12 0 -23 -1l-25 -2q-6 4 -23 14t-27.5 21.5t-14.5 25.5q-21 65 -21 101q0 9 1 14l6 69q0 75 -86 104q-47 14 -72 14q-16 0 -21 -6q-5 -1 -10 -1t-11 -1q-4 -8 -4 -21
q1 -14 -0.5 -19t-5.5 -12t-6 -11l-4 -27l-54 -191q-2 -6 -2 -9q0 -18 45 -20q7 0 13 -7.5t6 -15.5q0 -14 -16 -14q-7 0 -16 4t-14 4q-11 -6 -19 -6q-7 0 -14 4q-8 4 -12 4q-17 -11 -55 -11l-39 2q-17 1 -38 1q-31 0 -43 -9h-3q-15 0 -15 16q0 17 13 27q72 11 76 18
q2 15 12 45q10 19 16 47q5 28 9 39.5t9.5 21t8.5 15.5q10 20 18.5 56t10.5 44q-1 3 -1 10q0 14 11 24q5 19 9 30t15 21q4 16 4 49l-12 13v1q0 3 4 4.5t5 2.5q9 3 11 8q6 11 14.5 49t8.5 50l13 12l18 67q12 42 10 65l9 9l2 12q-3 5 -10 5q-9 0 -22 -7q-14 -8 -20 -8
q-9 0 -17 10t-8 21q0 26 34 26l11 -1q9 3 26 3q21 -12 40 -12q11 0 23 4l18 3q7 0 11 -3q16 -12 35 -12q8 0 12 1l16 15q18 14 37 13q13 -6 47 -12q81 -2 89 9q13 -2 31 -11q19 -8 32 -8q1 -21 17 -16q11 8 16 9q26 -11 43 -37.5t16 -54.5l9 -17q7 -13 10 -22zM633 721
q-46 32 -83 44h-2q-7 0 -18 -6q-13 -9 -20 -9q-3 0 -7 2q-12 5 -37 5q-54 0 -54 -22q0 -4 1 -6l-45 -157q-6 -11 -16 -42q-1 -18 -29 -118q-3 -4 -12 -25q11 -17 23 -17q32 0 29 1l18 9h52q29 0 75 25.5t84 62t46 66.5l13 46q0 17 7 49q-7 30 -25 92zM364 714q-3 0 -6 -1.5
t-3 -4.5v-1q0 -3 3.5 -3.5t7.5 2.5q3 2 5 6q-2 2 -7 2zM589 410l-4 -4q0 -5 11 -7q-2 11 -7 11zM604 213q0 12 -12 12q-17 0 -17 -21q0 -9 6 -9q4 0 8 4q15 5 15 14zM136 24l-6 3q-7 -4 -5 -10h6z" />
    <glyph glyph-name="S" unicode="S" horiz-adv-x="788" 
d="M672 764q-21 -50 -22 -53q-2 -7 -6.5 -29t-12 -35t-18.5 -13q-7 0 -14 4q-3 5 -3 16v15q1 7 1 17q0 50 -47 52q-17 15 -49 17q9 -1 -9 -1.5t-50 -0.5q-51 0 -125 -98l-2 -25q-6 -6 -8 -21q-2 -20 -2 -21q-2 -12 -2 -17q0 -19 15 -32.5t34.5 -24.5t27.5 -16q45 -35 93 -50
q5 -5 40 -26q21 -13 23 -37q0 -6 30 -26q10 -6 11 -16q2 -7 3 -12t2 -7q-4 -9 -4 -27q0 -7 1 -12v-12q0 -34 -25 -53q3 -16 4 -27l-27 -36q-2 -15 -7 -25q-3 -5 -58.5 -44t-88.5 -61q-7 -4 -17 -3q-11 0 -14 -1q-11 -1 -80 -26q-51 -17 -79 -17q-31 0 -54 18q-21 5 -32 17
q-10 12 -21 17q-62 26 -62 62q0 21 13 53l10 48q4 14 14.5 23t21.5 9q12 0 20.5 -9.5t9.5 -28.5q-7 -15 -7 -33q0 -31 20.5 -58t53 -43t68.5 -16q28 0 50 9q85 36 121 81q6 8 15 43q0 3 10 33q7 20 7 34q-1 39 -61 79q-78 48 -117 73q-65 49 -76 113v5q0 100 89 195
q7 8 32 23q22 13 33 24q19 22 49 32q19 5 55 17q26 9 45 9q16 0 30 -9q13 -9 22 -9q2 0 46 16h1q3 0 15 -10q11 -12 14 -14q6 -2 46 -7zM262 468q15 0 15 21q0 16 -13 16q-9 0 -17 -8t-8 -17q0 -14 13 -14l8 2h2z" />
    <glyph glyph-name="T" unicode="T" horiz-adv-x="779" 
d="M817 742l-25 -93q-7 -23 -22 -51t-26 -28q-8 0 -8 15q0 45 19 70q2 38 -4 54.5t-24 21t-60 4.5h-73q-33 -1 -73 -1q-19 0 -25 -4.5t-11 -23.5l-11 -38q-4 -12 -4 -19q0 -3 3 -6q2 -6 1 -10q-15 -27 -20 -37q-20 -44 -49 -171q-7 -10 -26 -79t-37 -140q-16 -13 -16 -34
q0 -5 2 -15q-19 -63 -19 -71q0 -22 19 -41q18 2 26 2q22 0 35 -7q1 -8 -8.5 -20.5t-18.5 -15.5h-4q-7 0 -11 1l-15 2q-7 0 -13 -3q-20 -13 -34 -13q-7 0 -20 7q-13 6 -27 6h-86h-3q-10 0 -26 -4q-29 -6 -43 -6q-17 0 -28 6.5t-11 16.5q0 12 17 25q13 8 24 8q6 0 30 -6
q10 -2 13 -2q9 0 14 4q34 23 44 62l41 141q-7 16 -4 28q12 19 28 55l30 107q5 13 19 37t15 36l-10 1q-1 14 15.5 71t21.5 73q2 5 7 22q5 3 8.5 22t0.5 22q-2 5 -17 5q-120 0 -135 -4q-5 -2 -11.5 -3t-14.5 -3q-3 0 -26 -5q-11 5 -30 3q-27 -12 -60 -82q-32 -64 -45 -66h-2
q-15 0 -15 17q0 5 17 59q16 47 31 110q-2 10 4 20t17 11q22 3 52 2l51 -2l417 1q17 0 65 5q39 4 64 4q18 0 26 -1h31q25 0 40.5 -5.5t18.5 -21.5q0 -1 -16 -25zM394 669q0 -10 8 -10q6 0 10 4.5t4 11.5q0 9 -11 11q-11 -5 -11 -17z" />
    <glyph glyph-name="U" unicode="U" horiz-adv-x="844" 
d="M845 799q0 -14 -13.5 -30.5t-27.5 -20.5q-8 2 -18 2l-19 -1l-13 -13q0 -3 2 -13q3 -10 -25 -96q-30 -91 -30 -128q0 -4 -7 -17l-9 -16l-14 -47l-48 -169q-3 -3 -14 -21.5t-18 -38.5q-9 -24 -17 -36q-42 -59 -113 -110q-13 -2 -33 -13q-24 -13 -32 -14q-16 -9 -27.5 -11.5
t-21.5 -3t-14 -0.5q-17 -9 -23.5 -11t-21.5 -2l-48 1q-12 11 -40 11l-23 -1q-10 2 -21 9q-13 9 -19 11q-47 17 -86 51.5t-39 68.5q0 9 1 13q-3 8 -2 22v8q0 10 -1 13q3 9 15 43.5t19 61.5t7 41q0 5 -2 11l1 5q6 6 10 29q3 19 7 32q14 14 17 36q1 13 5 39l25 86l16 40l-1 9
l1 12l5 15q18 12 18 56q0 49 -36 49l-5 5q-1 9 10.5 23.5t21.5 17.5h2q5 0 9 -4q6 -7 9 -7l5 2l115 -4q15 0 44 7q26 7 44 5q1 -2 1 -7q0 -12 -11 -25.5t-24 -17.5q-7 1 -18 1q-32 0 -40 -32q-7 -33 -13 -56q-2 -30 -22 -62l-20 -68q4 -11 -29 -104l-7 -21l-7 -10
q-3 -25 -19 -84l4 -16q-25 -87 -25 -116q0 -39 33 -98q7 -12 17 -16t32 -7q12 -10 18.5 -11.5t28.5 -3.5l21 -1q5 -8 17 -8q11 0 32.5 9t25.5 11q11 3 30 4q18 2 33 12q15 11 82 65q9 13 42 52q3 17 17 31l16 56q8 13 18 37q6 6 9.5 10t3.5 8q0 5 -3 18l15 48q8 11 15.5 30
t10.5 39q3 35 4 37l20 71v15q0 12 2.5 18.5t9.5 7.5q0 15 1.5 27t11.5 19q-2 6 -2 12q0 13 9 32q5 12 5 19q0 16 -19 16q-8 0 -14 -1l-14 -2q-26 0 -26 38q0 26 18 26q5 0 12 -6t14 -4q23 -1 60 3q41 3 60 2q6 -2 8 -2q6 0 14 4q7 4 12 4q3 -4 3 -10zM228 683q0 13 -13 14
q-10 -3 -10 -13q0 -15 13 -12q10 3 10 11zM215 650q0 -6 6 -6q5 0 9.5 3.5t4.5 9.5q0 7 -7 7q-13 0 -13 -14zM87 142q0 6 -9 8q-8 -5 -8 -10q0 -6 10 -5q7 1 7 7z" />
    <glyph glyph-name="V" unicode="V" horiz-adv-x="821" 
d="M827 770q0 -9 -12.5 -17t-25.5 -8q-11 0 -16 4q-23 -1 -34.5 -4.5t-21 -11.5t-33.5 -33q-72 -67 -146 -202q-38 -69 -56 -98.5t-41 -58.5l-28 -41q-60 -85 -65 -106q-17 -13 -42 -56q-10 -8 -74 -106q-2 -4 -7.5 -19.5t-12.5 -25t-15 -11.5q-26 -5 -26 26q0 10 3 26l2 20
q1 15 -5 44q-5 25 -7 45q-4 177 -12 195q-8 20 -20 157v2q0 6 6 22q6 18 6 26q0 7 -8 21t-8 21q0 4 2.5 11t3.5 10q5 15 5 20q0 8 -8 16q-10 9 -14.5 20.5t-1.5 17.5h1l-9 14q-10 11 -10 18l1 10q0 12 -16.5 15t-33.5 3h-22q-17 2 -17 18q0 29 24 42q42 -3 108 -21
q33 18 92 18q23 0 40 -1l33 -2h57q2 -4 2 -9q0 -11 -4.5 -18.5t-12.5 -5.5q-3 1 -12 1q-17 0 -35.5 -9.5t-31.5 -23t-13 -23.5q2 -21 5 -31q3 -18 3 -26q0 -17 -7 -35q16 -35 16 -77q0 -7 -2 -37q-2 -19 -1 -21q26 -73 25 -93q0 -9 -4 -22q-5 -17 -4 -24q2 -30 20 -112
q2 -6 5 -6q8 0 35 53q37 73 111 160q6 18 37 71t43 64q22 22 38 50l19 33q11 19 13 21q13 19 13 36q0 20 -22 39q-21 17 -21 32q0 6 3 9q6 6 42 6q24 0 54.5 -1.5t40.5 -4.5l11 -3q9 0 41 7q15 3 25 3q16 0 24 -8t8 -15zM116 674v-3v3zM222 214q0 12 -9 12q-16 0 -16 -18
q0 -14 13 -10q12 5 12 16z" />
    <glyph glyph-name="W" unicode="W" horiz-adv-x="1158" 
d="M1154 778q0 -10 -12 -17.5t-26 -7.5q-10 0 -16 3q-23 -1 -33.5 -4t-18.5 -10t-37 -35q-74 -73 -146 -202q-38 -69 -56 -98.5t-43 -62.5q1 2 5 6q-44 -60 -68 -96.5t-27 -52.5q-20 -14 -43 -56q-12 -9 -74 -106l-13 -32q-4 -11 -13 -18t-17 -7q-7 0 -12 7t-5 20q0 10 3 26
l2 20q1 16 -5 46q-7 27 -7 43q-5 178 -12 194q-8 16 -12 54q-33 -48 -45 -63l18 22q-47 -65 -70 -99.5t-26 -49.5q-17 -13 -42 -56q-11 -8 -74 -107l-13 -32q-4 -10 -13 -17t-17 -7t-13 6.5t-5 20.5q0 8 2.5 23t3.5 22q1 15 -5 47q-7 27 -7 42q-4 175 -13 196q-8 20 -20 157
q0 4 6 23q6 20 6 27t-8 21q-7 13 -7 20q0 9 6 22q5 15 5 20q0 8 -10 17q-9 8 -13 19.5t-2 17.5q1 -1 1 -5v1q0 6 -9 18q-12 13 -10 19q1 3 1 9q0 12 -16.5 15t-33.5 3h-22q-16 1 -16 18q0 27 23 42q42 -3 108 -21q33 18 92 18q24 0 41 -1l33 -2q9 0 23 -3q2 -4 2 -9
q0 -10 -4.5 -18t-12.5 -7q-8 2 -12 2q-20 0 -33.5 -17t-12.5 -36q0 -17 4 -32q3 -16 3 -26q0 -14 -6 -34q16 -35 16 -77q0 -14 -3 -37q-2 -20 -1 -21q26 -73 25 -94q0 -8 -4 -21q-5 -19 -4 -24q2 -30 20 -112q1 -7 5 -7q8 0 35 54q36 71 112 160l6 15l-3 42q0 5 6 24
q6 20 6 26q0 7 -8 21q-7 13 -7 20t6 22q5 15 5 21q0 10 -10 17q-10 6 -10 26t4 20q1 0 2 -5v2q0 6 -8 14q-11 11 -9 17l7 23v1l-8 -2q-17 0 -17 28q0 17 14 25l20 -1q10 0 14 2l4 1l10 -2q19 -3 49 -3q31 0 72 3q1 -2 1 -7q0 -14 -16 -45t-16 -43q0 -6 7 -22l10 -25
q6 11 18 23q22 23 42 59.5t20 52.5q0 5 -2 7l25 2q5 -1 11 -1h1h1q5 3 23.5 6.5t27.5 4.5q11 0 21 -12q5 -5 5 -12q0 -14 -17.5 -27.5t-33.5 -13.5q-5 0 -11 2q-2 -3 -37 -38q-42 -41 -87 -104l-2 -4q9 -27 9 -58q0 -15 -3 -38q-2 -19 -1 -20q26 -74 25 -94q0 -8 -4 -21
q-5 -19 -4 -25q2 -30 20 -112q2 -6 5 -6q8 0 35 53q38 74 112 160q5 18 36 71t43 64q22 22 38 50l19 33q11 19 13 21q13 19 13 36q0 21 -22 39q-21 17 -21 32q0 6 3 9q8 6 43 6q78 0 95 -5l10 -3q9 0 41 7q14 3 24 3q16 0 26 -8q7 -7 7 -15zM502 623q0 11 -9 11
q-16 0 -16 -17q0 -14 13 -10q12 5 12 16zM549 222q0 11 -9 11q-16 0 -16 -17q0 -14 13 -10q12 5 12 16z" />
    <glyph glyph-name="X" unicode="X" horiz-adv-x="830" 
d="M844 784q0 -12 -17 -19q-36 -13 -44 -17q-24 -21 -96 -97.5t-132 -145.5t-61 -81l-7 -8q15 -30 15 -67q0 -11 19 -68q19 -55 64 -190q9 -37 22 -50t47 -16l18 -1q-6 -19 -9 -23.5t-14 -6.5q-18 -3 -68 -3h-36l-42 5q-16 -3 -27 -4l-89 1l-29 3q0 17 24 27q82 -1 82 25
l-2 16q-3 8 -1 15l-25 76q2 12 2 25q-6 5 -16 20q-19 59 -27 96l-16 34q-61 -68 -223 -237l-38 -45q-3 -21 32 -29q34 -9 34 -13t-10 -10q-181 0 -179 2v2q0 12 17 18q38 14 44 18q24 22 96.5 98.5t132 145t60.5 79.5l17 18q-6 14 -7 26.5t-1 32.5q-9 38 -40 129
q-35 99 -43 129q-9 37 -22 50t-47 16l-18 1q6 19 9 23.5t14 6.5q18 3 68 3h36l42 -5q16 3 27 4q23 0 32 -1q17 0 32.5 -0.5t24.5 0.5l29 -3q0 -16 -24 -27q-82 1 -82 -25q0 -4 3 -15q2 -11 0 -16l25 -76q-2 -12 -2 -25q1 -5 16 -20q20 -58 27 -96l-1 -35q61 68 223 237
l38 44q3 21 -31 30q-35 8 -35 12t10 11q181 0 179 -2v-2zM344 661q0 -5 7 -4q12 2 12 9q0 6 -6 10q-13 -4 -13 -15zM415 252.5q3 -2.5 7 -2.5q8 0 15.5 6.5t7.5 16.5t-7 10q-9 0 -17.5 -8t-8.5 -16q0 -4 3 -6.5zM493 118q0 -6 6 -9q13 4 13 15q0 6 -8 4q-11 -2 -11 -10z" />
    <glyph glyph-name="Y" unicode="Y" horiz-adv-x="700" 
d="M696 785q0 -13 -17 -19q-38 -14 -45 -18q-26 -25 -99 -103t-131.5 -146t-58.5 -80l-24 -29q-8 -26 -15 -29q-2 -6 0 -8l3 -9q-9 -13 -15 -27q-14 -30 -16 -60q-27 -91 -44 -155q-2 -14 -2 -20q0 -54 34 -54q9 0 18 4q6 2 9 2q8 0 21 -5q3 -3 3 -7q0 -15 -23 -26
q-2 -2 -9 -2q-6 0 -10 2l-17 5q-12 2 -22 2q-20 0 -41 -4h-3q-3 0 -15 4q-9 4 -16 4h-65q-13 0 -35 -5q-19 -6 -27 -6q-13 0 -27 7q-8 5 -9 11q-2 33 31 33q9 0 29 -3l18 -2q6 0 11 3t14 11q15 13 16 18q20 55 54 166l23 85q4 18 3 34q-5 23 -3 34q-7 52 -41 152
q-35 103 -47 147q-10 38 -23 51t-47 16l-17 1q6 19 9 23.5t14 6.5q29 5 104 4q18 -4 42 -5q16 3 26 4l90 -2l29 -2q0 -18 -25 -28q-82 1 -82 -25q0 -4 3 -15q2 -13 1 -17q4 -17 24 -77q-2 -12 -2 -26q6 -5 16 -20q19 -64 26 -98l16 -34q58 65 224 241l39 45q2 21 -32 30
t-34 13t9 11q182 0 180 -2v-2zM178 658q0 -3 7 -3q12 0 12 9q0 6 -6 10q-13 -4 -13 -16zM250.5 524.5q-6.5 -6.5 -6.5 -18.5q0 -9 8 -9t16.5 8t8.5 16q0 10 -9 10q-11 0 -17.5 -6.5zM177 180l-6 -11q0 -7 6 -7q5 0 11.5 5t6.5 9q0 6 -12 6zM178 83q0 11 -16 11q-9 -4 -9 -14
q0 -12 13 -8q12 5 12 11z" />
    <glyph glyph-name="Z" unicode="Z" horiz-adv-x="883" 
d="M867 781.5q10 -2.5 10 -10.5q0 -4 -4 -11q-13 -20 -53 -48q-43 -31 -53 -41q-97 -109 -96 -115q-1 -15 -19 -25q-27 -13 -31 -17q-48 -43 -95 -97l1 -12q-7 -7 -21 -18q-20 -9 -81 -74l-79 -86l-47 -62q-8 0 -30.5 -20t-40.5 -46t-18 -41q0 -13 14 -18l211 -7
q42 -2 52 -2q148 0 214 86q23 28 35.5 46.5t14.5 32.5q4 7 16 7t12 -9q0 -4 -1 -7q-16 -49 -57 -172q-19 -13 -100 -13q-15 0 -63 2q-26 2 -92 2q-60 0 -95 -1q-140 -4 -189 -4q-110 0 -128 -1q-53 5 -56 17q37 32 105 95l2 10l20 19q36 33 60.5 57.5t40.5 46.5q-1 4 20 28
q16 3 54 44q41 45 54 56q1 16 11 19q14 5 19 11l2 11q7 6 38 35.5t49.5 51.5t18.5 31q3 8 69 73.5t101 97.5q8 17 6 20q-16 24 -244 26l-3 3q-67 0 -99 -4t-53 -20.5t-33 -53.5q-8 -2 -10 -2q-6 0 -9 3q13 47 17 62q13 41 25 59q5 4 39 4l22 1q19 0 22 1q14 13 25 13
q5 0 14 -8t12 -11l17 -2q12 -3 19 -3q13 0 17 7q4 1 39 -5q39 -6 58 -6q30 0 40 12q57 -15 189 -15h66q19 0 29 -2.5zM645 638l-2 6q-21 -1 -21 -17q0 -5 10 -4q5 4 13 15zM585 516h-3q-7 0 -12 -15l4 -3l6 2q9 11 5 16zM285 225h4l7 7l-9 5l-5 -6zM308 213q-6 7 -12 7
l-8 -7l4 -13q9 0 16 13zM157 46q9 0 9 11q0 5 -6 6q-15 -6 -8 -16q2 -1 5 -1zM47 0l42 -1z" />
    <glyph glyph-name="a" unicode="a" 
d="M390 -26q-7 0 -23 8t-21 8h-99q-24 0 -24 24q0 18 7.5 28t28.5 15q24 6 35.5 19t11.5 44q0 4 0.5 27t-15 36.5t-48.5 13.5q-12 0 -19 -1q-24 -3 -31.5 -7.5t-18.5 -23.5q-16 -30 -51 -87l-1 -11l1 -17q3 -22 3 -31q0 -20 -8 -28.5t-24 -8.5q-12 0 -29 4l-25 3l-34 -6
q-22 6 -22 30q0 5 2 11q9 22 23 27l29 9q19 10 36 35t44 73q31 55 111 178q16 24 47 82q29 52 54 77q4 26 19.5 42.5t32.5 16.5q18 0 18 -20q0 -17 -13 -40q0 -19 -6 -153q-6 -133 -6 -196q0 -68 6 -85q2 -5 20 -31q14 -20 14 -33q0 -7 -5 -17q-7 -15 -20 -15zM302 290l2 38
q0 16 -4.5 24t-10.5 8q-4 0 -7 -4t-3 -10q0 -5 1 -8q-45 -57 -53 -93q6 -6 15 -11l39 2q20 2 18 24z" />
    <glyph glyph-name="b" unicode="b" horiz-adv-x="664" 
d="M540 419q0 -41 -22.5 -74.5t-64.5 -56.5q-25 -13 -34.5 -19.5t-9.5 -11.5q0 -6 30 -18t39 -33t9 -54q0 -41 -30 -82q-46 -84 -197 -84q-29 0 -48 1l-46 2q-49 4 -120 8q-25 0 -25 19q0 7 8 13q16 11 36 20q28 4 28 8q0 2 -4 10q-5 8 -5 17q0 7 3 16l59 175q9 43 40 157
q4 12 4 22q0 8 -8.5 16.5t-17.5 14.5l-12 8l6 13q17 12 43 12q7 0 33 -2l49 -3h186q7 0 25 -5l22 -6q23 -37 23 -53q0 -4 -2 -12q3 -7 3 -18zM454 387q1 4 1 12q0 24 -22.5 42t-50.5 18q-34 0 -51 -5.5t-26.5 -21t-19.5 -51.5q-7 -19 -13.5 -41.5t-6.5 -33.5q0 -26 27 -26
h59q18 0 53 26t40 43zM360 227.5q-21 12.5 -39 13.5q-11 0 -20 1h-16q-38 0 -51 -46l-34 -125q-5 -22 -5 -25q0 -14 16.5 -17.5t40.5 -3.5q49 0 84.5 20t53.5 52t18 66q0 32 -17 37q-10 15 -31 27.5z" />
    <glyph glyph-name="c" unicode="c" horiz-adv-x="607" 
d="M423 345l-24 58q-16 34 -42 45q-9 4 -21 4q-34 0 -78.5 -32t-85 -83.5t-62.5 -104.5q-19 -45 -19 -80q0 -48 31 -73.5t78 -25.5q42 0 81 22t58 58q0 3 7 48q3 11 13.5 20.5t21.5 9.5q23 0 23 -32q0 -17 -16 -62.5t-23 -56.5q-14 -21 -45 -23q-19 -2 -51 -20
q-53 -31 -123 -31t-109 43.5t-39 114.5q0 75 47 154.5t124 138.5t160 76q5 1 15 1q28 0 59 -15t51.5 -38.5t20.5 -48.5q0 -19 -12 -37q-25 -36 -40 -30z" />
    <glyph glyph-name="d" unicode="d" horiz-adv-x="697" 
d="M563 316q0 -67 -27 -123.5t-89 -110.5q-73 -62 -153 -86q-10 -3 -62 -4q-4 1 -17 1.5t-31 1.5q-11 0 -55 2l-17 1l-18 -1l-28 -1q-34 0 -68 22q-2 6 -2 9q0 14 12 24q3 0 14 0.5t18.5 4t9.5 10.5q19 44 61 169t48 159q4 24 4 28q0 13 -7.5 21.5t-26.5 19.5q-28 15 -28 25
t24 20q37 0 50.5 -3t22.5 -8t15 -8q6 -2 8 -2q7 0 29 11q20 10 30 10h121q33 0 70 -25.5t63 -63.5t28 -73q1 -10 1 -30zM438.5 384q-6.5 7 -13.5 15q-36 61 -106 61q-36 0 -45 -18q-25 -56 -53 -150l-45 -157q-3 -18 -15 -51q-4 -9 -11 -17q-7 -11 -5 -18q5 -15 59 -15
q74 0 123.5 22t94.5 83q47 64 47 139q0 48 -19 92q-5 7 -11.5 14z" />
    <glyph glyph-name="e" unicode="e" horiz-adv-x="660" 
d="M542 466q0 -22 -8.5 -44.5t-21.5 -36t-25 -10.5q-7 1 -13 25q-6 23 -21 27q-23 23 -47 23q-8 0 -12 -1q-6 1 -16 1q-43 0 -64 -49l-30 -85q-7 -15 -6 -19q11 -32 43 -32q23 0 51.5 15.5t44.5 34.5q2 1 6 1q12 0 12 -19q0 -21 -11 -50.5t-33 -79.5h-3q-10 0 -17 19
q-12 28 -16 32t-18 4l-25 -2q-17 -3 -23 -3q-50 2 -54 -42q-21 -38 -25 -78q-9 -9 -9 -18q0 -14 15 -25t31 -11q11 1 32 1t31 -1l38 -1q29 0 42 13l56 63q16 3 22 -6t6 -26q0 -34 -25 -64.5t-55 -30.5h-260h-27q-5 0 -32 -10q-22 -7 -36 -7q-11 0 -16 5q-14 14 -14 35
q0 8 3 12q6 10 46 16q39 4 56 38l10 37l6 19l58 196q12 29 26 78q1 2 1 6q0 6 -5 13q-9 5 -13 2q-7 -4 -14 -4q-12 0 -21.5 14t-9.5 30q0 25 21 25h132q78 0 101.5 2.5t80.5 14.5q10 2 15 2q40 0 40 -49z" />
    <glyph glyph-name="f" unicode="f" horiz-adv-x="620" 
d="M508 515q45 0 45 -37q0 -21 -15.5 -51t-35 -50.5t-28.5 -16.5q-4 1 -6 40q-1 23 -15 27q-23 23 -47 23q-8 0 -12 -1q-6 1 -16 1q-43 0 -64 -49l-30 -85q-7 -15 -6 -19q11 -32 43 -32q23 0 51.5 15.5t44.5 34.5q2 1 6 1q12 0 12 -19q0 -21 -11 -50.5t-33 -79.5h-3
q-10 0 -17 19q-12 28 -16 32t-18 4l-25 -2q-17 -3 -23 -3q-50 2 -54 -42q-21 -38 -25 -78q-9 -9 -9 -18q0 -14 15 -25t31 -11q75 2 75 -28q0 -17 -23.5 -33.5t-47.5 -16.5t-36 18l-81 8l-19 1q-6 0 -15.5 -2.5t-24.5 -8.5q-22 -7 -36 -7q-11 0 -16 5q-14 14 -14 35q0 8 3 12
q6 10 46 16q39 4 56 38l10 37l6 19l58 196q12 29 26 78q1 2 1 6q0 6 -5 13q-9 5 -13 2q-7 -4 -14 -4q-12 0 -21.5 14t-9.5 30q0 25 21 25q198 0 314 17q14 2 21 2z" />
    <glyph glyph-name="g" unicode="g" horiz-adv-x="627" 
d="M499 377.5q-19 -32.5 -25 -38.5q-11 -2 -14 8.5t-3.5 23t-0.5 16.5q-21 55 -85 55q-35 0 -76.5 -19t-79.5 -55.5t-62 -85.5q-36 -70 -33 -144q0 -13 10.5 -43t18.5 -36q16 -4 37 -19q20 -15 35 -15q14 0 34 11q74 12 85 87q2 8 -29 10q-30 2 -30 16q0 11 12 27q6 5 26 11
t30 6q4 0 5 -1l93 3q9 4 18 4q10 0 11 -9q2 -10 2 -14q0 -44 -60 -40q-8 1 -16.5 -22.5t-5.5 -30.5q-3 -33 -5 -44t-11 -18q-16 -14 -55 -25t-62 -11q-20 0 -38 -1h-40q-105 0 -143 41.5t-38 102.5q0 37 15 77q7 18 15.5 36.5t18.5 31.5q6 13 16 30q111 138 174 160
q59 27 105 46q11 4 25 4q17 0 41 -8q48 -20 73 -29q36 -18 36 -42q0 -5 -2 -15q-3 -9 -22 -41.5z" />
    <glyph glyph-name="h" unicode="h" horiz-adv-x="725" 
d="M649 485q-5 -4 -23 -18.5t-28.5 -26.5t-10.5 -19q0 -3 1 -4q-12 -12 -17 -47q-3 -29 -16 -67l-20 -68l-31 -109q-10 -34 -10 -49q0 -25 35 -48q17 -11 17 -24q0 -21 -28 -21q-9 0 -41 5q-25 4 -32 4q-10 6 -24 6q-13 0 -42 -8t-36 -8q-21 0 -24 25q8 13 28 27
q30 20 31 23q26 23 36 64q15 61 18 68l-4 15q-7 5 -23 5q-12 0 -36 -4q-16 -2 -51 3q-38 6 -53 6q-34 0 -48 -11.5t-25 -49.5q-20 -75 -20 -88q0 -9 11 -15q18 -8 29 -25q7 -10 7 -19q0 -23 -58 -23q-19 0 -36 1q-14 -1 -56 -1h-32l-22 11q-3 3 -3 7q0 8 11.5 19.5
t35.5 31.5q39 36 44 82q-3 3 -3 8q0 3 13 33q9 21 18 77q7 46 22 71q3 26 13 60q7 27 7 39q0 24 -31 34q-21 6 -21 24q0 13 8.5 18.5t31.5 5.5q24 0 40 -2t18 -4h53q12 0 25 3q14 3 17 3q13 0 30 -26q-4 -10 -38 -27q-32 -18 -40 -42q-33 -117 -33 -129q0 -26 47 -26l48 1
q26 1 70 1q10 -7 21 -7q15 0 32 16q36 105 36 160q0 14 -5 22l-12 14q-5 1 -16 10q-4 34 130 34q57 0 67 -6z" />
    <glyph glyph-name="i" unicode="i" horiz-adv-x="527" 
d="M351 443h-10q-13 0 -21 -3q-26 -26 -44 -73l-27 -79q-8 -11 -27 -43q-12 -27 -32 -90t-24 -87q5 -4 21 -6q14 -1 22 -12.5t8 -24.5q0 -26 -57 -26q-16 0 -45 3l-39 2q-12 0 -15 -1q-40 -14 -45 -14q-15 0 -26 10q-2 26 26 42q28 13 49 25q11 8 100 271l14 38q10 26 10 41
q0 5 -2 11l-22 27q-20 26 -20 39q0 16 28 16h132q25 15 46 15q20 0 31.5 -13.5t11.5 -32.5q0 -25 -18 -34q-7 -2 -25 -1z" />
    <glyph glyph-name="j" unicode="j" horiz-adv-x="507" 
d="M355 443q-25 -7 -34 -20.5t-14 -32.5t-8 -28l-102 -284q-8 -24 -17 -35t-24 -18t-65 -27q-42 -17 -78 -17q-40 0 -66.5 19t-26.5 45q0 39 55 52q4 1 11 1q37 0 37 -35q0 -6 -3 -12q-8 -7 -8 -13t7 -9.5t16 -3.5q45 0 84 125q25 70 44 127l24 63q16 39 16 65q0 32 -29 43
q-53 17 -53 36q0 23 51 23q36 0 71 -16l57 1q10 0 27 4q20 3 28 3q20 0 23 -13q3 -35 -23 -43z" />
    <glyph glyph-name="k" unicode="k" horiz-adv-x="655" 
d="M592 498q0 -21 -46 -33q-22 -4 -50 -13q-21 -12 -97.5 -77.5t-84.5 -79.5l24 -45q49 -93 66.5 -123t46.5 -71q0 -7 28 -11t28 -23q0 -5 -5 -17l-20 -13q-44 -2 -75 2q-15 -5 -29.5 -6t-38.5 0q-15 1 -33 1q-14 5 -14 20q0 8 4 16q13 7 33 14l2 -1q-27 67 -46.5 108.5
t-43.5 69.5q-20 3 -25 4q-17 -54 -26.5 -89.5t-12.5 -65.5q-1 -4 -1 -9q0 -6 4 -8.5t14 -4.5t18 -4q3 -9 3 -16q0 -17 -15 -29q-6 -4 -44 -6t-82 -2q-68 0 -80 4l-13 19l26 26l42 10q14 4 27 70q32 106 83 286q11 47 11 43q0 11 -7 16t-15.5 7.5t-11.5 3.5q-12 3 -15 11
q-12 38 122 38q30 0 59 -1.5t41 -2.5l10 -5q8 -8 8 -14q0 -11 -17 -22t-36 -13q-20 -3 -30.5 -30.5t-28.5 -107.5l-5 -20q54 16 173 152l-12 13l-10 14q1 20 13 26.5t42 6.5q118 0 138 -2q4 -7 4 -16z" />
    <glyph glyph-name="l" unicode="l" horiz-adv-x="660" 
d="M467 55q-13 -54 -44 -55l-289 -9l-12 1q-16 0 -47 -11q-22 -7 -36 -7q-11 0 -16 5q-14 14 -14 35q0 8 3 12q6 10 46 16q39 4 56 38l10 37l6 19l58 196q12 29 26 78q1 2 1 6q0 6 -5 13q-9 5 -13 2q-7 -4 -14 -4q-12 0 -21.5 14t-9.5 30q0 25 21 25q36 0 97 10q65 9 90 9
q73 0 74 -55q-12 -19 -21.5 -23.5t-18.5 -5t-12 -0.5q-29 -13 -41.5 -22t-21 -22.5t-25.5 -49.5l-10 -21q-13 -28 -9 -41q0 -33 -6 -59l-9 -41q-15 -28 -21.5 -42t-8.5 -28q-8 -8 -8 -19q0 -15 17 -30t32 -14q39 2 62 10t49 29.5t74 71.5q8 2 19 2q12 0 10 -6z" />
    <glyph glyph-name="m" unicode="m" horiz-adv-x="899" 
d="M811 479q0 -18 -9 -31t-24 -13q-3 0 -13 2q-9 -9 -25 -36q-12 -36 -22 -63q-88 -177 -89 -247q-2 -4 -2 -6q0 -9 8 -16t16 -6q-3 -1 27 11q20 -9 20 -26t-16 -31.5t-34 -14.5h-182q-22 0 -22 29q0 11 6.5 17t26.5 8q20 1 31 9q8 6 37 68t39 92q7 18 29 60q20 38 20 55
q0 10 -6.5 20t-15.5 10q-8 0 -18 -14.5t-25 -41.5q-8 -10 -92 -106l-18 -21q-66 -75 -103 -134l-27 -39l-18 -18q-12 -13 -20 -13q-5 0 -12 5q-8 3 -8 22q0 16 4 38q5 23 9 67q1 37 8 144l2 28q2 18 8 36q7 21 7 28q0 12 -12 19q-24 -4 -131 -242q-28 -25 -28 -47
q0 -10 4.5 -15.5t19.5 -8.5q12 -2 15.5 -8t3.5 -16q0 -23 -10 -34t-33 -11q-20 0 -59 10q-42 9 -53 8q-3 0 -20 -12q-12 -9 -25 -9q-12 0 -20 9.5t-8 28.5q0 17 12 25t43 8q32 -2 46 8q23 17 55 80q55 109 95 181q39 74 39 95q0 16 -24 17q-25 1 -38.5 5t-13.5 17
q0 12 9 22.5t20 13.5l10 1q3 0 19 -2q16 -4 24 -4h3q5 0 9.5 2t13.5 9q11 8 18 8h73q15 0 26.5 -24t11.5 -49q0 -14 -4 -18q-2 -28 -2 -60v-32q-11 -28 -11 -95q-6 -16 -6 -24q0 -13 13 -14q38 14 156 168q114 148 127 148h114q21 0 21 -30z" />
    <glyph glyph-name="n" unicode="n" horiz-adv-x="701" 
d="M671 498q0 -28 -40 -52q-48 -28 -57 -47l-9 -29l-11 -38q-37 -103 -91 -228q-11 -39 -37 -111q-8 -11 -20 -11q-3 0 -5 2q-14 13 -82 189q-67 174 -74 179q-5 3 -9 3q-5 0 -10 -5q-8 -9 -31 -90.5t-27 -111.5l-12 -40q-9 -31 -9 -47q0 -17 5 -20t16.5 -3h16.5
q13 0 20 -10q4 -4 4 -11q0 -15 -14 -24q-3 -1 -11 -1q-12 0 -30 3.5t-24 4.5q-7 1 -44 -4q-36 -6 -49 -6q-22 0 -27 11q-2 10 -2 13q0 17 25 27l29 13l20 9q25 15 22 41q6 9 14 37q1 24 25 105l7 22q12 36 28 88l9 23q7 15 7 26q0 8 -4 13q-6 10 -29 18q-26 9 -35 18
q-5 5 -5 10q0 11 13.5 26t23.5 17l9 1q5 0 23 -2q20 -4 32 -2q10 9 35 19q30 2 42.5 -23t21.5 -73q2 -14 4 -22q26 -58 39.5 -91t19.5 -61q14 -54 21 -70.5t29 -35.5q43 86 81 236q3 9 3 18q0 22 -16 44t-16 29q0 12 20 22.5t46 10.5q11 0 20 -1l19 -2q20 0 31 11q10 8 22 8
q18 0 25 -13q2 -8 2 -12z" />
    <glyph glyph-name="o" unicode="o" horiz-adv-x="586" 
d="M369.5 178q-51.5 -90 -123 -154.5t-134.5 -64.5q-47 0 -77 29.5t-30 102.5q0 97 82 239q21 30 37 57q32 58 88.5 101.5t110.5 43.5h76q34 0 34 -105q0 -35 -5 -93q-7 -66 -58.5 -156zM294 454q-15 0 -31 -6q-31 -12 -69.5 -60.5t-65.5 -107t-27 -95.5v-89q0 -21 19.5 -38
t42.5 -17q56 0 126 94q15 15 24 34.5t38 98.5q24 65 24 100q0 58 -52 77q-12 9 -29 9z" />
    <glyph glyph-name="p" unicode="p" horiz-adv-x="585" 
d="M498 327v-5q0 -12 -4 -19l-19 -25l-18 -24q-32 -44 -98 -44q-17 0 -55 5q-40 5 -49 5q-33 0 -40 -19q-1 -16 -9 -48q-7 -10 -18 -30l-21 -70q9 -16 30 -17q21 -3 28 -13q2 -33 -22 -33q-10 0 -25 4t-24 4h-75l-20 -3q-16 -4 -28 -4q-23 0 -23 15q0 3 2 11q17 17 75 79
q23 83 39 125l9 36l7 30q11 19 21 41q12 39 26 76q2 33 -47 67q-7 10 -7 21q0 32 45 32q20 0 34 -11l26 -1l33 1l59 2q97 0 146 -54q11 -16 23 -42q4 -18 4 -30q0 -25 -0.5 -33t-0.5 -9q-4 -7 -4 -20zM431 374q0 37 -25 62.5t-64 25.5q-38 0 -55 -44l-22 -78
q-21 -43 -21 -61t33 -20h15q20 0 27 -1l9 -1q44 0 88 65q15 24 15 52z" />
    <glyph glyph-name="q" unicode="q" horiz-adv-x="586" 
d="M478 -154q-19 -1 -27 -4q-11 -13 -32 -28q-7 -1 -19 -9l-61 -3q-28 -2 -36 -2q-19 0 -35.5 3t-42.5 11q-29 10 -52 17q-16 5 -25 14l-19 20q-35 25 -48.5 45t-16.5 54q-3 5 -18 16q-16 10 -22 17.5t-12 26.5l-11 29q-4 41 -4 70q0 51 16 90q24 61 71.5 127t103 114
t103.5 60q18 5 39 5q58 0 91 -29t33 -91q0 -59 -29 -158q-17 -56 -24 -69q-7 -5 -17 -18q-15 -33 -70 -99q-32 -32 -50.5 -47t-37.5 -26q-1 -1 -24 -4q-9 -2 -14.5 -7t-5.5 -12q0 -15 20 -28q15 -9 35 -11q9 -6 58.5 -22t68.5 -19q6 -1 23 -1q25 0 42 2q14 2 29 15
q17 15 23 15t16 -13t10 -28q0 -9 -4 -13q-7 -9 -25 -10zM386 400q2 2 -14 13q-14 9 -17 12q-12 28 -41 28q-26 0 -61 -24q-61 -41 -107 -103t-52 -122l3 -2q-6 -22 -6 -60q0 -46 7 -78q8 -38 19 -38q1 1 5 1q9 0 24 -4q20 -5 24 -5q6 0 13.5 4t14.5 8.5t11 6.5q33 21 35 23
q56 44 94.5 129t38.5 165l-1 20z" />
    <glyph glyph-name="r" unicode="r" horiz-adv-x="670" 
d="M437 278q-70 -19 -70 -35q0 -8 16 -27q24 -28 34 -52t7 -58q8 -25 12 -34t11 -14.5t28 -18.5q19 -12 18 -36q-38 -12 -66 -12q-29 0 -52.5 18.5t-37 43.5t-13.5 40l1 55q0 20 -4.5 28.5t-23.5 27.5q-28 26 -53 26q-13 0 -24 -8q-49 -133 -51 -146q-1 -19 17 -28
q31 -15 33 -17q3 -21 -19 -39q-7 -6 -15 -4l-16 3h-133q-8 -3 -14 -3q-24 0 -24 30q0 21 17 23q36 2 50 17.5t21 55.5l-1 9l1 11q8 14 21 47q7 39 23.5 89.5t42.5 121.5l12 34q-2 11 -18 30q-17 21 -16 32q7 13 31 13l25 -2q18 -2 22 -1l78 9q86 0 146 -29.5t60 -85.5
q0 -22 -12 -51zM383 448.5q-35 19.5 -62 19.5q-8 0 -11 -1q-7 -1 -13 -9q-4 -12 -29 -88l-32 -96q15 -7 37 -7q34 0 70 18.5t59.5 48t23.5 58.5q0 10 -3 17q-5 20 -40 39.5z" />
    <glyph glyph-name="s" unicode="s" horiz-adv-x="515" 
d="M375 430.5q-9 -29.5 -17 -31.5q-10 -2 -25.5 8.5t-29.5 23t-18 16.5q-10 7 -26 7q-27 0 -50 -19t-24 -43q12 -34 82 -99q66 -63 73 -108q6 -33 4 -40q1 -3 1 -8q0 -29 -28.5 -62t-68 -55.5t-69.5 -22.5h-63q-82 0 -108 54q-4 7 -4 29q0 78 33 78q24 0 39 -34
q16 -37 24 -50.5t17 -18t27 -4.5q24 0 49 18.5t38 44.5q5 12 5 27q0 24 -5 37t-17 25t-45 37q-32 26 -42 52l-2 1l-8 47q-6 29 -6 47q0 52 32.5 85.5t76.5 33.5l19 1q11 1 30 1q107 0 113 -37q2 -11 -7 -40.5z" />
    <glyph glyph-name="t" unicode="t" horiz-adv-x="628" 
d="M563 438q-16 -88 -48 -88q-12 0 -24 13q-6 5 -6 13t9 26t9 25q-20 32 -71 32q-67 0 -82 -46q-1 -11 -8 -48q-5 -20 -41 -119t-41 -108q-21 -34 -21 -55t19 -31h8q16 0 27 -1q18 -4 18 -32q0 -30 -19 -30q-5 0 -15 4q-4 2 -8.5 4.5t-10.5 5.5q-7 -1 -30 -1q-37 2 -51 -8
t-21 -10h-109q-19 1 -19 22q0 14 7.5 28t17.5 17q9 3 31 3t31 4q8 3 33 55t65 140q-2 19 17 69q20 58 20 80q0 39 -45 39q-23 0 -37.5 -5t-30.5 -27q-5 -8 -12.5 -19.5t-20.5 -16.5t-37 -12q-11 9 -24 18l21 64q0 2 8.5 19.5t22.5 32t30 14.5l176 2q37 1 99 1l88 -1
q22 0 38.5 1.5t25.5 2.5t10 2q13 0 22.5 -8t9.5 -20q0 -9 -5 -17q-13 -13 -26 -34z" />
    <glyph glyph-name="u" unicode="u" horiz-adv-x="571" 
d="M546 471q0 -16 -15.5 -25t-48.5 -22q-18 -64 -52 -163q-7 -9 -19 -40q-7 -57 -44.5 -113t-92.5 -91t-111 -35q-19 0 -34 4q-75 16 -107 46.5t-32 86.5t39 158q44 114 50 141q3 14 -11 45q-9 19 -9 29q0 17 27 17q13 0 36 -9q22 -9 33 -9q12 0 45 11q29 10 44 10
q20 0 29 -17q0 -24 -37 -43q-35 -18 -47 -27.5t-19.5 -27t-20.5 -64.5q-21 -76 -29 -94q-29 -67 -29 -97q0 -22 7.5 -40t28.5 -34q24 -20 49 -20q29 0 65.5 20.5t66.5 51.5t41 60q49 142 75 248l-18 27q-12 17 -12 28q0 25 22 25q12 0 40 -12q12 -5 21 -5q5 0 13 2l28 6
q12 0 22 -7q6 -12 6 -21z" />
    <glyph glyph-name="v" unicode="v" horiz-adv-x="628" 
d="M642 500q0 -15 -57 -42q-7 -4 -30 -6q-21 -3 -32 -9.5t-29 -26.5q-15 -17 -27 -29q-19 -16 -45 -51l-42 -51q-52 -55 -80 -96q-7 -12 -30 -30l-32 -28q-42 -52 -96 -106q-4 -22 -27.5 -49.5t-40.5 -27.5t-17 33q0 30 14 156q5 41 6 103q0 68 1 103l1 39q-2 13 -7 18
q2 17 -27 34l-41 24q-6 6 -6 13q0 11 15 20.5t30 9.5h156q6 0 36 5q24 4 39 4q18 0 24.5 -8t6.5 -18q0 -19 -42 -37q-55 -23 -66 -34q-1 -73 -9 -126q-3 -15 -10 -64q-1 -8 6.5 -15.5t15.5 -10.5q11 4 35 18q44 39 101.5 107t87.5 114q-1 6 -12 26q-11 19 -11 28q0 10 8 18
t18 8t28 -7q21 -8 31 -8t19 3q36 15 93 15q44 0 44 -19z" />
    <glyph glyph-name="w" unicode="w" horiz-adv-x="694" 
d="M752 490q0 -11 -9 -22q-4 -4 -51 -15q-37 -8 -51 -17.5t-34 -36.5l-18 -23l-28 -51l-19 -32q-61 -104 -83 -137.5t-45 -59.5q-15 -18 -40 -63q-5 -15 -20.5 -30.5t-26.5 -15.5q-14 0 -14 22q0 8 4 20q3 14 3 21l-2 24q-2 19 -1 25q6 41 6 82q0 50 -4 151l-8 -15
q-75 -128 -98.5 -164t-49.5 -64q-13 -17 -39 -64q-6 -14 -21 -29.5t-26 -15.5q-14 0 -14 22q0 8 4 20q3 14 3 21l-3 24l-1 13l1 11q6 44 7 107q-3 53 -6 160q2 78 -20 89q-22 1 -59 10q-12 14 -12 28q0 9 8 14q23 -1 59 -1q31 0 41 1q14 -8 37 -8q13 0 48 5t41 5
q21 0 21 -14q0 -13 -10.5 -26.5t-22.5 -14.5q-41 -5 -41 -40l3 -33q2 -16 2 -21l-1 -11q-2 -22 -2 -34q0 -22 4 -53q3 -36 3 -52q5 -5 10 -5q10 0 18.5 14t18.5 37q32 42 40 54q5 10 29 55q15 20 33 49q-5 42 -18 49q-5 1 -23 10q-4 4 -4 15q0 19 15 25q19 0 49 2
q11 -7 25 -7q28 5 70 5q20 3 31 3q12 0 16 -3q5 -3 5 -11q0 -12 -10.5 -26t-22.5 -15q-41 -5 -41 -40l3 -33q2 -16 2 -21l-1 -11q-2 -20 -2 -33q0 -23 4 -54q3 -36 3 -52q4 -4 11 -4q13 0 36 50q32 42 40 54q5 10 29 55q19 26 49 77q-9 8 -18 25q2 7 4 24q7 19 42 17l39 3
l52 2q45 0 45 -13q6 -1 6 -9z" />
    <glyph glyph-name="x" unicode="x" horiz-adv-x="683" 
d="M517 438q-25 -9 -37 -18t-32 -33q-19 -24 -37 -36q-27 -17 -103 -89l69 -185q3 -3 31 -21q21 -14 27 -27q2 -8 2 -12q0 -27 -43 -27q-18 0 -25 6q-27 18 -49 18q-13 0 -39 -9q-24 -10 -42 -10q-8 0 -13 1q-9 11 -9 19q0 12 28 31q27 20 27 37q0 7 -3 14q-12 36 -33 89
q-82 -38 -159 -134l4 -15q24 -18 24 -34q0 -13 -18 -13q-8 0 -25 5h-77q-30 0 -30 26q0 13 9.5 26.5t21.5 17.5q8 -1 39 1q8 2 15 14q3 7 11 19q15 17 91 77q68 53 73 71q-27 88 -45.5 134.5t-37.5 58.5q-7 4 -18 3q-4 -1 -8.5 -2t-8.5 -1q-12 0 -20 14q-8 13 -8 25
q0 22 17 22q6 0 18 -5t18 -9q14 -2 24 -2q16 0 56 8q35 7 53 7q26 0 39 -13q1 -5 1 -12q0 -17 -15 -23q-21 -7 -24 -12q-3 -4 -3 -12q0 -11 35 -113q19 5 49 32.5t82 79.5q-2 11 -13 31q-12 20 -12 31q0 14 12 24h4q11 0 26 -7q17 -10 27 -10q11 0 27 12q15 12 32 12
q18 0 32 -11t14 -26q0 -14 -15 -28q-12 -8 -36 -17z" />
    <glyph glyph-name="y" unicode="y" horiz-adv-x="576" 
d="M493 430h-6q-29 0 -44.5 -7.5t-33.5 -29.5q-19 -25 -28 -32q-14 -14 -64 -43q-44 -25 -61.5 -49t-16.5 -67q-1 -12 -13 -42q0 -7 -14 -43q-15 -34 -15 -50q0 -14 10 -20q1 0 26 -7q5 -2 7.5 -12t-1.5 -14q-24 -25 -85 -25q-7 0 -39 2l-34 1q-2 -1 -17 -2t-36 -1
q-26 0 -33 4q-5 8 -5 15q0 13 10.5 23.5t24.5 10.5q17 0 29 -17q28 37 53 111.5t25 124.5q0 9 -2 23q-3 15 -27 66t-38 74q-6 10 -23 13q-19 5 -33 18q-5 15 -5 23q0 36 83 36h110q8 6 15 6q14 0 25 -12.5t11 -27.5q0 -18 -16 -25q-17 0 -27 -6.5t-12 -30.5q-2 -32 -1 -36
q8 -13 12 -23t9 -34q3 -13 17 -21q64 56 98 88.5t42 53.5q-16 20 -16 35q0 23 25.5 28t96.5 5q16 10 29 10q27 0 27 -47q0 -33 -7 -40t-32 -7z" />
    <glyph glyph-name="z" unicode="z" horiz-adv-x="672" 
d="M486 424q-14 -14 -102 -116.5t-182 -214.5l-9 -27q20 -6 52 -6q86 0 155 29q11 4 24 28q6 23 30 70q-3 15 8.5 28.5t26.5 11.5q6 0 18 -35v-3q0 -8 -5 -14q-2 -3 -7.5 -11.5t-9.5 -18t-6 -20.5q-3 -26 -4 -29q2 -26 2 -41q0 -12 -2 -44q-23 -23 -87 -23q-8 0 -46 2l-35 2
q-10 5 -57 5q-5 5 -15 5q-23 -5 -67 -9q-10 0 -28 5q-16 4 -29 3q-9 -7 -22 -15q-9 -3 -32.5 8t-20.5 19l9 33q1 5 16 18q7 5 21 17q17 17 38 47q19 28 36 46l17 11q34 40 102 107q15 12 35 47l9 6l20 28t23 38t8 30q0 5 -1 8q-15 7 -43 7q-18 0 -31.5 -1t-21.5 -2
q-25 -2 -47 -27q-12 -8 -25 -23q-9 -15 -25 -62q1 -20 -12 -33.5t-31 -13.5q-19 0 -27 14q-1 1 -1 6q0 12 13 63q12 48 9 58q-5 25 -5 32q0 13 12 20l39 17l57 12q2 -2 32 -14q25 5 93 5h31q11 7 15 7t9 -3q4 -4 8 -4h73l12 2l10 1q14 0 14 -35q0 -7 -41 -51z" />
    <glyph glyph-name="Adieresis" unicode="&#xc4;" horiz-adv-x="822" 
d="M579 982q27 -13 27 -47q0 -27 -17.5 -53.5t-46.5 -38.5h-53q-25 19 -25 52q0 61 68 87h47zM757 982q26 -14 26 -47q0 -27 -17.5 -53.5t-46.5 -38.5h-53q-25 19 -25 52q0 63 69 87h47zM716.5 46q6.5 -7 6.5 -15q0 -15 -23 -21q-54 -16 -98 -16q-22 0 -58 6t-58 6
q-8 0 -28 -2h-7q-18 0 -18 15q0 17 11 21.5t40 4.5q13 0 21 2.5t13 10.5q6 8 6 20q0 15 -7 33q2 10 2 22l-1 21q-5 18 -4 42q1 12 2 21t1 15q0 10 -5 14t-20 6q-26 5 -35 8q-7 0 -22 -4q-18 -5 -24 -5l-134 -4q-6 2 -9 2q-15 0 -27.5 -18t-15.5 -38q-60 -63 -90 -117
q-29 -26 -29 -36t34 -13q33 -3 33 -15q0 -9 -10.5 -18.5t-20.5 -9.5q-3 0 -7 2q-9 6 -43 6q-23 0 -42 -1t-42 -1q-47 0 -47 12q0 5 3 9q7 9 32 13q36 7 57.5 20.5t38.5 48.5q17 15 29 28q9 19 31 56l83 107q17 28 23 36l23 24q39 51 86 118q3 6 14.5 28.5t23 39t22.5 25.5
q18 14 29 33l21 37q29 35 59 76l27 55q23 41 37 41q18 0 18 -37q0 -13 -1 -21q-1 -14 4 -58q7 -41 7 -61q0 -25 -7 -40q3 -13 4.5 -43t1.5 -42q-4 -11 -5 -26q2 -7 6 -13q4 -7 4 -14q-1 -18 3 -43l5 -41q-2 -7 -8 -41l5 -95q0 -3 7 -10q6 -6 6 -12q0 -4 -5 -17
q-4 -12 -3 -18l14 -70q13 -39 48 -41q6 -1 12.5 -8zM509 573q-8 11 -18 9q-19 -3 -33 -24t-35 -61q-70 -92 -83 -125q-38 -42 -42 -52l-1 -4q0 -8 18 -8l45 3l67 3q12 5 33 9l20 -1l21 1q14 14 14 25q0 4 -9 29q-2 4 -4 42t-2 70q0 20 1 21l13 43q3 9 -5 20zM558 556
q0 -7 7 -7q5 0 9 4t4 10q0 9 -9 7q-11 -5 -11 -14zM535 42q0 -8 9 -7q10 7 10 17q0 8 -8 10q-11 -8 -11 -20z" />
    <glyph glyph-name="Aring" unicode="&#xc5;" horiz-adv-x="808" 
d="M630 802q-31 0 -52 23.5t-21 58.5q0 26 14 56l26 29q13 8 20 13l21 6q11 4 20 4q35 -1 55.5 -23.5t20.5 -56.5q0 -61 -57 -96q-25 -14 -47 -14zM702 910q0 18 -16 30t-38 12q-60 0 -66 -66q-1 -21 12.5 -33.5t34.5 -12.5q55 0 71 58q2 8 2 12zM716.5 46q6.5 -7 6.5 -15
q0 -15 -23 -21q-54 -16 -98 -16q-22 0 -58 6t-58 6q-8 0 -28 -2h-7q-18 0 -18 15q0 17 11 21.5t40 4.5q13 0 21 2.5t13 10.5q6 8 6 20q0 15 -7 33q2 10 2 22l-1 21q-5 18 -4 42q1 12 2 21t1 15q0 10 -5 14t-20 6q-26 5 -35 8q-7 0 -22 -4q-18 -5 -24 -5l-134 -4q-6 2 -9 2
q-15 0 -27.5 -18t-15.5 -38q-60 -63 -90 -117q-29 -26 -29 -36t34 -13q33 -3 33 -15q0 -9 -10.5 -18.5t-20.5 -9.5q-3 0 -7 2q-9 6 -43 6q-23 0 -42 -1t-42 -1q-47 0 -47 12q0 5 3 9q7 9 32 13q36 7 57.5 20.5t38.5 48.5q17 15 29 28q9 19 31 56l83 107q17 28 23 36l23 24
q39 51 86 118q3 6 14.5 28.5t23 39t22.5 25.5q18 14 29 33l21 37q29 35 59 76l27 55q23 41 37 41q18 0 18 -37q0 -13 -1 -21q-1 -14 4 -58q7 -41 7 -61q0 -25 -7 -40q3 -13 4.5 -43t1.5 -42q-4 -11 -5 -26q2 -7 6 -13q4 -7 4 -14q-1 -18 3 -43l5 -41q-2 -7 -8 -41l5 -95
q0 -3 7 -10q6 -6 6 -12q0 -4 -5 -17q-4 -12 -3 -18l14 -70q13 -39 48 -41q6 -1 12.5 -8zM509 573q-8 11 -18 9q-19 -3 -33 -24t-35 -61q-70 -92 -83 -125q-38 -42 -42 -52l-1 -4q0 -8 18 -8l45 3l67 3q12 5 33 9l20 -1l21 1q14 14 14 25q0 4 -9 29q-2 4 -4 42t-2 70
q0 20 1 21l13 43q3 9 -5 20zM558 556q0 -7 7 -7q5 0 9 4t4 10q0 9 -9 7q-11 -5 -11 -14zM535 42q0 -8 9 -7q10 7 10 17q0 8 -8 10q-11 -8 -11 -20z" />
    <glyph glyph-name="Ccedilla" unicode="&#xc7;" horiz-adv-x="817" 
d="M801 697q-7 -17 -7 -29q0 -8 3 -16q-5 -22 -9 -33l-6 -7q-7 -4 -12 -4q-10 0 -16 13.5t-10 29t-6 22.5q-11 3 -25 17q-15 19 -25.5 27.5t-26.5 9.5q-33 2 -34 2q-60 16 -74 16q-20 0 -41 -8q-51 3 -137 -58q-108 -76 -166 -206q-3 -4 -14 -24l-30 -103q-1 -3 -1 -69
q0 -11 -4 -27q-5 -20 -5 -27q7 -7 17 -53q13 -57 37 -88t72 -39q9 -7 12 -8h5q7 0 16 -3q11 -4 17 -4h83q5 0 13 7q9 6 15 6l22 3q70 22 98 56q12 3 39 26t37 38q1 4 11 16q7 4 12 4q6 0 6 -8q0 -14 -17 -39l-11 -40q-7 -7 -15 -24q-1 -3 -4.5 -11t-10.5 -12t-18 -8
q-10 -7 -33 -18h-4q-7 0 -19 -3q-21 -6 -128 -30l-18 4q-18 3 -32 3q-21 0 -29 -7q-14 8 -24 8q-7 -1 -17 -1q-6 0 -8 1q-7 8 -29 8l-10 -1q-11 8 -21 8h-6q-7 0 -11.5 2t-9.5 9q-5 5 -22 6q-10 10 -23 13q-11 3 -18 8q-48 36 -82 108q-11 8 -24 25l-4 23q5 8 5 29l-2 34
l-2 33q0 11 2 19q28 98 52.5 155.5t61.5 96.5q3 5 16 6q10 1 15 13q3 6 55 65l37 28q38 13 79 41q14 3 27 12q15 10 19 11h6q13 0 22 1q8 3 17.5 6.5t19.5 7.5l40 15h50q6 0 22 6q15 4 22 3q26 -9 30 -6l11 8q8 5 12 5q5 0 18 -13l26 -4q3 -4 12 -12q38 -8 94 -26l15 1
q3 -2 11 -14q-1 -7 -11 -32zM98 455q5 -5 14 -8l8 12q2 8 -5 8q-9 0 -17 -12zM122 416q0 12 -10 15q-11 -6 -11 -16q0 -9 7 -9q5 0 9 1q5 0 5 9zM240 6h1h-1z" />
    <glyph glyph-name="Eacute" unicode="&#xc9;" horiz-adv-x="846" 
d="M648 921l-61 -49q-26 -30 -43 -46.5t-29 -16.5q-11 0 -12 22l14 25q32 58 53 91.5t32 35.5q6 2 9 2q6 0 15 -3q8 -4 15 -4t15 4q6 2 15 2q12 0 21 -3.5t6 -9.5q-4 -12 -50 -50zM832 741q-6 -13 -11 -43q-6 -36 -11.5 -47t-24.5 -11q-6 0 -10 4q-3 2 -11 29q-8 29 -11 33
q-16 25 -72 25l-148 2l-43 1q-10 0 -13 -2t-3.5 -7t-1.5 -7q-1 -5 -4.5 -25t-8.5 -35t-12 -23q-17 -20 -17 -30l3 -12q1 -3 2.5 -8.5t1.5 -9.5q0 -12 -14 -26q-19 -19 -20 -25q1 -6 1 -28q-11 -53 -11 -49q0 -13 7 -23q8 1 39 -1l41 -1q45 0 81.5 18t36.5 49q0 25 25 25
l24 -5q6 2 14 2q6 0 8 -2l2 -10q-10 -5 -16.5 -12.5t-9.5 -26.5l-14 -43l-18 -71q1 -4 1 -11q0 -29 -30 -29q-15 0 -26.5 9t-11.5 22q0 7 3 14q1 34 -80 34q-28 0 -48 -1l-40 -2q-9 -4 -14 -21q-1 -3 -2 -11.5t-16 -52.5q-13 -38 -13 -42q1 -13 -10 -36q-11 -21 -13 -37
q4 -8 2 -29l-16 -23q-16 -43 -16 -62q0 -16 12 -21q10 2 14 2q10 0 22 -5l10 -5l42 -1q34 20 64 23q6 1 17 -4t13 -6q10 -2 15 -2q16 0 33 7l4 1q5 0 11 -3l15 -4q10 -2 15 -2q38 0 73 17.5t35 42.5q18 17 20 30q2 21 6 28q8 14 50 14q26 0 26 -8q0 -6 -11 -19t-21 -24
q-5 -26 -17 -78q-14 -45 -51 -64q-6 -3 -22 6t-21 13h-2l-13 -2l-16 -3q-14 -2 -49 -2q-45 0 -84 3q-19 -10 -29 -10t-23 10l-66 1q-21 -12 -32 -12q-4 0 -16 5q-19 6 -23 7h-3l-10 -2l-11 -3h-6q-5 0 -15 2q-15 6 -48 4q-10 -1 -26 -1t-21 2h-2q-3 0 -11 -3l-13 -6
q-1 -1 -4 -1q-6 0 -10 4q-10 6 -15 5l-28 -10h-40q-7 4 -7 18t8.5 27t19.5 13q6 0 30 -10q8 -4 27 5t34 26.5t15 39.5l15 20l32 126l8 16q5 11 5 19q0 38 33 144q17 21 23 43l47 183q7 28 7 42q0 30 -43 39q-14 -9 -28 -9q-30 0 -30 28q0 23 27 33h3q8 0 17 -4q16 -7 25 -7
l12 2q11 3 18 1q22 -5 37 -5q20 0 56 10q19 -15 71 -15q55 0 94 13h1q3 0 11 -5q8 -7 12 -7q3 -1 9 -1q14 0 30 6q20 7 27 7h56q7 0 20 4q12 4 20 4q12 -5 33 -8l23 9q17 6 25 6q15 0 15 -10q0 -14 -27 -56zM390 650q0 8 -3.5 12.5t-8.5 4.5q-6 0 -10.5 -5t-4.5 -13
q0 -18 17 -16q10 4 10 17zM368 549q0 6 -3.5 9t-9.5 3t-12 -4.5t-6 -10.5q0 -15 17 -10q14 5 14 13z" />
    <glyph glyph-name="Ntilde" unicode="&#xd1;" horiz-adv-x="1046" 
d="M483 901q-43 16 -44 43q7 4 17 4t46 -11q27 -8 43 -8q22 0 36 14q1 8 13 20q21 18 74 18q38 0 75.5 -9.5t62 -25.5t24.5 -34q0 -5 -2 -11q-8 -2 -12 -2q-15 0 -43 16q-32 16 -54 16q-12 0 -24 -6q-4 -10 -13 -20q-29 -20 -97 -20q-59 0 -102 16zM1045 791q0 -33 -59 -50
q-65 -17 -74 -49l-142 -496q1 -13 -2 -47l-16 -32q1 -6 1 -17q0 -14 -7 -28q-7 -15 -9 -29q4 -8 2 -29q-30 -33 -34 -38q-3 -1 -9 -1q-15 0 -20 26q0 6 -0.5 22.5t-6 33t-17.5 33.5q-22 30 -29 46q-3 6 -36 65q-23 41 -27 70q-2 8 -38 61q-38 57 -45 71q-18 42 -52 109
q-15 18 -52 71q-2 7 -1 19v4q0 12 -5 15q-5 4 -10 4q-10 0 -16.5 -19.5t-12.5 -51.5q-14 -18 -29 -54q1 -3 2 -10t1 -17q0 -18 -5 -24q-13 -21 -11 -40l-77 -269q-14 -16 -14 -37q0 -39 32 -39q11 -10 23 -10q7 0 11 3q19 9 30 9q19 0 19 -29q0 -12 -1 -23l-2 -24
q-8 -7 -19 -7t-25 7q-28 17 -45 17q-11 0 -24 -7t-35 -21q-4 -2 -6 -2q-7 0 -14 7q-6 6 -12 8q-12 2 -27 2q-8 0 -46 -2q-27 -11 -34 -10q-3 4 -3 9q0 16 15 35.5t30 23.5q64 0 85 35q16 25 13 51l4 14q9 12 14 35q5 32 6 35q23 85 93 329q11 31 34 111q1 9 -10 27t-21 25
q-12 2 -20 7q-13 10 -17 11q-27 9 -27 21q0 7 34 50l11 5q6 1 16 1q16 0 18 -11q1 -13 11 -13q7 0 22 6q9 4 19 4t23 -5t18 -7q12 -2 59 -2q8 0 21.5 -19.5t13.5 -28.5q2 -19 45 -101t68 -121v-6q0 -8 3 -25q114 -189 114 -196q0 -23 14 -23q8 0 16.5 9t8.5 18q0 4 -1 6
l122 423v2q0 6 -12 15h-94q-6 0 -20 21.5t-12 27.5q20 9 65 9l47 -2q39 -3 60 -3q32 0 47 5q44 19 90 17q2 -12 2 -16z" />
    <glyph glyph-name="Odieresis" unicode="&#xd6;" horiz-adv-x="814" 
d="M516 990q27 -13 27 -47q0 -28 -17.5 -53.5t-46.5 -38.5h-53q-26 20 -26 52q0 62 69 87h47zM693 990q27 -13 27 -47q0 -27 -17.5 -53.5t-46.5 -38.5h-53q-25 19 -25 52q0 62 69 87h46zM798 549q-4 -21 -4 -35q0 -11 2 -18l2 -18q0 -13 -4 -28l-16 -53q-12 -22 -26 -59
q-7 -40 -24 -66l-45 -54q-7 -16 -16 -31q-37 -37 -134 -105q-13 4 -31.5 -8.5t-36 -28t-23.5 -20.5q-5 8 -13 8q-9 0 -32 -17q-25 -18 -29 -19q-61 -18 -113 -18q-33 0 -53 2.5t-43 15t-49 38.5q-41 41 -55 41q-7 14 -21 35q-27 36 -27 197q0 55 5 90q10 16 18 43
q6 25 26 56q39 67 64.5 103t68.5 72q7 12 28 35q69 49 92 65q14 2 38 9l29 20q8 7 41 14q32 7 44 14q19 17 43 17q10 0 58 -13q17 2 35 1q61 -22 85 -49q11 -1 31 -12q14 -12 50 -49q7 -7 16 -27q0 -12 9 -31q-4 -5 4 -40q9 -40 9 -46q0 -10 -3 -31zM686 556q0 60 -15 111.5
t-41 68.5q-14 8 -54 34q-25 13 -87 13q-36 0 -51 -4q-34 -9 -75 -41q-102 -82 -130 -127q-13 -28 -65 -119l-21 -74q-11 -24 -24 -61q-12 -91 -12 -99q0 -26 8 -42q-5 -15 -5 -27q0 -31 32 -78l45 -65q32 -17 77 -19q9 0 15 -12q42 2 103.5 33t112.5 76q60 52 87 107l15 41
q18 28 43 79q36 120 40 169q2 22 2 36zM212 682q-2 -4 -2 -8q0 -5 2 -8.5t6 -2.5l17 11q11 8 11 15q0 10 -7 10q-5 0 -27 -17zM56 216q-10 -7 -10 -19q0 -8 6 -8q15 0 15 18q0 11 -11 9z" />
    <glyph glyph-name="Udieresis" unicode="&#xdc;" horiz-adv-x="844" 
d="M490 991q26 -14 26 -47q0 -27 -18 -53t-45 -39h-54q-25 19 -25 52q0 62 69 87h47zM667 991q26 -14 26 -47q0 -27 -18 -53t-45 -39h-53q-26 20 -26 53q0 62 69 86h47zM845 799q0 -14 -13.5 -30.5t-27.5 -20.5q-8 2 -18 2l-19 -1l-13 -13q0 -3 2 -13q3 -10 -25 -96
q-30 -91 -30 -128q0 -4 -7 -17l-9 -16l-14 -47l-48 -169q-3 -3 -14 -21.5t-18 -38.5q-9 -24 -17 -36q-42 -59 -113 -110q-13 -2 -33 -13q-24 -13 -32 -14q-16 -9 -27.5 -11.5t-21.5 -3t-14 -0.5q-17 -9 -23.5 -11t-21.5 -2l-48 1q-12 11 -40 11l-23 -1q-10 2 -21 9
q-13 9 -19 11q-47 17 -86 51.5t-39 68.5q0 9 1 13q-3 8 -2 22v8q0 10 -1 13q3 9 15 43.5t19 61.5t7 41q0 5 -2 11l1 5q6 6 10 29q3 19 7 32q14 14 17 36q1 13 5 39l25 86l16 40l-1 9l1 12l5 15q18 12 18 56q0 49 -36 49l-5 5q-1 9 10.5 23.5t21.5 17.5h2q5 0 9 -4q6 -7 9 -7
l5 2l115 -4q15 0 44 7q26 7 44 5q1 -2 1 -7q0 -12 -11 -25.5t-24 -17.5q-7 1 -18 1q-32 0 -40 -32q-7 -33 -13 -56q-2 -30 -22 -62l-20 -68q4 -11 -29 -104l-7 -21l-7 -10q-3 -25 -19 -84l4 -16q-25 -87 -25 -116q0 -39 33 -98q7 -12 17 -16t32 -7q12 -10 18.5 -11.5
t28.5 -3.5l21 -1q5 -8 17 -8q11 0 32.5 9t25.5 11q11 3 30 4q18 2 33 12q15 11 82 65q9 13 42 52q3 17 17 31l16 56q8 13 18 37q6 6 9.5 10t3.5 8q0 5 -3 18l15 48q8 11 15.5 30t10.5 39q3 35 4 37l20 71v15q0 12 2.5 18.5t9.5 7.5q0 15 1.5 27t11.5 19q-2 6 -2 12
q0 13 9 32q5 12 5 19q0 16 -19 16q-8 0 -14 -1l-14 -2q-26 0 -26 38q0 26 18 26q5 0 12 -6t14 -4q23 -1 60 3q41 3 60 2q6 -2 8 -2q6 0 14 4q7 4 12 4q3 -4 3 -10zM228 683q0 13 -13 14q-10 -3 -10 -13q0 -15 13 -12q10 3 10 11zM215 650q0 -6 6 -6q5 0 9.5 3.5t4.5 9.5
q0 7 -7 7q-13 0 -13 -14zM87 142q0 6 -9 8q-8 -5 -8 -10q0 -6 10 -5q7 1 7 7z" />
    <glyph glyph-name="aacute" unicode="&#xe1;" 
d="M400 662q0 -26 -35.5 -63t-65.5 -50h-3q-12 0 -12 12t18.5 46.5t25.5 46.5q5 12 47 41q25 -10 25 -33zM390 -26q-7 0 -23 8t-21 8h-99q-24 0 -24 24q0 18 7.5 28t28.5 15q24 6 35.5 19t11.5 44q0 4 0.5 27t-15 36.5t-48.5 13.5q-12 0 -19 -1q-24 -3 -31.5 -7.5
t-18.5 -23.5q-16 -30 -51 -87l-1 -11l1 -17q3 -22 3 -31q0 -20 -8 -28.5t-24 -8.5q-12 0 -29 4l-25 3l-34 -6q-22 6 -22 30q0 5 2 11q9 22 23 27l29 9q19 10 36 35t44 73q31 55 111 178q16 24 47 82q29 52 54 77q4 26 19.5 42.5t32.5 16.5q18 0 18 -20q0 -17 -13 -40
q0 -19 -6 -153q-6 -133 -6 -196q0 -68 6 -85q2 -5 20 -31q14 -20 14 -33q0 -7 -5 -17q-7 -15 -20 -15zM302 290l2 38q0 16 -4.5 24t-10.5 8q-4 0 -7 -4t-3 -10q0 -5 1 -8q-45 -57 -53 -93q6 -6 15 -11l39 2q20 2 18 24z" />
    <glyph glyph-name="agrave" unicode="&#xe0;" 
d="M387.5 614q-35.5 36 -35.5 63q0 21 26 33q5 -4 19.5 -14t20 -15.5t7.5 -11.5q7 -12 25.5 -47t18.5 -47t-15 -11q-31 14 -66.5 50zM390 -26q-7 0 -23 8t-21 8h-99q-24 0 -24 24q0 18 7.5 28t28.5 15q24 6 35.5 19t11.5 44q0 4 0.5 27t-15 36.5t-48.5 13.5q-12 0 -19 -1
q-24 -3 -31.5 -7.5t-18.5 -23.5q-16 -30 -51 -87l-1 -11l1 -17q3 -22 3 -31q0 -20 -8 -28.5t-24 -8.5q-12 0 -29 4l-25 3l-34 -6q-22 6 -22 30q0 5 2 11q9 22 23 27l29 9q19 10 36 35t44 73q31 55 111 178q16 24 47 82q29 52 54 77q4 26 19.5 42.5t32.5 16.5q18 0 18 -20
q0 -17 -13 -40q0 -19 -6 -153q-6 -133 -6 -196q0 -68 6 -85q2 -5 20 -31q14 -20 14 -33q0 -7 -5 -17q-7 -15 -20 -15zM302 290l2 38q0 16 -4.5 24t-10.5 8q-4 0 -7 -4t-3 -10q0 -5 1 -8q-45 -57 -53 -93q6 -6 15 -11l39 2q20 2 18 24z" />
    <glyph glyph-name="acircumflex" unicode="&#xe2;" 
d="M453 553q-18 10 -23 42q-1 19 -5 57q-3 18 -12 18t-56 -56t-75 -56q-17 0 -17 10q0 15 28 47q19 20 37 43l23 30q31 40 45 56t32 31l20 -6q3 -13 22 -78q18 -64 18 -96q0 -26 -10 -39zM390 -26q-7 0 -23 8t-21 8h-99q-24 0 -24 24q0 18 7.5 28t28.5 15q24 6 35.5 19
t11.5 44q0 4 0.5 27t-15 36.5t-48.5 13.5q-12 0 -19 -1q-24 -3 -31.5 -7.5t-18.5 -23.5q-16 -30 -51 -87l-1 -11l1 -17q3 -22 3 -31q0 -20 -8 -28.5t-24 -8.5q-12 0 -29 4l-25 3l-34 -6q-22 6 -22 30q0 5 2 11q9 22 23 27l29 9q19 10 36 35t44 73q31 55 111 178q16 24 47 82
q29 52 54 77q4 26 19.5 42.5t32.5 16.5q18 0 18 -20q0 -17 -13 -40q0 -19 -6 -153q-6 -133 -6 -196q0 -68 6 -85q2 -5 20 -31q14 -20 14 -33q0 -7 -5 -17q-7 -15 -20 -15zM302 290l2 38q0 16 -4.5 24t-10.5 8q-4 0 -7 -4t-3 -10q0 -5 1 -8q-45 -57 -53 -93q6 -6 15 -11l39 2
q20 2 18 24z" />
    <glyph glyph-name="adieresis" unicode="&#xe4;" 
d="M381 740q27 -13 27 -47q0 -27 -17.5 -53.5t-46.5 -38.5h-53q-26 20 -26 52q0 62 69 87h47zM558 740q27 -13 27 -47q0 -27 -17.5 -53.5t-46.5 -38.5h-53q-25 19 -25 52q0 63 68 87h47zM390 -26q-7 0 -23 8t-21 8h-99q-24 0 -24 24q0 18 7.5 28t28.5 15q24 6 35.5 19
t11.5 44q0 4 0.5 27t-15 36.5t-48.5 13.5q-12 0 -19 -1q-24 -3 -31.5 -7.5t-18.5 -23.5q-16 -30 -51 -87l-1 -11l1 -17q3 -22 3 -31q0 -20 -8 -28.5t-24 -8.5q-12 0 -29 4l-25 3l-34 -6q-22 6 -22 30q0 5 2 11q9 22 23 27l29 9q19 10 36 35t44 73q31 55 111 178q16 24 47 82
q29 52 54 77q4 26 19.5 42.5t32.5 16.5q18 0 18 -20q0 -17 -13 -40q0 -19 -6 -153q-6 -133 -6 -196q0 -68 6 -85q2 -5 20 -31q14 -20 14 -33q0 -7 -5 -17q-7 -15 -20 -15zM302 290l2 38q0 16 -4.5 24t-10.5 8q-4 0 -7 -4t-3 -10q0 -5 1 -8q-45 -57 -53 -93q6 -6 15 -11l39 2
q20 2 18 24z" />
    <glyph glyph-name="atilde" unicode="&#xe3;" 
d="M597 649q-14 0 -45 23q-32 25 -56 25q-15 0 -24 -9q-5 -16 -13 -29q-30 -30 -100 -30q-60 0 -104.5 24t-46.5 62q7 6 18 6q13 0 46 -15q25 -12 46 -12q23 0 37 20q3 2 6 15q3 14 7 15q23 27 76 27q39 0 78 -14t64 -38t25 -51q0 -6 -2 -16q-6 -3 -12 -3zM390 -26
q-7 0 -23 8t-21 8h-99q-24 0 -24 24q0 18 7.5 28t28.5 15q24 6 35.5 19t11.5 44q0 4 0.5 27t-15 36.5t-48.5 13.5q-12 0 -19 -1q-24 -3 -31.5 -7.5t-18.5 -23.5q-16 -30 -51 -87l-1 -11l1 -17q3 -22 3 -31q0 -20 -8 -28.5t-24 -8.5q-12 0 -29 4l-25 3l-34 -6q-22 6 -22 30
q0 5 2 11q9 22 23 27l29 9q19 10 36 35t44 73q31 55 111 178q16 24 47 82q29 52 54 77q4 26 19.5 42.5t32.5 16.5q18 0 18 -20q0 -17 -13 -40q0 -19 -6 -153q-6 -133 -6 -196q0 -68 6 -85q2 -5 20 -31q14 -20 14 -33q0 -7 -5 -17q-7 -15 -20 -15zM302 290l2 38q0 16 -4.5 24
t-10.5 8q-4 0 -7 -4t-3 -10q0 -5 1 -8q-45 -57 -53 -93q6 -6 15 -11l39 2q20 2 18 24z" />
    <glyph glyph-name="aring" unicode="&#xe5;" 
d="M388 574q-33 0 -54.5 23t-21.5 58q0 38 24 75l33 34q6 2 27 16l25 9q18 5 25 5q40 0 62 -21.5t22 -56.5q0 -76 -80 -123q-31 -19 -62 -19zM479 705q0 29 -37 29q-27 0 -42.5 -17t-15.5 -38q0 -14 8 -24t23 -10q43 0 62 48zM390 -26q-7 0 -23 8t-21 8h-99q-24 0 -24 24
q0 18 7.5 28t28.5 15q24 6 35.5 19t11.5 44q0 4 0.5 27t-15 36.5t-48.5 13.5q-12 0 -19 -1q-24 -3 -31.5 -7.5t-18.5 -23.5q-16 -30 -51 -87l-1 -11l1 -17q3 -22 3 -31q0 -20 -8 -28.5t-24 -8.5q-12 0 -29 4l-25 3l-34 -6q-22 6 -22 30q0 5 2 11q9 22 23 27l29 9
q19 10 36 35t44 73q31 55 111 178q16 24 47 82q29 52 54 77q4 26 19.5 42.5t32.5 16.5q18 0 18 -20q0 -17 -13 -40q0 -19 -6 -153q-6 -133 -6 -196q0 -68 6 -85q2 -5 20 -31q14 -20 14 -33q0 -7 -5 -17q-7 -15 -20 -15zM302 290l2 38q0 16 -4.5 24t-10.5 8q-4 0 -7 -4
t-3 -10q0 -5 1 -8q-45 -57 -53 -93q6 -6 15 -11l39 2q20 2 18 24z" />
    <glyph glyph-name="ccedilla" unicode="&#xe7;" horiz-adv-x="607" 
d="M423 345l-24 58q-16 34 -42 45q-9 4 -21 4q-34 0 -78.5 -32t-85 -83.5t-62.5 -104.5q-19 -45 -19 -80q0 -48 31 -73.5t78 -25.5q42 0 81 22t58 58q0 3 7 48q3 11 13.5 20.5t21.5 9.5q23 0 23 -32q0 -17 -16 -62.5t-23 -56.5q-14 -21 -45 -23q-19 -2 -51 -20
q-15 -8 -37 -16q10 -17 19 -29q-5 -26 -35 -42q-27 -15 -22 -35q2 -14 2 -21q0 -43 -31.5 -82t-79.5 -54q-9 -2 -20.5 5t-11.5 16q0 6 6 14q7 7 25 11t26 9q39 25 39 48q0 12 -13 32t-13 32q0 22 31 44q14 10 23 24.5t10 16.5q-19 -4 -41 -4q-70 0 -109 43.5t-39 114.5
q0 75 47 154.5t124 138.5t160 76q5 1 15 1q28 0 59 -15t51.5 -38.5t20.5 -48.5q0 -19 -12 -37q-25 -36 -40 -30z" />
    <glyph glyph-name="eacute" unicode="&#xe9;" horiz-adv-x="670" 
d="M498 664q0 -27 -35 -63.5t-66 -49.5h-3q-12 0 -12 11q0 12 18.5 47t25.5 47q5 12 47 41q25 -12 25 -33zM544 420q0 -66 -39 -71q-12 9 -12 27l2 21l2 21q0 18 -10 28t-24 10q-10 0 -18 -4q-18 0 -56 2l-34 2q-20 0 -28 -14q-34 -91 -55 -158q14 -18 31 -18q21 0 49 25
l41 36q5 4 21 2q13 -7 13 -17t-20 -33t-19 -30q2 -18 2 -22q0 -42 -53 -53q-2 4 -2 7l2 9l1 10q0 13 -16 21.5t-34 8.5q-22 0 -37 -9q-47 -134 -49 -151q0 -4 25 -19h179q18 0 45 41q26 41 38 41q6 0 13.5 -7.5t7.5 -13.5q0 -4 -9 -18q-10 -14 -8 -27q1 -5 1 -14
q0 -55 -80 -55h-242q-13 0 -40 -8q-25 -9 -38 -9h-74q-20 11 -20 34q0 24 20 36h57q26 0 50 82q19 83 69 253q6 13 11 20q6 9 6 20q0 21 -22 29q-5 -4 -14 -4q-17 0 -33.5 13.5t-16.5 27.5q4 6 38 14q56 -9 130 -9l82 2q36 1 82 1t65 -1q20 -25 20 -79z" />
    <glyph glyph-name="egrave" unicode="&#xe8;" horiz-adv-x="656" 
d="M297.5 609.5q-35.5 36.5 -35.5 62.5q0 22 26 34q27 -19 35 -26t12 -15q7 -12 25.5 -47t18.5 -47q0 -13 -15 -12q-31 14 -66.5 50.5zM464 92q-16 -28 -18 -39q2 -4 2 -14q0 -12 -2 -19q-13 -22 -122 -22q-33 0 -101 3q-64 2 -71 1q-4 0 -15 -3q-9 -3 -15 -3q-8 0 -19 4
q-12 3 -18 3q-4 0 -17 -5q-15 -5 -26 -5q-40 0 -50 27q2 25 33 32q42 10 50 16q9 6 32 69t45 135.5t26 99.5q13 21 24 65q-10 14 -14 18q-28 -7 -37 -6q-20 5 -20 24q0 26 23 31q13 -3 45 -3q1 0 23 5q12 4 25 4h159l14 -2q8 -2 14 0l37 16q12 2 18 2q40 0 40 -47
q0 -28 -15.5 -49t-38.5 -21q-22 0 -40 24q-19 22 -34 22h-60q-27 0 -43 -46l-18 -69q-2 -4 -10 -26l-10 -26l4 -3h75q6 0 37 26q29 25 43 25q8 0 13 -8t5 -19q0 -6 -1 -9q-8 -8 -26 -36q-3 -11 -17 -50q-14 -33 -37 -28q-5 2 -12 19q-14 29 -61 29q-38 0 -50 -38
q-10 -24 -19 -59l-6 -24q-6 -16 -6 -24q0 -34 37 -34q11 0 16 1h7l28 -2q6 -1 17 -1q31 0 71 24q32 19 34 41q4 6 20 22q10 4 19 4q12 0 20.5 -4t8.5 -11q0 -9 -16 -37z" />
    <glyph glyph-name="ecircumflex" unicode="&#xea;" horiz-adv-x="646" 
d="M471 556q-14 9 -19 29.5t-6 42t-2 28.5q-5 17 -12 17q-11 0 -57 -55q-47 -56 -75 -56q-16 0 -16 10q0 11 17.5 33t47.5 56q43 57 60.5 78.5t38.5 38.5l20 -5q3 -16 22 -79q18 -63 18 -96q0 -25 -10 -38zM474 92q-16 -28 -18 -39q2 -4 2 -14q0 -12 -2 -19
q-13 -22 -122 -22q-33 0 -101 3q-64 2 -71 1q-4 0 -15 -3q-9 -3 -15 -3q-8 0 -19 4q-12 3 -18 3q-4 0 -17 -5q-15 -5 -26 -5q-40 0 -51 27q3 25 34 32q42 10 50 16q9 6 32 69t45 135.5t26 99.5q13 21 24 65q-10 14 -14 18q-28 -7 -38 -6q-19 4 -19 24q0 26 23 31
q14 -3 45 -3q1 0 23 5q12 4 25 4h159l14 -2q7 -1 14 0l37 16q12 2 17 2q40 0 40 -47q0 -28 -15 -49t-38 -21q-22 0 -40 24q-19 22 -34 22h-60q-27 0 -43 -46l-18 -69q-2 -4 -10 -26l-10 -26l3 -3h76q6 0 37 26q29 25 43 25q8 0 13 -8t5 -19q0 -6 -1 -9q-8 -8 -26 -36
q-3 -11 -17 -50q-14 -33 -37 -28q-5 2 -12 19q-14 29 -61 29q-38 0 -50 -38q-10 -24 -19 -59l-6 -24q-6 -16 -6 -24q0 -34 37 -34q11 0 16 1h7l28 -2q6 -1 17 -1q31 0 71 24q32 19 34 41q4 6 20 22q8 4 19 4t20 -4t9 -11q0 -9 -16 -37z" />
    <glyph glyph-name="edieresis" unicode="&#xeb;" horiz-adv-x="660" 
d="M381 740q27 -13 27 -47q0 -27 -17.5 -53.5t-46.5 -38.5h-53q-26 20 -26 52q0 62 69 87h47zM558 740q27 -13 27 -47q0 -27 -17.5 -53.5t-46.5 -38.5h-53q-25 19 -25 52q0 63 68 87h47zM474 92q-16 -28 -18 -39q2 -4 2 -14q0 -12 -2 -19q-13 -22 -122 -22q-33 0 -101 3
q-64 2 -71 1q-4 0 -15 -3q-9 -3 -15 -3q-8 0 -19 4q-12 3 -18 3q-4 0 -17 -5q-15 -5 -26 -5q-40 0 -51 27q3 25 34 32q42 10 50 16q9 6 32 69t45 135.5t26 99.5q13 21 24 65q-10 14 -14 18q-28 -7 -38 -6q-19 4 -19 24q0 26 23 31q14 -3 45 -3q1 0 23 5q12 4 25 4h159l14 -2
q7 -1 14 0l37 16q12 2 17 2q40 0 40 -47q0 -28 -15 -49t-38 -21q-22 0 -40 24q-19 22 -34 22h-60q-27 0 -43 -46l-18 -69q-2 -4 -10 -26l-10 -26l3 -3h76q6 0 37 26q29 25 43 25q8 0 13 -8t5 -19q0 -6 -1 -9q-8 -8 -26 -36q-3 -11 -17 -50q-14 -33 -37 -28q-5 2 -12 19
q-14 29 -61 29q-38 0 -50 -38q-10 -24 -19 -59l-6 -24q-6 -16 -6 -24q0 -34 37 -34q11 0 16 1h7l28 -2q6 -1 17 -1q31 0 71 24q32 19 34 41q4 6 20 22q8 4 19 4t20 -4t9 -11q0 -9 -16 -37z" />
    <glyph glyph-name="iacute" unicode="&#xed;" horiz-adv-x="527" 
d="M329 675q0 -26 -35 -62.5t-66 -50.5h-3q-12 0 -12 12t18.5 46.5t25.5 46.5q5 12 47 41q25 -10 25 -33zM351 443h-10q-13 0 -21 -3q-26 -26 -44 -73l-27 -79q-8 -11 -27 -43q-12 -27 -32 -90t-24 -87q5 -4 21 -6q14 -1 22 -12.5t8 -24.5q0 -26 -57 -26q-16 0 -45 3l-39 2
q-12 0 -15 -1q-40 -14 -45 -14q-15 0 -26 10q-2 26 26 42q28 13 49 25q11 8 100 271l14 38q10 26 10 41q0 5 -2 11l-22 27q-20 26 -20 39q0 16 28 16h132q25 15 46 15q20 0 31.5 -13.5t11.5 -32.5q0 -25 -18 -34q-7 -2 -25 -1z" />
    <glyph glyph-name="igrave" unicode="&#xec;" horiz-adv-x="527" 
d="M297.5 609.5q-35.5 36.5 -35.5 62.5q0 22 26 34q27 -19 35 -26t12 -15q7 -12 25.5 -47t18.5 -47q0 -13 -15 -12q-31 14 -66.5 50.5zM351 443h-10q-13 0 -21 -3q-26 -26 -44 -73l-27 -79q-8 -11 -27 -43q-12 -27 -32 -90t-24 -87q5 -4 21 -6q14 -1 22 -12.5t8 -24.5
q0 -26 -57 -26q-16 0 -45 3l-39 2q-12 0 -15 -1q-40 -14 -45 -14q-15 0 -26 10q-2 26 26 42q28 13 49 25q11 8 100 271l14 38q10 26 10 41q0 5 -2 11l-22 27q-20 26 -20 39q0 16 28 16h132q25 15 46 15q20 0 31.5 -13.5t11.5 -32.5q0 -25 -18 -34q-7 -2 -25 -1z" />
    <glyph glyph-name="icircumflex" unicode="&#xee;" horiz-adv-x="527" 
d="M373 549q-14 8 -19 28.5t-6 42.5t-2 29q-5 17 -12 17q-10 0 -57 -56t-75 -56q-16 0 -16 11q0 10 14 28.5t30 36.5t21 24q41 55 59.5 77t39.5 40l20 -5q2 -12 22 -79q18 -63 18 -96q0 -27 -10 -38zM351 443h-10q-13 0 -21 -3q-26 -26 -44 -73l-27 -79q-8 -11 -27 -43
q-12 -27 -32 -90t-24 -87q5 -4 21 -6q14 -1 22 -12.5t8 -24.5q0 -26 -57 -26q-16 0 -45 3l-39 2q-12 0 -15 -1q-40 -14 -45 -14q-15 0 -26 10q-2 26 26 42q28 13 49 25q11 8 100 271l14 38q10 26 10 41q0 5 -2 11l-22 27q-20 26 -20 39q0 16 28 16h132q25 15 46 15
q20 0 31.5 -13.5t11.5 -32.5q0 -25 -18 -34q-7 -2 -25 -1z" />
    <glyph glyph-name="idieresis" unicode="&#xef;" horiz-adv-x="527" 
d="M480 745q26 -14 26 -47q0 -27 -17.5 -53t-45.5 -39h-54q-25 19 -25 52q0 62 69 87h47zM302 744q27 -13 27 -47q0 -27 -17.5 -53.5t-46.5 -38.5h-53q-25 19 -25 53q0 62 69 86h46zM351 443h-10q-13 0 -21 -3q-26 -26 -44 -73l-27 -79q-8 -11 -27 -43q-12 -27 -32 -90
t-24 -87q5 -4 21 -6q14 -1 22 -12.5t8 -24.5q0 -26 -57 -26q-16 0 -45 3l-39 2q-12 0 -15 -1q-40 -14 -45 -14q-15 0 -26 10q-2 26 26 42q28 13 49 25q11 8 100 271l14 38q10 26 10 41q0 5 -2 11l-22 27q-20 26 -20 39q0 16 28 16h132q25 15 46 15q20 0 31.5 -13.5
t11.5 -32.5q0 -25 -18 -34q-7 -2 -25 -1z" />
    <glyph glyph-name="ntilde" unicode="&#xf1;" horiz-adv-x="701" 
d="M646 643q-15 0 -44 23q-32 25 -56 25q-14 0 -25 -9q-5 -16 -13 -29q-30 -30 -99 -30q-62 0 -106 24t-45 62q6 7 17 7q13 0 46 -15q27 -13 46 -13q24 0 37 21q3 2 6 15t7 14q23 27 76 27q40 0 79 -14t64 -38t25 -51q0 -6 -2 -16q-6 -3 -13 -3zM671 498q0 -28 -40 -52
q-48 -28 -57 -47l-9 -29l-11 -38q-37 -103 -91 -228q-11 -39 -37 -111q-8 -11 -20 -11q-3 0 -5 2q-14 13 -82 189q-67 174 -74 179q-5 3 -9 3q-5 0 -10 -5q-8 -9 -31 -90.5t-27 -111.5l-12 -40q-9 -31 -9 -47q0 -17 5 -20t16.5 -3h16.5q13 0 20 -10q4 -4 4 -11
q0 -15 -14 -24q-3 -1 -11 -1q-12 0 -30 3.5t-24 4.5q-7 1 -44 -4q-36 -6 -49 -6q-22 0 -27 11q-2 10 -2 13q0 17 25 27l29 13l20 9q25 15 22 41q6 9 14 37q1 24 25 105l7 22q12 36 28 88l9 23q7 15 7 26q0 8 -4 13q-6 10 -29 18q-26 9 -35 18q-5 5 -5 10q0 11 13.5 26
t23.5 17l9 1q5 0 23 -2q20 -4 32 -2q10 9 35 19q30 2 42.5 -23t21.5 -73q2 -14 4 -22q26 -58 39.5 -91t19.5 -61q14 -54 21 -70.5t29 -35.5q43 86 81 236q3 9 3 18q0 22 -16 44t-16 29q0 12 20 22.5t46 10.5q11 0 20 -1l19 -2q20 0 31 11q10 8 22 8q18 0 25 -13q2 -8 2 -12z
" />
    <glyph glyph-name="oacute" unicode="&#xf3;" horiz-adv-x="586" 
d="M358 681q0 -26 -35.5 -62.5t-66.5 -50.5h-3q-11 0 -11 12t18 47t25 47q5 12 47 41q26 -12 26 -34zM369.5 178q-51.5 -90 -123 -154.5t-134.5 -64.5q-47 0 -77 29.5t-30 102.5q0 97 82 239q21 30 37 57q32 58 88.5 101.5t110.5 43.5h76q34 0 34 -105q0 -35 -5 -93
q-7 -66 -58.5 -156zM294 454q-15 0 -31 -6q-31 -12 -69.5 -60.5t-65.5 -107t-27 -95.5v-89q0 -21 19.5 -38t42.5 -17q56 0 126 94q15 15 24 34.5t38 98.5q24 65 24 100q0 58 -52 77q-12 9 -29 9z" />
    <glyph glyph-name="ograve" unicode="&#xf2;" horiz-adv-x="586" 
d="M411.5 611.5q-35.5 36.5 -35.5 62.5q0 22 26 33q8 -6 21.5 -15.5t18.5 -14.5t7 -11q7 -12 25 -46.5t18 -46.5q0 -14 -14 -12q-31 14 -66.5 50.5zM369.5 178q-51.5 -90 -123 -154.5t-134.5 -64.5q-47 0 -77 29.5t-30 102.5q0 97 82 239q21 30 37 57q32 58 88.5 101.5
t110.5 43.5h76q34 0 34 -105q0 -35 -5 -93q-7 -66 -58.5 -156zM294 454q-15 0 -31 -6q-31 -12 -69.5 -60.5t-65.5 -107t-27 -95.5v-89q0 -21 19.5 -38t42.5 -17q56 0 126 94q15 15 24 34.5t38 98.5q24 65 24 100q0 58 -52 77q-12 9 -29 9z" />
    <glyph glyph-name="ocircumflex" unicode="&#xf4;" horiz-adv-x="586" 
d="M466 557q-18 10 -23 43q-1 19 -5 57q-3 17 -12 17q-11 0 -57 -55q-47 -56 -74 -56q-17 0 -17 10t14 28.5t29.5 36.5t21.5 24l21 27q31 41 45.5 58t33.5 33l20 -6l21 -79q19 -61 19 -95q0 -26 -10 -39zM369.5 178q-51.5 -90 -123 -154.5t-134.5 -64.5q-47 0 -77 29.5
t-30 102.5q0 97 82 239q21 30 37 57q32 58 88.5 101.5t110.5 43.5h76q34 0 34 -105q0 -35 -5 -93q-7 -66 -58.5 -156zM294 454q-15 0 -31 -6q-31 -12 -69.5 -60.5t-65.5 -107t-27 -95.5v-89q0 -21 19.5 -38t42.5 -17q56 0 126 94q15 15 24 34.5t38 98.5q24 65 24 100
q0 58 -52 77q-12 9 -29 9z" />
    <glyph glyph-name="odieresis" unicode="&#xf6;" horiz-adv-x="586" 
d="M381 740q27 -13 27 -47q0 -27 -17.5 -53.5t-46.5 -38.5h-53q-26 20 -26 52q0 62 69 87h47zM558 740q27 -13 27 -47q0 -27 -17.5 -53.5t-46.5 -38.5h-53q-25 19 -25 52q0 63 68 87h47zM369.5 178q-51.5 -90 -123 -154.5t-134.5 -64.5q-47 0 -77 29.5t-30 102.5
q0 97 82 239q21 30 37 57q32 58 88.5 101.5t110.5 43.5h76q34 0 34 -105q0 -35 -5 -93q-7 -66 -58.5 -156zM294 454q-15 0 -31 -6q-31 -12 -69.5 -60.5t-65.5 -107t-27 -95.5v-89q0 -21 19.5 -38t42.5 -17q56 0 126 94q15 15 24 34.5t38 98.5q24 65 24 100q0 58 -52 77
q-12 9 -29 9z" />
    <glyph glyph-name="otilde" unicode="&#xf5;" horiz-adv-x="586" 
d="M555 655q-13 0 -44 23q-32 25 -56 25q-15 0 -24 -9q-4 -13 -14 -29q-30 -30 -99 -30q-60 0 -105 24t-46 62q7 7 17 7q12 0 47 -15q27 -13 46 -13q22 0 36 20q3 3 6 16t7 14q23 27 76 27q40 0 79 -14t64 -38t25 -51q0 -6 -2 -16q-6 -3 -13 -3zM369.5 178
q-51.5 -90 -123 -154.5t-134.5 -64.5q-47 0 -77 29.5t-30 102.5q0 97 82 239q21 30 37 57q32 58 88.5 101.5t110.5 43.5h76q34 0 34 -105q0 -35 -5 -93q-7 -66 -58.5 -156zM294 454q-15 0 -31 -6q-31 -12 -69.5 -60.5t-65.5 -107t-27 -95.5v-89q0 -21 19.5 -38t42.5 -17
q56 0 126 94q15 15 24 34.5t38 98.5q24 65 24 100q0 58 -52 77q-12 9 -29 9z" />
    <glyph glyph-name="uacute" unicode="&#xfa;" horiz-adv-x="571" 
d="M406 679q0 -26 -35.5 -62.5t-66.5 -50.5h-3q-11 0 -11 12t18 46.5t25 46.5q5 12 47 41q26 -11 26 -33zM546 471q0 -16 -15.5 -25t-48.5 -22q-18 -64 -52 -163q-7 -9 -19 -40q-7 -57 -44.5 -113t-92.5 -91t-111 -35q-19 0 -34 4q-75 16 -107 46.5t-32 86.5t39 158
q44 114 50 141q3 14 -11 45q-9 19 -9 29q0 17 27 17q13 0 36 -9q22 -9 33 -9q12 0 45 11q29 10 44 10q20 0 29 -17q0 -24 -37 -43q-35 -18 -47 -27.5t-19.5 -27t-20.5 -64.5q-21 -76 -29 -94q-29 -67 -29 -97q0 -22 7.5 -40t28.5 -34q24 -20 49 -20q29 0 65.5 20.5
t66.5 51.5t41 60q49 142 75 248l-18 27q-12 17 -12 28q0 25 22 25q12 0 40 -12q12 -5 21 -5q5 0 13 2l28 6q12 0 22 -7q6 -12 6 -21z" />
    <glyph glyph-name="ugrave" unicode="&#xf9;" horiz-adv-x="571" 
d="M297.5 609.5q-35.5 36.5 -35.5 62.5q0 22 26 34q27 -19 35 -26t12 -15q7 -12 25.5 -47t18.5 -47q0 -13 -15 -12q-31 14 -66.5 50.5zM546 471q0 -16 -15.5 -25t-48.5 -22q-18 -64 -52 -163q-7 -9 -19 -40q-7 -57 -44.5 -113t-92.5 -91t-111 -35q-19 0 -34 4
q-75 16 -107 46.5t-32 86.5t39 158q44 114 50 141q3 14 -11 45q-9 19 -9 29q0 17 27 17q13 0 36 -9q22 -9 33 -9q12 0 45 11q29 10 44 10q20 0 29 -17q0 -24 -37 -43q-35 -18 -47 -27.5t-19.5 -27t-20.5 -64.5q-21 -76 -29 -94q-29 -67 -29 -97q0 -22 7.5 -40t28.5 -34
q24 -20 49 -20q29 0 65.5 20.5t66.5 51.5t41 60q49 142 75 248l-18 27q-12 17 -12 28q0 25 22 25q12 0 40 -12q12 -5 21 -5q5 0 13 2l28 6q12 0 22 -7q6 -12 6 -21z" />
    <glyph glyph-name="ucircumflex" unicode="&#xfb;" horiz-adv-x="571" 
d="M413 555q-18 10 -23 42q-1 21 -5 58q-3 17 -11 17q-10 0 -57 -56t-75 -56q-16 0 -16 11q0 10 14 28.5t30 36.5t21 24q45 61 61.5 80.5t37.5 36.5l20 -5q2 -12 22 -79q18 -63 18 -96q0 -27 -10 -38zM546 471q0 -16 -15.5 -25t-48.5 -22q-18 -64 -52 -163q-7 -9 -19 -40
q-7 -57 -44.5 -113t-92.5 -91t-111 -35q-19 0 -34 4q-75 16 -107 46.5t-32 86.5t39 158q44 114 50 141q3 14 -11 45q-9 19 -9 29q0 17 27 17q13 0 36 -9q22 -9 33 -9q12 0 45 11q29 10 44 10q20 0 29 -17q0 -24 -37 -43q-35 -18 -47 -27.5t-19.5 -27t-20.5 -64.5
q-21 -76 -29 -94q-29 -67 -29 -97q0 -22 7.5 -40t28.5 -34q24 -20 49 -20q29 0 65.5 20.5t66.5 51.5t41 60q49 142 75 248l-18 27q-12 17 -12 28q0 25 22 25q12 0 40 -12q12 -5 21 -5q5 0 13 2l28 6q12 0 22 -7q6 -12 6 -21z" />
    <glyph glyph-name="udieresis" unicode="&#xfc;" horiz-adv-x="571" 
d="M304 734q26 -14 26 -47q0 -27 -18 -53t-45 -39h-54q-25 19 -25 52q0 62 69 87h47zM481 734q26 -14 26 -47q0 -27 -18 -53t-45 -39h-54q-25 19 -25 53q0 62 69 86h47zM546 471q0 -16 -15.5 -25t-48.5 -22q-18 -64 -52 -163q-7 -9 -19 -40q-7 -57 -44.5 -113t-92.5 -91
t-111 -35q-19 0 -34 4q-75 16 -107 46.5t-32 86.5t39 158q44 114 50 141q3 14 -11 45q-9 19 -9 29q0 17 27 17q13 0 36 -9q22 -9 33 -9q12 0 45 11q29 10 44 10q20 0 29 -17q0 -24 -37 -43q-35 -18 -47 -27.5t-19.5 -27t-20.5 -64.5q-21 -76 -29 -94q-29 -67 -29 -97
q0 -22 7.5 -40t28.5 -34q24 -20 49 -20q29 0 65.5 20.5t66.5 51.5t41 60q49 142 75 248l-18 27q-12 17 -12 28q0 25 22 25q12 0 40 -12q12 -5 21 -5q5 0 13 2l28 6q12 0 22 -7q6 -12 6 -21z" />
    <glyph glyph-name="copyright" unicode="&#xa9;" horiz-adv-x="1414" 
d="M590 653q-36 25 -56.5 66.5t-20.5 87.5q0 60 36 101.5t104 50.5q16 2 24 2q45 0 79 -23t52.5 -61t18.5 -83q0 -46 -20 -84t-56 -60t-81 -22q-44 0 -80 25zM574.5 901q-34.5 -40 -34.5 -117q0 -15 1 -23q1 -28 20.5 -54t48 -42.5t56.5 -16.5q39 0 72 23t52.5 60t19.5 77
q0 15 -3 30q-7 44 -49 73.5t-93 29.5q-56 0 -90.5 -40zM581 786q0 38 24 66.5t64 30.5q17 1 47 -12.5t28 -25.5q-1 -13 -8 -13t-24 14q-22 22 -39 22q-22 0 -38 -26t-16 -58q0 -28 17.5 -47.5t46.5 -19.5q25 0 50 16q1 -2 1 -6q0 -14 -23.5 -22.5t-50.5 -8.5q-9 0 -17 2
q-62 21 -62 88zM546.5 304q-3.5 -13 -15.5 -19t-40 -6l-60 -1q-27 0 -40.5 7.5t-31.5 34.5q-27 38 -27 87q0 62 38.5 96t102.5 34q65 0 87 -24q-2 -22 -8 -46q-22 57 -76 57q-43 0 -73.5 -35t-30.5 -81q0 -78 57 -107q12 -6 25 -6q24 0 44.5 15t20.5 32q0 23 -41 34
q8 11 46 11q37 0 49 -9q-19 -4 -21 -31q-2 -30 -5.5 -43zM613 485q-21 0 -21 27q0 9 5.5 14.5t14.5 5.5t16 -6q9 -7 9 -19q0 -22 -24 -22zM715 501v-184q0 -18 15 -23q-1 -5 -10.5 -7.5t-21.5 -2.5q-23 0 -29 5q19 15 19 30v65q0 34 -17 32v1q0 3 8 13q8 11 8 16q3 17 3 30
q0 34 -19 40q6 9 33 9l23 -1l3 -6q-15 -10 -15 -17zM793 494q0 -2 0.5 -12.5t0.5 -30.5v-137q0 -10 15 -22q-2 -8 -28 -8q-24 0 -34 5q12 9 17 14q1 12 1 61q0 46 -3 49q-2 2 -13 3v1q0 4 7 15q9 12 9 16q2 18 2 25q0 36 -18 43q5 8 35 8l22 -1l3 -5q-13 -6 -16 -24z
M968 310q0 14 10 14q6 0 16 -12q14 -16 21 -16q5 0 12 7q9 8 9 19t-32 34t-32 41q0 15 12.5 28t27.5 16q15 2 30.5 -7t12.5 -21q-7 -6 -14 -6t-15 11q-7 12 -15 12q-6 0 -12 -8q-7 -8 -7 -20q0 -14 14 -19q24 -6 41.5 -24t17.5 -36t-13 -26t-33 -8q-19 0 -31 4q-20 6 -20 17
zM842 302.5q-19 16.5 -19 47.5q0 34 21.5 63t49.5 29q13 0 27 -8q32 -20 32 -48q0 -17 -26 -17h-71q-5 -10 -5 -20q0 -18 14 -31t35 -13q23 0 48 20q-16 -39 -61 -39q-26 0 -45 16.5zM627 410v-93q0 -18 21 -20q-5 -6 -15 -7.5t-30 -0.5l-22 1l-2 7q22 4 22 11v91
q0 16 -2 22l-15 16h63l2 -3q-1 -3 -12 -8q-10 -4 -10 -16zM869.5 413.5q-9.5 -9.5 -6.5 -24.5l41 -1q17 2 21 10q-7 25 -31 25q-15 0 -24.5 -9.5zM794.5 4q-3.5 -10 -14.5 -15t-58 -21q-9 -4 -24 -4q-30 0 -59.5 19.5t-49 51t-19.5 64.5q0 66 73 109q26 16 62 16
q40 0 88 -23q3 -19 2 -45q-1 -1 -3 -1q-5 0 -9 10q-2 4 -3.5 8t-4.5 9q-18 23 -59 23q-32 0 -55 -14q-47 -32 -47 -91q0 -27 9.5 -50.5t24.5 -37.5q29 -26 63 -26q60 0 82 61l4 -2q1 -31 -2.5 -41zM251 29.5q2 -9.5 2 -21.5q0 -11 -2 -19.5t-6 -9.5q-10 -5 -81 -5
q-42 0 -78.5 2t-41.5 6v1q0 7 17 12t18 23q3 33 3 84q0 93 -11 97q-10 0 -27 9l1 5q6 2 23 2q21 0 34 -2q8 -1 23 -1q21 0 33 4v-13q-26 -4 -32 -8.5t-6 -23.5l-1 -51l-2 -76q1 -26 5 -37.5t13 -14.5t29 -3q29 0 53.5 15t27.5 38q4 -3 6 -12.5zM855 112q22 19 53 19
q17 0 31.5 -5t23.5 -14q24 -24 24 -59q0 -67 -66 -79q-10 -2 -16 -2q-32 0 -52 24t-20 57q0 40 22 59zM341 -26q-28 0 -44 20.5t-16 51.5q0 35 18 60.5t46 25.5q13 0 31 -8q33 -16 33 -46q0 -19 -27 -19h-71q-6 -10 -6 -20q0 -18 16.5 -31t38.5 -13q27 0 43 21
q0 -13 -15.5 -25.5t-31.5 -14.5q-10 -2 -15 -2zM1351 16q1 -12 -16 -25.5t-31 -14.5q-4 -1 -13 -1q-30 0 -46.5 20t-16.5 52q0 34 18.5 59.5t46.5 25.5q20 0 41 -13t21 -39q0 -21 -25 -21h-71q-5 -10 -5 -19q0 -18 14 -31.5t35 -13.5q24 0 48 21zM1104 113q0 -16 -10 -23
q-10 9 -20 9q-20 0 -20 -33q0 -22 -0.5 -35t-0.5 -16q3 -20 16 -33q-7 -9 -31 -9q-21 0 -29 8q19 19 19 80q0 36 -9 49q-4 7 -19 5q1 12 21 14q9 -1 28 -1q2 -10 6 -22l18 16q10 8 18 8q13 0 13 -17zM1218 112q0 -14 -11 -22q-19 10 -23 8q-16 -13 -16 -59q0 -42 15 -54
q-7 -12 -26 -12q-13 0 -33 6q19 19 19 75q0 35 -7 53q-4 11 -21 9q1 11 21 13q9 -1 28 -1q2 -10 6 -22l18 16q10 8 16 8q14 0 14 -18zM943.5 105.5q-15.5 18.5 -41.5 14.5q-44 -8 -44 -61q0 -28 14.5 -50t34.5 -22q5 0 8 1q44 9 44 69q0 30 -15.5 48.5zM322.5 99
q-9.5 -13 -6.5 -19q26 -2 33 -2q30 0 30 10t-14 20.5t-24 6.5q-9 -3 -18.5 -16zM1273.5 103.5q-9.5 -9.5 -7.5 -23.5q41 0 53 -0.5t14 -0.5h2q0 1 -5 2.5t-2 6.5q-6 25 -30 25q-15 0 -24.5 -9.5zM535 -80.5q23 19.5 55 19.5q17 0 32 -5.5t25 -15.5q25 -26 25 -63
q0 -66 -67 -79q-10 -2 -16 -2q-33 0 -55 26t-22 61q0 39 23 58.5zM846.5 -86q22.5 -25 22.5 -59q0 -65 -68 -79q-10 -2 -16 -2q-33 0 -55 26t-22 61t22.5 56.5t58.5 21.5q35 0 57.5 -25zM483 -171q5 -54 -42 -54l-28 2l-29 2q-5 0 -28 -4q-5 -1 -14 -1q-10 0 -13 2
q3 10 51 44q43 31 43 55q0 13 -9 22.5t-22 9.5q-33 0 -47 -33h-5q-2 27 15 43.5t42 16.5q22 0 37 -13t15 -33q0 -10 -3 -20q-5 -18 -30 -34q-29 -22 -36 -31q42 -5 47 -5q35 0 56 31zM1052 -148q0 -41 -25 -83t-63 -67.5t-73 -21.5q0 5 53 40q52 33 54 59q-96 16 -96 75
q0 30 25 55t54 25q11 0 23 -5q48 -23 48 -77zM1027 -136q0 63 -46 63q-24 0 -39 -18t-15 -45q0 -30 18 -51.5t48 -22.5q34 22 34 74zM649 -140q0 24 -15 40.5t-38 16.5q-26 0 -42 -16.5t-16 -42.5q0 -25 13.5 -42t36.5 -17q5 0 15 2q46 10 46 59zM845 -141q0 25 -14.5 41.5
t-38.5 16.5q-26 0 -41.5 -16.5t-15.5 -42.5q0 -25 13.5 -42t36.5 -17q5 0 15 2q45 11 45 58z" />
    <glyph glyph-name="Oslash" unicode="&#xd8;" horiz-adv-x="770" 
d="M759 547q-5 -33 -5 -40q0 -9 1 -14l2 -18q0 -9 -5 -29l-15 -54q-12 -22 -26 -60q-8 -42 -24 -67q-15 -18 -43 -54q-7 -16 -16 -32q-35 -37 -128 -106q-13 5 -32.5 -10t-54.5 -48q-5 8 -11 8q-10 0 -29 -16q-23 -19 -30 -20q-58 -18 -105 -18q-35 0 -85 11q-9 2 -18 11
l-27 -37l-14 -7l-15 10l-8 28l10 17q20 18 23 22q-37 43 -51 43l-20 35q-21 32 -21 173q0 76 8 119q9 14 17 43q6 27 25 57l14 24q30 52 54 86t61 67q9 14 27 35l87 66q15 2 37 9q3 2 11.5 9t22 14t32.5 12q28 7 41 14q19 17 41 17q9 0 54 -13q4 1 13 1q12 0 19 -1
q28 -10 37 -15q1 2 4 12t9.5 19t15.5 15q16 8 23 13l9 -3q-1 -4 -2 -18t-7 -28.5t-17 -32.5l-1 -1l9 -10q10 -1 28 -12q16 -15 46 -50q7 -9 14 -27q0 -13 7 -31q-1 -1 -1 -7q0 -10 6 -42q6 -33 6 -38q0 -10 -3 -31zM474 784q-30 0 -47 -5q-33 -9 -72 -42q-98 -83 -124 -128
q-16 -34 -64 -121l-21 -74q-10 -21 -24 -62q-14 -98 -14 -105q0 -25 8 -39q-6 -13 -6 -28q0 -36 37 -91q182 270 430 666q-38 29 -103 29zM654 563q0 131 -47 170l-438 -678q6 -9 10 -18q30 -18 72 -20q9 0 13 -12q40 3 98 34t107 77q59 53 84 108l15 41q21 37 42 80
q35 120 41 171q3 23 3 47zM213 681q-2 -3 -2 -9q0 -12 7 -11l16 12q10 7 10 15q0 10 -5 10q-6 0 -26 -17zM57 209q-10 -7 -10 -20q0 -8 5 -8q15 0 15 19q0 10 -10 9z" />
    <glyph glyph-name="oslash" unicode="&#xf8;" horiz-adv-x="576" 
d="M434.5 281q-11.5 -56 -17.5 -68q-50 -100 -119 -156l-33 -19q-47 -33 -63 -42.5t-32 -12t-55 -3.5q-18 0 -40 16q-7 -17 -38 -62l-12 -7l-13 9l-7 26l9 16q18 14 30 35l5 7l-12 12t-18 29t-18 52q-5 22 -5 41q0 74 34 149t118 154q11 10 29 19q20 11 32 24q1 -1 4 -1
q6 0 25 11q17 10 25 10q62 1 95 -8q8 34 26 46l20 12l8 -3q-4 -21 -5 -35q-3 -12 -19 -36q13 -16 35.5 -70.5t22.5 -72.5q0 -16 -11.5 -72zM270 463q-35 0 -69 -30q-32 -28 -49 -57q-52 -88 -66 -156q-3 -36 -3 -67q0 -44 8 -69q135 208 228 361q-21 18 -49 18zM108 53
q14 -14 36 -14q35 0 79.5 35t79 87t42.5 99q8 58 8 95q0 42 -13 65z" />
    <glyph glyph-name="uni00A0" unicode="&#xa0;" horiz-adv-x="330" 
 />
    <glyph glyph-name="Agrave" unicode="&#xc0;" horiz-adv-x="808" 
d="M638.5 861q-28.5 26 -28.5 28l-32 38q-25 28 -25 45q0 12 12 19q12 -4 31 -4q18 0 50 4q4 -8 4 -22l-1 -26q0 -9 4 -18.5t19 -34.5q15 -28 15 -44q0 -10 -5 -18q-15 7 -43.5 33zM716.5 46q6.5 -7 6.5 -15q0 -15 -23 -21q-54 -16 -98 -16q-22 0 -58 6t-58 6q-8 0 -28 -2
h-7q-18 0 -18 15q0 17 11 21.5t40 4.5q13 0 21 2.5t13 10.5q6 8 6 20q0 15 -7 33q2 10 2 22l-1 21q-5 18 -4 42q1 12 2 21t1 15q0 10 -5 14t-20 6q-26 5 -35 8q-7 0 -22 -4q-18 -5 -24 -5l-134 -4q-6 2 -9 2q-15 0 -27.5 -18t-15.5 -38q-60 -63 -90 -117q-29 -26 -29 -36
t34 -13q33 -3 33 -15q0 -9 -10.5 -18.5t-20.5 -9.5q-3 0 -7 2q-9 6 -43 6q-23 0 -42 -1t-42 -1q-47 0 -47 12q0 5 3 9q7 9 32 13q36 7 57.5 20.5t38.5 48.5q17 15 29 28q9 19 31 56l83 107q17 28 23 36l23 24q39 51 86 118q3 6 14.5 28.5t23 39t22.5 25.5q18 14 29 33l21 37
q29 35 59 76l27 55q23 41 37 41q18 0 18 -37q0 -13 -1 -21q-1 -14 4 -58q7 -41 7 -61q0 -25 -7 -40q3 -13 4.5 -43t1.5 -42q-4 -11 -5 -26q2 -7 6 -13q4 -7 4 -14q-1 -18 3 -43l5 -41q-2 -7 -8 -41l5 -95q0 -3 7 -10q6 -6 6 -12q0 -4 -5 -17q-4 -12 -3 -18l14 -70
q13 -39 48 -41q6 -1 12.5 -8zM509 573q-8 11 -18 9q-19 -3 -33 -24t-35 -61q-70 -92 -83 -125q-38 -42 -42 -52l-1 -4q0 -8 18 -8l45 3l67 3q12 5 33 9l20 -1l21 1q14 14 14 25q0 4 -9 29q-2 4 -4 42t-2 70q0 20 1 21l13 43q3 9 -5 20zM558 556q0 -7 7 -7q5 0 9 4t4 10
q0 9 -9 7q-11 -5 -11 -14zM535 42q0 -8 9 -7q10 7 10 17q0 8 -8 10q-11 -8 -11 -20z" />
    <glyph glyph-name="Atilde" unicode="&#xc3;" horiz-adv-x="808" 
d="M816 899q-15 0 -43 16q-32 16 -54 16q-12 0 -24 -6q-4 -10 -13 -20q-29 -20 -97 -20q-59 0 -102 16t-44 43q7 4 17 4t46 -11q27 -8 43 -8q22 0 36 14q1 8 13 20q21 18 74 18q38 0 75.5 -9.5t62 -25.5t24.5 -34q0 -5 -2 -11q-8 -2 -12 -2zM716.5 46q6.5 -7 6.5 -15
q0 -15 -23 -21q-54 -16 -98 -16q-22 0 -58 6t-58 6q-8 0 -28 -2h-7q-18 0 -18 15q0 17 11 21.5t40 4.5q13 0 21 2.5t13 10.5q6 8 6 20q0 15 -7 33q2 10 2 22l-1 21q-5 18 -4 42q1 12 2 21t1 15q0 10 -5 14t-20 6q-26 5 -35 8q-7 0 -22 -4q-18 -5 -24 -5l-134 -4q-6 2 -9 2
q-15 0 -27.5 -18t-15.5 -38q-60 -63 -90 -117q-29 -26 -29 -36t34 -13q33 -3 33 -15q0 -9 -10.5 -18.5t-20.5 -9.5q-3 0 -7 2q-9 6 -43 6q-23 0 -42 -1t-42 -1q-47 0 -47 12q0 5 3 9q7 9 32 13q36 7 57.5 20.5t38.5 48.5q17 15 29 28q9 19 31 56l83 107q17 28 23 36l23 24
q39 51 86 118q3 6 14.5 28.5t23 39t22.5 25.5q18 14 29 33l21 37q29 35 59 76l27 55q23 41 37 41q18 0 18 -37q0 -13 -1 -21q-1 -14 4 -58q7 -41 7 -61q0 -25 -7 -40q3 -13 4.5 -43t1.5 -42q-4 -11 -5 -26q2 -7 6 -13q4 -7 4 -14q-1 -18 3 -43l5 -41q-2 -7 -8 -41l5 -95
q0 -3 7 -10q6 -6 6 -12q0 -4 -5 -17q-4 -12 -3 -18l14 -70q13 -39 48 -41q6 -1 12.5 -8zM509 573q-8 11 -18 9q-19 -3 -33 -24t-35 -61q-70 -92 -83 -125q-38 -42 -42 -52l-1 -4q0 -8 18 -8l45 3l67 3q12 5 33 9l20 -1l21 1q14 14 14 25q0 4 -9 29q-2 4 -4 42t-2 70
q0 20 1 21l13 43q3 9 -5 20zM558 556q0 -7 7 -7q5 0 9 4t4 10q0 9 -9 7q-11 -5 -11 -14zM535 42q0 -8 9 -7q10 7 10 17q0 8 -8 10q-11 -8 -11 -20z" />
    <glyph glyph-name="Otilde" unicode="&#xd5;" horiz-adv-x="814" 
d="M816 899q-15 0 -43 16q-32 16 -54 16q-12 0 -24 -6q-4 -10 -13 -20q-29 -20 -97 -20q-59 0 -102 16t-44 43q7 4 17 4t46 -11q27 -8 43 -8q22 0 36 14q1 8 13 20q21 18 74 18q38 0 75.5 -9.5t62 -25.5t24.5 -34q0 -5 -2 -11q-8 -2 -12 -2zM798 549q-4 -21 -4 -35
q0 -11 2 -18l2 -18q0 -13 -4 -28l-16 -53q-12 -22 -26 -59q-7 -40 -24 -66l-45 -54q-7 -16 -16 -31q-37 -37 -134 -105q-13 4 -31.5 -8.5t-36 -28t-23.5 -20.5q-5 8 -13 8q-9 0 -32 -17q-25 -18 -29 -19q-61 -18 -113 -18q-33 0 -53 2.5t-43 15t-49 38.5q-41 41 -55 41
q-7 14 -21 35q-27 36 -27 197q0 55 5 90q10 16 18 43q6 25 26 56q39 67 64.5 103t68.5 72q7 12 28 35q69 49 92 65q14 2 38 9l29 20q8 7 41 14q32 7 44 14q19 17 43 17q10 0 58 -13q17 2 35 1q61 -22 85 -49q11 -1 31 -12q14 -12 50 -49q7 -7 16 -27q0 -12 9 -31
q-4 -5 4 -40q9 -40 9 -46q0 -10 -3 -31zM686 556q0 60 -15 111.5t-41 68.5q-14 8 -54 34q-25 13 -87 13q-36 0 -51 -4q-34 -9 -75 -41q-102 -82 -130 -127q-13 -28 -65 -119l-21 -74q-11 -24 -24 -61q-12 -91 -12 -99q0 -26 8 -42q-5 -15 -5 -27q0 -31 32 -78l45 -65
q32 -17 77 -19q9 0 15 -12q42 2 103.5 33t112.5 76q60 52 87 107l15 41q18 28 43 79q36 120 40 169q2 22 2 36zM212 682q-2 -4 -2 -8q0 -5 2 -8.5t6 -2.5l17 11q11 8 11 15q0 10 -7 10q-5 0 -27 -17zM56 216q-10 -7 -10 -19q0 -8 6 -8q15 0 15 18q0 11 -11 9z" />
    <glyph glyph-name="ydieresis" unicode="&#xff;" horiz-adv-x="576" 
d="M299 744q27 -13 27 -47q0 -27 -17.5 -53.5t-46.5 -38.5h-53q-25 19 -25 52q0 63 68 87h47zM476 744q27 -13 27 -46q0 -27 -17.5 -53t-46.5 -40h-53q-25 19 -25 53q0 62 69 86h46zM493 430h-6q-29 0 -44.5 -7.5t-33.5 -29.5q-19 -25 -28 -32q-14 -14 -64 -43
q-44 -25 -61.5 -49t-16.5 -67q-1 -12 -13 -42q0 -7 -14 -43q-15 -34 -15 -50q0 -14 10 -20q1 0 26 -7q5 -2 7.5 -12t-1.5 -14q-24 -25 -85 -25q-7 0 -39 2l-34 1q-2 -1 -17 -2t-36 -1q-26 0 -33 4q-5 8 -5 15q0 13 10.5 23.5t24.5 10.5q17 0 29 -17q28 37 53 111.5t25 124.5
q0 9 -2 23q-3 15 -27 66t-38 74q-6 10 -23 13q-19 5 -33 18q-5 15 -5 23q0 36 83 36h110q8 6 15 6q14 0 25 -12.5t11 -27.5q0 -18 -16 -25q-17 0 -27 -6.5t-12 -30.5q-2 -32 -1 -36q8 -13 12 -23t9 -34q3 -13 17 -21q64 56 98 88.5t42 53.5q-16 20 -16 35q0 23 25.5 28
t96.5 5q16 10 29 10q27 0 27 -47q0 -33 -7 -40t-32 -7z" />
    <glyph glyph-name="Ydieresis" unicode="&#x178;" horiz-adv-x="700" 
d="M544 984q27 -13 27 -47q0 -28 -17.5 -53.5t-46.5 -38.5h-53q-26 20 -26 52q0 62 69 87h47zM367 983q26 -14 26 -47q0 -27 -17.5 -53.5t-45.5 -38.5h-53q-26 20 -26 52q0 63 69 87h47zM696 785q0 -13 -17 -19q-38 -14 -45 -18q-26 -25 -99 -103t-131.5 -146t-58.5 -80
l-24 -29q-8 -26 -15 -29q-2 -6 0 -8l3 -9q-9 -13 -15 -27q-14 -30 -16 -60q-27 -91 -44 -155q-2 -14 -2 -20q0 -54 34 -54q9 0 18 4q6 2 9 2q8 0 21 -5q3 -3 3 -7q0 -15 -23 -26q-2 -2 -9 -2q-6 0 -10 2l-17 5q-12 2 -22 2q-20 0 -41 -4h-3q-3 0 -15 4q-9 4 -16 4h-65
q-13 0 -35 -5q-19 -6 -27 -6q-13 0 -27 7q-8 5 -9 11q-2 33 31 33q9 0 29 -3l18 -2q6 0 11 3t14 11q15 13 16 18q20 55 54 166l23 85q4 18 3 34q-5 23 -3 34q-7 52 -41 152q-35 103 -47 147q-10 38 -23 51t-47 16l-17 1q6 19 9 23.5t14 6.5q29 5 104 4q18 -4 42 -5
q16 3 26 4l90 -2l29 -2q0 -18 -25 -28q-82 1 -82 -25q0 -4 3 -15q2 -13 1 -17q4 -17 24 -77q-2 -12 -2 -26q6 -5 16 -20q19 -64 26 -98l16 -34q58 65 224 241l39 45q2 21 -32 30t-34 13t9 11q182 0 180 -2v-2zM178 658q0 -3 7 -3q12 0 12 9q0 6 -6 10q-13 -4 -13 -16z
M250.5 524.5q-6.5 -6.5 -6.5 -18.5q0 -9 8 -9t16.5 8t8.5 16q0 10 -9 10q-11 0 -17.5 -6.5zM177 180l-6 -11q0 -7 6 -7q5 0 11.5 5t6.5 9q0 6 -12 6zM178 83q0 11 -16 11q-9 -4 -9 -14q0 -12 13 -8q12 5 12 11z" />
    <glyph glyph-name="Acircumflex" unicode="&#xc2;" horiz-adv-x="808" 
d="M691 779q-14 56 -29 126q-1 16 -11 16q-17 0 -77 -74q-62 -74 -74 -70q-7 1 -7 8q0 13 28 47q19 20 37 43l23 30q31 40 45 56t32 31l20 -5q1 -8 21 -79q19 -61 19 -96q0 -27 -10 -38zM716.5 46q6.5 -7 6.5 -15q0 -15 -23 -21q-54 -16 -98 -16q-22 0 -58 6t-58 6
q-8 0 -28 -2h-7q-18 0 -18 15q0 17 11 21.5t40 4.5q13 0 21 2.5t13 10.5q6 8 6 20q0 15 -7 33q2 10 2 22l-1 21q-5 18 -4 42q1 12 2 21t1 15q0 10 -5 14t-20 6q-26 5 -35 8q-7 0 -22 -4q-18 -5 -24 -5l-134 -4q-6 2 -9 2q-15 0 -27.5 -18t-15.5 -38q-60 -63 -90 -117
q-29 -26 -29 -36t34 -13q33 -3 33 -15q0 -9 -10.5 -18.5t-20.5 -9.5q-3 0 -7 2q-9 6 -43 6q-23 0 -42 -1t-42 -1q-47 0 -47 12q0 5 3 9q7 9 32 13q36 7 57.5 20.5t38.5 48.5q17 15 29 28q9 19 31 56l83 107q17 28 23 36l23 24q39 51 86 118q3 6 14.5 28.5t23 39t22.5 25.5
q18 14 29 33l21 37q29 35 59 76l27 55q23 41 37 41q18 0 18 -37q0 -13 -1 -21q-1 -14 4 -58q7 -41 7 -61q0 -25 -7 -40q3 -13 4.5 -43t1.5 -42q-4 -11 -5 -26q2 -7 6 -13q4 -7 4 -14q-1 -18 3 -43l5 -41q-2 -7 -8 -41l5 -95q0 -3 7 -10q6 -6 6 -12q0 -4 -5 -17
q-4 -12 -3 -18l14 -70q13 -39 48 -41q6 -1 12.5 -8zM509 573q-8 11 -18 9q-19 -3 -33 -24t-35 -61q-70 -92 -83 -125q-38 -42 -42 -52l-1 -4q0 -8 18 -8l45 3l67 3q12 5 33 9l20 -1l21 1q14 14 14 25q0 4 -9 29q-2 4 -4 42t-2 70q0 20 1 21l13 43q3 9 -5 20zM558 556
q0 -7 7 -7q5 0 9 4t4 10q0 9 -9 7q-11 -5 -11 -14zM535 42q0 -8 9 -7q10 7 10 17q0 8 -8 10q-11 -8 -11 -20z" />
    <glyph glyph-name="Ecircumflex" unicode="&#xca;" horiz-adv-x="846" 
d="M702 849q-17 33 -34 80q-2 11 -13 11q-18 0 -89 -47q-70 -48 -85 -46q-8 2 -8 6q0 8 32 29q14 9 24.5 16t18.5 12q53 39 72 52t43 24l23 -4q3 -8 25 -50q21 -40 21 -62q0 -17 -11 -25zM832 741q-6 -13 -11 -43q-6 -36 -11.5 -47t-24.5 -11q-6 0 -10 4q-3 2 -11 29
q-8 29 -11 33q-16 25 -72 25l-148 2l-43 1q-10 0 -13 -2t-3.5 -7t-1.5 -7q-1 -5 -4.5 -25t-8.5 -35t-12 -23q-17 -20 -17 -30l3 -12q1 -3 2.5 -8.5t1.5 -9.5q0 -12 -14 -26q-19 -19 -20 -25q1 -6 1 -28q-11 -53 -11 -49q0 -13 7 -23q8 1 39 -1l41 -1q45 0 81.5 18t36.5 49
q0 25 25 25l24 -5q6 2 14 2q6 0 8 -2l2 -10q-10 -5 -16.5 -12.5t-9.5 -26.5l-14 -43l-18 -71q1 -4 1 -11q0 -29 -30 -29q-15 0 -26.5 9t-11.5 22q0 7 3 14q1 34 -80 34q-28 0 -48 -1l-40 -2q-9 -4 -14 -21q-1 -3 -2 -11.5t-16 -52.5q-13 -38 -13 -42q1 -13 -10 -36
q-11 -21 -13 -37q4 -8 2 -29l-16 -23q-16 -43 -16 -62q0 -16 12 -21q10 2 14 2q10 0 22 -5l10 -5l42 -1q34 20 64 23q6 1 17 -4t13 -6q10 -2 15 -2q16 0 33 7l4 1q5 0 11 -3l15 -4q10 -2 15 -2q38 0 73 17.5t35 42.5q18 17 20 30q2 21 6 28q8 14 50 14q26 0 26 -8
q0 -6 -11 -19t-21 -24q-5 -26 -17 -78q-14 -45 -51 -64q-6 -3 -22 6t-21 13h-2l-13 -2l-16 -3q-14 -2 -49 -2q-45 0 -84 3q-19 -10 -29 -10t-23 10l-66 1q-21 -12 -32 -12q-4 0 -16 5q-19 6 -23 7h-3l-10 -2l-11 -3h-6q-5 0 -15 2q-15 6 -48 4q-10 -1 -26 -1t-21 2h-2
q-3 0 -11 -3l-13 -6q-1 -1 -4 -1q-6 0 -10 4q-10 6 -15 5l-28 -10h-40q-7 4 -7 18t8.5 27t19.5 13q6 0 30 -10q8 -4 27 5t34 26.5t15 39.5l15 20l32 126l8 16q5 11 5 19q0 38 33 144q17 21 23 43l47 183q7 28 7 42q0 30 -43 39q-14 -9 -28 -9q-30 0 -30 28q0 23 27 33h3
q8 0 17 -4q16 -7 25 -7l12 2q11 3 18 1q22 -5 37 -5q20 0 56 10q19 -15 71 -15q55 0 94 13h1q3 0 11 -5q8 -7 12 -7q3 -1 9 -1q14 0 30 6q20 7 27 7h56q7 0 20 4q12 4 20 4q12 -5 33 -8l23 9q17 6 25 6q15 0 15 -10q0 -14 -27 -56zM390 650q0 8 -3.5 12.5t-8.5 4.5
q-6 0 -10.5 -5t-4.5 -13q0 -18 17 -16q10 4 10 17zM368 549q0 6 -3.5 9t-9.5 3t-12 -4.5t-6 -10.5q0 -15 17 -10q14 5 14 13z" />
    <glyph glyph-name="Aacute" unicode="&#xc1;" horiz-adv-x="808" 
d="M648 921l-61 -49q-26 -30 -43 -46.5t-29 -16.5q-11 0 -12 22l14 25q32 58 53 91.5t32 35.5q6 2 9 2q6 0 15 -3q8 -4 15 -4t15 4q6 2 15 2q12 0 21 -3.5t6 -9.5q-4 -12 -50 -50zM716.5 46q6.5 -7 6.5 -15q0 -15 -23 -21q-54 -16 -98 -16q-22 0 -58 6t-58 6q-8 0 -28 -2h-7
q-18 0 -18 15q0 17 11 21.5t40 4.5q13 0 21 2.5t13 10.5q6 8 6 20q0 15 -7 33q2 10 2 22l-1 21q-5 18 -4 42q1 12 2 21t1 15q0 10 -5 14t-20 6q-26 5 -35 8q-7 0 -22 -4q-18 -5 -24 -5l-134 -4q-6 2 -9 2q-15 0 -27.5 -18t-15.5 -38q-60 -63 -90 -117q-29 -26 -29 -36
t34 -13q33 -3 33 -15q0 -9 -10.5 -18.5t-20.5 -9.5q-3 0 -7 2q-9 6 -43 6q-23 0 -42 -1t-42 -1q-47 0 -47 12q0 5 3 9q7 9 32 13q36 7 57.5 20.5t38.5 48.5q17 15 29 28q9 19 31 56l83 107q17 28 23 36l23 24q39 51 86 118q3 6 14.5 28.5t23 39t22.5 25.5q18 14 29 33l21 37
q29 35 59 76l27 55q23 41 37 41q18 0 18 -37q0 -13 -1 -21q-1 -14 4 -58q7 -41 7 -61q0 -25 -7 -40q3 -13 4.5 -43t1.5 -42q-4 -11 -5 -26q2 -7 6 -13q4 -7 4 -14q-1 -18 3 -43l5 -41q-2 -7 -8 -41l5 -95q0 -3 7 -10q6 -6 6 -12q0 -4 -5 -17q-4 -12 -3 -18l14 -70
q13 -39 48 -41q6 -1 12.5 -8zM509 573q-8 11 -18 9q-19 -3 -33 -24t-35 -61q-70 -92 -83 -125q-38 -42 -42 -52l-1 -4q0 -8 18 -8l45 3l67 3q12 5 33 9l20 -1l21 1q14 14 14 25q0 4 -9 29q-2 4 -4 42t-2 70q0 20 1 21l13 43q3 9 -5 20zM558 556q0 -7 7 -7q5 0 9 4t4 10
q0 9 -9 7q-11 -5 -11 -14zM535 42q0 -8 9 -7q10 7 10 17q0 8 -8 10q-11 -8 -11 -20z" />
    <glyph glyph-name="Edieresis" unicode="&#xcb;" horiz-adv-x="846" 
d="M710 988q26 -14 26 -47q0 -27 -18 -53t-45 -39h-54q-25 19 -25 52q0 62 69 87h47zM532 987q27 -13 27 -46q0 -28 -17.5 -54.5t-46.5 -38.5h-53q-25 19 -25 53q0 62 69 86h46zM832 741q-6 -13 -11 -43q-6 -36 -11.5 -47t-24.5 -11q-6 0 -10 4q-3 2 -11 29q-8 29 -11 33
q-16 25 -72 25l-148 2l-43 1q-10 0 -13 -2t-3.5 -7t-1.5 -7q-1 -5 -4.5 -25t-8.5 -35t-12 -23q-17 -20 -17 -30l3 -12q1 -3 2.5 -8.5t1.5 -9.5q0 -12 -14 -26q-19 -19 -20 -25q1 -6 1 -28q-11 -53 -11 -49q0 -13 7 -23q8 1 39 -1l41 -1q45 0 81.5 18t36.5 49q0 25 25 25
l24 -5q6 2 14 2q6 0 8 -2l2 -10q-10 -5 -16.5 -12.5t-9.5 -26.5l-14 -43l-18 -71q1 -4 1 -11q0 -29 -30 -29q-15 0 -26.5 9t-11.5 22q0 7 3 14q1 34 -80 34q-28 0 -48 -1l-40 -2q-9 -4 -14 -21q-1 -3 -2 -11.5t-16 -52.5q-13 -38 -13 -42q1 -13 -10 -36q-11 -21 -13 -37
q4 -8 2 -29l-16 -23q-16 -43 -16 -62q0 -16 12 -21q10 2 14 2q10 0 22 -5l10 -5l42 -1q34 20 64 23q6 1 17 -4t13 -6q10 -2 15 -2q16 0 33 7l4 1q5 0 11 -3l15 -4q10 -2 15 -2q38 0 73 17.5t35 42.5q18 17 20 30q2 21 6 28q8 14 50 14q26 0 26 -8q0 -6 -11 -19t-21 -24
q-5 -26 -17 -78q-14 -45 -51 -64q-6 -3 -22 6t-21 13h-2l-13 -2l-16 -3q-14 -2 -49 -2q-45 0 -84 3q-19 -10 -29 -10t-23 10l-66 1q-21 -12 -32 -12q-4 0 -16 5q-19 6 -23 7h-3l-10 -2l-11 -3h-6q-5 0 -15 2q-15 6 -48 4q-10 -1 -26 -1t-21 2h-2q-3 0 -11 -3l-13 -6
q-1 -1 -4 -1q-6 0 -10 4q-10 6 -15 5l-28 -10h-40q-7 4 -7 18t8.5 27t19.5 13q6 0 30 -10q8 -4 27 5t34 26.5t15 39.5l15 20l32 126l8 16q5 11 5 19q0 38 33 144q17 21 23 43l47 183q7 28 7 42q0 30 -43 39q-14 -9 -28 -9q-30 0 -30 28q0 23 27 33h3q8 0 17 -4q16 -7 25 -7
l12 2q11 3 18 1q22 -5 37 -5q20 0 56 10q19 -15 71 -15q55 0 94 13h1q3 0 11 -5q8 -7 12 -7q3 -1 9 -1q14 0 30 6q20 7 27 7h56q7 0 20 4q12 4 20 4q12 -5 33 -8l23 9q17 6 25 6q15 0 15 -10q0 -14 -27 -56zM390 650q0 8 -3.5 12.5t-8.5 4.5q-6 0 -10.5 -5t-4.5 -13
q0 -18 17 -16q10 4 10 17zM368 549q0 6 -3.5 9t-9.5 3t-12 -4.5t-6 -10.5q0 -15 17 -10q14 5 14 13z" />
    <glyph glyph-name="Egrave" unicode="&#xc8;" horiz-adv-x="846" 
d="M559.5 863q-28.5 26 -28.5 28l-32 38q-25 28 -25 45q0 12 12 19q12 -4 31 -4q18 0 50 4q4 -8 4 -22l-1 -26q0 -9 4 -18.5t19 -34.5q15 -28 15 -44q0 -10 -5 -18q-15 7 -43.5 33zM832 741q-6 -13 -11 -43q-6 -36 -11.5 -47t-24.5 -11q-6 0 -10 4q-3 2 -11 29q-8 29 -11 33
q-16 25 -72 25l-148 2l-43 1q-10 0 -13 -2t-3.5 -7t-1.5 -7q-1 -5 -4.5 -25t-8.5 -35t-12 -23q-17 -20 -17 -30l3 -12q1 -3 2.5 -8.5t1.5 -9.5q0 -12 -14 -26q-19 -19 -20 -25q1 -6 1 -28q-11 -53 -11 -49q0 -13 7 -23q8 1 39 -1l41 -1q45 0 81.5 18t36.5 49q0 25 25 25
l24 -5q6 2 14 2q6 0 8 -2l2 -10q-10 -5 -16.5 -12.5t-9.5 -26.5l-14 -43l-18 -71q1 -4 1 -11q0 -29 -30 -29q-15 0 -26.5 9t-11.5 22q0 7 3 14q1 34 -80 34q-28 0 -48 -1l-40 -2q-9 -4 -14 -21q-1 -3 -2 -11.5t-16 -52.5q-13 -38 -13 -42q1 -13 -10 -36q-11 -21 -13 -37
q4 -8 2 -29l-16 -23q-16 -43 -16 -62q0 -16 12 -21q10 2 14 2q10 0 22 -5l10 -5l42 -1q34 20 64 23q6 1 17 -4t13 -6q10 -2 15 -2q16 0 33 7l4 1q5 0 11 -3l15 -4q10 -2 15 -2q38 0 73 17.5t35 42.5q18 17 20 30q2 21 6 28q8 14 50 14q26 0 26 -8q0 -6 -11 -19t-21 -24
q-5 -26 -17 -78q-14 -45 -51 -64q-6 -3 -22 6t-21 13h-2l-13 -2l-16 -3q-14 -2 -49 -2q-45 0 -84 3q-19 -10 -29 -10t-23 10l-66 1q-21 -12 -32 -12q-4 0 -16 5q-19 6 -23 7h-3l-10 -2l-11 -3h-6q-5 0 -15 2q-15 6 -48 4q-10 -1 -26 -1t-21 2h-2q-3 0 -11 -3l-13 -6
q-1 -1 -4 -1q-6 0 -10 4q-10 6 -15 5l-28 -10h-40q-7 4 -7 18t8.5 27t19.5 13q6 0 30 -10q8 -4 27 5t34 26.5t15 39.5l15 20l32 126l8 16q5 11 5 19q0 38 33 144q17 21 23 43l47 183q7 28 7 42q0 30 -43 39q-14 -9 -28 -9q-30 0 -30 28q0 23 27 33h3q8 0 17 -4q16 -7 25 -7
l12 2q11 3 18 1q22 -5 37 -5q20 0 56 10q19 -15 71 -15q55 0 94 13h1q3 0 11 -5q8 -7 12 -7q3 -1 9 -1q14 0 30 6q20 7 27 7h56q7 0 20 4q12 4 20 4q12 -5 33 -8l23 9q17 6 25 6q15 0 15 -10q0 -14 -27 -56zM390 650q0 8 -3.5 12.5t-8.5 4.5q-6 0 -10.5 -5t-4.5 -13
q0 -18 17 -16q10 4 10 17zM368 549q0 6 -3.5 9t-9.5 3t-12 -4.5t-6 -10.5q0 -15 17 -10q14 5 14 13z" />
    <glyph glyph-name="Iacute" unicode="&#xcd;" horiz-adv-x="567" 
d="M474 922q-45 -36 -59 -48.5t-20.5 -21t-11.5 -13.5q-29 -29 -41 -29t-13 22l12 21q31 57 53.5 92.5t34.5 38.5q3 1 8 1q6 0 15 -3q8 -4 15 -4t15 4q6 2 15 2q12 0 21 -3.5t6 -9.5q-4 -12 -50 -49zM564 781q0 -12 -12.5 -22.5t-26.5 -10.5q-10 0 -18 8q-2 3 -22.5 -6
t-40.5 -22.5t-22 -20.5q-1 -4 -3 -33q0 -16 -19 -29q-18 -60 -24 -86t-9 -59q0 -5 -9 -16t-11 -16l-17 -69q2 -13 1 -16q-5 -6 -13 -31q1 -11 -5 -38q-12 -16 -19 -31q-10 -64 -9 -81q1 -7 -22 -49q-4 -7 -3 -17l2 -14q0 -5 -3 -13.5t-5 -14.5q-5 -16 -3 -24q4 -13 46 -13
q24 -1 34 -5t10 -13t-10 -27q-11 -20 -28 -28q-13 6 -46.5 9t-72.5 3q-51 0 -75 -4l-71 3q-3 0 -17 -3q-12 -4 -19 -4q-14 0 -14 12q0 11 11 23.5t23 15.5h7q16 0 27 1q10 7 28 15q19 6 26 11t10 12.5t10 34.5q10 28 17.5 54.5t7.5 41.5q0 13 -3 34v1q0 4 13 15q13 12 15 20
l2 14l111 386q10 34 10 47q0 16 -16 19q-9 2 -54 3q-16 0 -16 15q0 29 29 35q21 -9 81 -9q75 0 120 9h4q8 0 27 -3l31 -5l27 4l12 1q9 0 12 -3q4 -4 4 -11zM309 552q0 -5 7 -5q4 0 8 3t4 8q0 8 -6 9q-13 -4 -13 -15z" />
    <glyph glyph-name="Icircumflex" unicode="&#xce;" horiz-adv-x="567" 
d="M505 829q-3 9 -26 35q-23 25 -28 42q-3 14 -16 14q-19 0 -84 -46t-84 -43q-12 2 -12 7q0 7 12.5 16.5t26 18.5t17.5 11l23 17q45 32 65 45.5t46 25.5l27 -4q1 -8 39 -61q34 -47 34 -71q0 -14 -11 -22zM564 781q0 -12 -12.5 -22.5t-26.5 -10.5q-10 0 -18 8q-2 3 -22.5 -6
t-40.5 -22.5t-22 -20.5q-1 -4 -3 -33q0 -16 -19 -29q-18 -60 -24 -86t-9 -59q0 -5 -9 -16t-11 -16l-17 -69q2 -13 1 -16q-5 -6 -13 -31q1 -11 -5 -38q-12 -16 -19 -31q-10 -64 -9 -81q1 -7 -22 -49q-4 -7 -3 -17l2 -14q0 -5 -3 -13.5t-5 -14.5q-5 -16 -3 -24q4 -13 46 -13
q24 -1 34 -5t10 -13t-10 -27q-11 -20 -28 -28q-13 6 -46.5 9t-72.5 3q-51 0 -75 -4l-71 3q-3 0 -17 -3q-12 -4 -19 -4q-14 0 -14 12q0 11 11 23.5t23 15.5h7q16 0 27 1q10 7 28 15q19 6 26 11t10 12.5t10 34.5q10 28 17.5 54.5t7.5 41.5q0 13 -3 34v1q0 4 13 15q13 12 15 20
l2 14l111 386q10 34 10 47q0 16 -16 19q-9 2 -54 3q-16 0 -16 15q0 29 29 35q21 -9 81 -9q75 0 120 9h4q8 0 27 -3l31 -5l27 4l12 1q9 0 12 -3q4 -4 4 -11zM309 552q0 -5 7 -5q4 0 8 3t4 8q0 8 -6 9q-13 -4 -13 -15z" />
    <glyph glyph-name="Idieresis" unicode="&#xcf;" horiz-adv-x="567" 
d="M550 994q27 -13 27 -47q0 -27 -17.5 -53.5t-46.5 -38.5h-53q-25 19 -25 52q0 62 69 87h46zM373 993q27 -13 27 -46q0 -27 -17.5 -53t-46.5 -40h-53q-25 19 -25 53q0 62 68 86h47zM564 781q0 -12 -12.5 -22.5t-26.5 -10.5q-10 0 -18 8q-2 3 -22.5 -6t-40.5 -22.5
t-22 -20.5q-1 -4 -3 -33q0 -16 -19 -29q-18 -60 -24 -86t-9 -59q0 -5 -9 -16t-11 -16l-17 -69q2 -13 1 -16q-5 -6 -13 -31q1 -11 -5 -38q-12 -16 -19 -31q-10 -64 -9 -81q1 -7 -22 -49q-4 -7 -3 -17l2 -14q0 -5 -3 -13.5t-5 -14.5q-5 -16 -3 -24q4 -13 46 -13q24 -1 34 -5
t10 -13t-10 -27q-11 -20 -28 -28q-13 6 -46.5 9t-72.5 3q-51 0 -75 -4l-71 3q-3 0 -17 -3q-12 -4 -19 -4q-14 0 -14 12q0 11 11 23.5t23 15.5h7q16 0 27 1q10 7 28 15q19 6 26 11t10 12.5t10 34.5q10 28 17.5 54.5t7.5 41.5q0 13 -3 34v1q0 4 13 15q13 12 15 20l2 14
l111 386q10 34 10 47q0 16 -16 19q-9 2 -54 3q-16 0 -16 15q0 29 29 35q21 -9 81 -9q75 0 120 9h4q8 0 27 -3l31 -5l27 4l12 1q9 0 12 -3q4 -4 4 -11zM309 552q0 -5 7 -5q4 0 8 3t4 8q0 8 -6 9q-13 -4 -13 -15z" />
    <glyph glyph-name="Igrave" unicode="&#xcc;" horiz-adv-x="567" 
d="M397 846.5q-16 13.5 -28.5 26.5t-16.5 17l-32 37q-25 28 -25 45q0 13 12 20q12 -4 31 -4q18 0 50 4q4 -10 4 -23l-1 -25q0 -10 4 -18.5t19 -35.5t15 -44q0 -9 -5 -17q-11 4 -27 17.5zM564 781q0 -12 -12.5 -22.5t-26.5 -10.5q-10 0 -18 8q-2 3 -22.5 -6t-40.5 -22.5
t-22 -20.5q-1 -4 -3 -33q0 -16 -19 -29q-18 -60 -24 -86t-9 -59q0 -5 -9 -16t-11 -16l-17 -69q2 -13 1 -16q-5 -6 -13 -31q1 -11 -5 -38q-12 -16 -19 -31q-10 -64 -9 -81q1 -7 -22 -49q-4 -7 -3 -17l2 -14q0 -5 -3 -13.5t-5 -14.5q-5 -16 -3 -24q4 -13 46 -13q24 -1 34 -5
t10 -13t-10 -27q-11 -20 -28 -28q-13 6 -46.5 9t-72.5 3q-51 0 -75 -4l-71 3q-3 0 -17 -3q-12 -4 -19 -4q-14 0 -14 12q0 11 11 23.5t23 15.5h7q16 0 27 1q10 7 28 15q19 6 26 11t10 12.5t10 34.5q10 28 17.5 54.5t7.5 41.5q0 13 -3 34v1q0 4 13 15q13 12 15 20l2 14
l111 386q10 34 10 47q0 16 -16 19q-9 2 -54 3q-16 0 -16 15q0 29 29 35q21 -9 81 -9q75 0 120 9h4q8 0 27 -3l31 -5l27 4l12 1q9 0 12 -3q4 -4 4 -11zM309 552q0 -5 7 -5q4 0 8 3t4 8q0 8 -6 9q-13 -4 -13 -15z" />
    <glyph glyph-name="Oacute" unicode="&#xd3;" horiz-adv-x="814" 
d="M798 549q-4 -21 -4 -35q0 -11 2 -18l2 -18q0 -13 -4 -28l-16 -53q-12 -22 -26 -59q-7 -40 -24 -66l-45 -54q-7 -16 -16 -31q-37 -37 -134 -105q-13 4 -31.5 -8.5t-36 -28t-23.5 -20.5q-5 8 -13 8q-9 0 -32 -17q-25 -18 -29 -19q-61 -18 -113 -18q-33 0 -53 2.5t-43 15
t-49 38.5q-41 41 -55 41q-7 14 -21 35q-27 36 -27 197q0 55 5 90q10 16 18 43q6 25 26 56q39 67 64.5 103t68.5 72q7 12 28 35q69 49 92 65q14 2 38 9l29 20q8 7 41 14q32 7 44 14q20 19 50 17l11 19q37 67 53 91t27 27q6 2 9 2q6 0 15 -3q8 -4 15 -4t15 4q6 2 15 2
q12 0 21 -3.5t6 -9.5q-4 -12 -50 -50q-38 -30 -53.5 -43t-26.5 -27l-14 -16l8 -2q17 2 35 1q61 -22 85 -49q11 -1 31 -12q14 -12 50 -49q7 -7 16 -27q0 -12 9 -31q-4 -5 4 -40q9 -40 9 -46q0 -10 -3 -31zM686 556q0 60 -15 111.5t-41 68.5q-14 8 -54 34q-25 13 -87 13
q-36 0 -51 -4q-34 -9 -75 -41q-102 -82 -130 -127q-13 -28 -65 -119l-21 -74q-11 -24 -24 -61q-12 -91 -12 -99q0 -26 8 -42q-5 -15 -5 -27q0 -31 32 -78l45 -65q32 -17 77 -19q9 0 15 -12q42 2 103.5 33t112.5 76q60 52 87 107l15 41q18 28 43 79q36 120 40 169q2 22 2 36z
M212 682q-2 -4 -2 -8q0 -5 2 -8.5t6 -2.5l17 11q11 8 11 15q0 10 -7 10q-5 0 -27 -17zM56 216q-10 -7 -10 -19q0 -8 6 -8q15 0 15 18q0 11 -11 9z" />
    <glyph glyph-name="Ocircumflex" unicode="&#xd4;" horiz-adv-x="814" 
d="M688 861q-19 33 -38 74q-1 9 -14 9q-23 0 -100 -43q-78 -43 -96 -41q-9 2 -9 4q0 7 23 20.5t62 32.5q39 24 128 69l26 -3q1 -3 28 -46q24 -37 24 -57q0 -15 -13 -22zM798 549q-4 -21 -4 -35q0 -11 2 -18l2 -18q0 -13 -4 -28l-16 -53q-12 -22 -26 -59q-7 -40 -24 -66
l-45 -54q-7 -16 -16 -31q-37 -37 -134 -105q-13 4 -31.5 -8.5t-36 -28t-23.5 -20.5q-5 8 -13 8q-9 0 -32 -17q-25 -18 -29 -19q-61 -18 -113 -18q-33 0 -53 2.5t-43 15t-49 38.5q-41 41 -55 41q-7 14 -21 35q-27 36 -27 197q0 55 5 90q10 16 18 43q6 25 26 56
q39 67 64.5 103t68.5 72q7 12 28 35q69 49 92 65q14 2 38 9l29 20q8 7 41 14q32 7 44 14q19 17 43 17q10 0 58 -13q17 2 35 1q61 -22 85 -49q11 -1 31 -12q14 -12 50 -49q7 -7 16 -27q0 -12 9 -31q-4 -5 4 -40q9 -40 9 -46q0 -10 -3 -31zM686 556q0 60 -15 111.5t-41 68.5
q-14 8 -54 34q-25 13 -87 13q-36 0 -51 -4q-34 -9 -75 -41q-102 -82 -130 -127q-13 -28 -65 -119l-21 -74q-11 -24 -24 -61q-12 -91 -12 -99q0 -26 8 -42q-5 -15 -5 -27q0 -31 32 -78l45 -65q32 -17 77 -19q9 0 15 -12q42 2 103.5 33t112.5 76q60 52 87 107l15 41
q18 28 43 79q36 120 40 169q2 22 2 36zM212 682q-2 -4 -2 -8q0 -5 2 -8.5t6 -2.5l17 11q11 8 11 15q0 10 -7 10q-5 0 -27 -17zM56 216q-10 -7 -10 -19q0 -8 6 -8q15 0 15 18q0 11 -11 9z" />
    <glyph glyph-name="uniF000" unicode="&#xf000;" horiz-adv-x="969" 
d="M917 759q9 -46 9 -124q0 -25 -5 -95q-6 -63 -6 -94q0 -25 8 -36q-8 -80 -8 -166q0 -50 5 -190q5 -142 5 -190l-12 -26q5 -17 5 -32q0 -13 -3 -37q-4 -21 -4 -35q-41 -23 -155 -23q-26 0 -88 8q-55 7 -88 7q-7 0 -19 -2l-11 -13q-37 12 -153 12q-101 0 -120 -10l-17 16
q-67 -14 -164 -19l-1 8l-27 1h-4q-9 0 -24 -5q-15 14 -18 59q13 22 13 89l-2 80l-2 79q0 56 7 81l16 -11l4 -326l10 -7h7q22 0 65 3l64 2q18 0 58 -8q38 -9 57 -9q330 0 556 8q9 13 9 36q0 22 -0.5 28t-0.5 7q0 133 9 400q9 266 9 400q0 77 -4 132q-16 11 -21 19l-5 -10
l-21 -1h-4q-12 0 -24 7l12 11h-51q-83 0 -194 3l-18 -10q-24 2 -50 8q-36 6 -56 6q-15 0 -27 -6q18 -13 28 -36l24 2l28 -12q12 2 20 2q16 0 35 -4q58 -49 58 -91q0 -9 -6 -24q-5 -15 -7 -23q-17 -17 -28 -26t-21 -9q-5 0 -7 1q-8 -14 -28 -14q-11 0 -33 8q-21 7 -33 7l1 12
h7q44 0 82 -11l-6 12l3 8q20 7 34.5 25.5t14.5 38.5q-11 30 -18 42t-19.5 16.5t-39.5 4.5l-32 -2h-10q-8 0 -22 2l-11 -14q0 -39 5 -152q-5 -8 -5 -18q0 -13 4.5 -28t9.5 -28.5t7 -18.5q44 -34 101 -85q17 -6 44 -6q40 0 63 4t39.5 12.5t42.5 26.5q35 24 73 36l-9 -25
l-19 -5l1 -12q-40 -67 -133 -67q-22 0 -69 6q-52 5 -69 5l-17 -3q-31 -29 -96 -98q-71 -75 -97 -98l-9 4v-5q0 -12 6 -8q-23 -31 -86 -105v3q0 17 -18 24l15 8l-1 5q0 8 10 8l5 -2l7 13l-30 4l-13 -9l-38 15v11q10 2 45 2q24 0 40.5 8t33.5 25t52 58l14 16q38 44 67 58
q-17 2 -47 15q-8 17 -39 41q-33 24 -38 38l-9 -7q-42 36 -64 36q-60 0 -93.5 -21t-48 -59t-18.5 -99q-6 -77 -20 -91l6 -9q-1 -9 -16 -14q-6 18 -6 33q0 13 5 23q-3 9 -3 22q0 10 3 29q3 21 2 30v18l-12 17l-2 241q0 166 8 284l21 16l-13 -13q6 -13 17 -16l5 7
q-8 -16 -8 -107l1 -63q-2 -27 -4 -38q6 -10 6 -30q0 -18 -8 -55l7 -11q-2 -38 -2 -47q0 -26 5 -51q-6 -4 -6 -17q0 -8 10 -47q23 37 69 72.5t79 35.5q21 0 50.5 -10t53 -21t29.5 -15q19 0 77 70l-2 13q0 32 3 96l2 94q0 71 -9 114q-109 1 -181 12q-8 -4 -29 -4
q-91 0 -136 15l4 12l205 6q82 0 142 -9l15 10h8q44 0 123 -6q74 -7 120 -7l62 2q27 1 62 1q39 0 48 -6l28 2q30 0 37 -27zM82 673l-2 -6l-4 4l3 5zM79 636l-5 -1l-11 6l5 8l11 -4v-9zM75 616h-3v13h3v-13zM77 562q-1 -6 0 -10l-3 -3l-3 8v20l2 12q5 -8 5 -16q0 -6 -1 -11z
M76 517l-2 -9l-3 -1l-4 6v17l5 3l4 -12v-4zM80 478v-3l-1 -15l-6 -3l-1 12v3l2 9h5zM458 448v5l-15 7h-2l-1 -1q3 -13 14 -13zM73 408q-3 9 -3 18v7l5 3q4 -23 4 -25zM505 382q-6 8 -28 21q-21 21 -27 21q-3 0 -9 -2l-7 4l-11 -4q-3 -3 -18.5 -19t-24.5 -28.5t-9 -17.5
q0 -11 30.5 -29.5t45.5 -18.5h2q31 30 55 61l-1 4zM312 -14l-8 -1l-10 2q-16 -10 -16 -26q0 -5 5 -20q4 -12 4 -20l-1 -5l-6 -3q-9 18 -14.5 26t-16.5 6q-3 13 -25 13q-8 0 -13 -1q-1 1 -15 11h2q6 0 34 7q8 -7 18 -7q11 0 13 11l20 16q13 10 21 10t8 -11v-8zM871 -2l-2 -8
h-13q-13 -14 -13 -40l5 -41l-6 -6q-18 43 -57 72h-4l-1 -6h-12l5 7q-2 5 -16 9h-1l-3 -7q-6 0 -15 -4l-11 16h16q53 0 75 -25q9 2 19 20q10 19 21 19zM787 -213l-9 -5l-8 8q-2 -1 -6 -1.5t-11 -3.5q-11 -4 -19 -4q-14 0 -20 13l-12 -5q-6 0 -20 13l3 8q-4 9 -13 16l-7 -4
q-13 25 -13 42q0 15 7 30l-8 7q4 8 15 31t22.5 36.5t23.5 13.5q8 0 12 -9l-3 -12l-5 -2q0 -4 -4 -17q-10 -2 -21 -7q10 -7 10 -20l-2 -14q-3 -11 -3 -15q-18 -8 -18 -10l2 -8l9 4l14 -11q3 -66 59 -66q14 0 22 1zM614 -70q0 -13 -13 -13q-5 -31 -13 -56q1 -10 5 -15h-2
l-9 -5q13 -11 19.5 -26t6.5 -19q-9 -7 -21 -7q-7 0 -18 3q-19 -6 -28 -6q-8 0 -28 3l-28 2q-22 0 -39 -1l-40 -2q-15 0 -29 2v6l14 -2q14 10 22 18l-4 5l9 8q-5 62 -5 89q0 15 2 31l-15 21q-17 -5 -23 -5l-11 8l2 9q14 -2 42 -8q13 8 29 8q14 0 27 -5l11 3l8 -4
q-5 -10 -16 -10q-10 0 -13.5 0.5t-4.5 0.5l-5 -1q-10 -74 -10 -85q11 -20 9 -32q11 -2 11 -11l-7 -12q1 1 5 -18q15 0 26 -1t25 -1q32 0 47 8.5t20.5 25.5t9.5 54q4 36 22 46l10 -4v-2zM302 -222l-8 -1q-14 0 -30 13q-7 0 -22 -5q-14 -6 -23 -6q-68 0 -98 18.5t-30 73.5
q0 49 14 57h2q6 0 25 24q20 23 38 23q10 0 17 -7l-20 -8q-10 -4 -13 -12q-17 -14 -17 -67v-23q0 -45 18 -64q13 -4 32 -4q65 0 64 46l-6 5l3 4q-5 14 -32 12l-3 6q28 3 36 5l17 -16q5 4 14.5 9t15.5 5l8 -2l-2 -6q-2 -1 -8 -3t-8.5 -4.5t-0.5 -6.5l-11 -4q10 -13 10 -38
q0 -13 9 -14q10 -2 11 -5zM853 -208q-6 2 -9 11q-3 10 -10 11q-7 -11 -31 -24l-10 6q40 30 38 44q7 4 7 17l4 7q3 0 9 -25.5t6 -35.5zM83 -248q-11 0 -18 -4q6 -6 16 -6q9 0 14 6zM743 -268l-13 3l-10 -3q4 -3 14 -6z" />
    <glyph glyph-name="Ograve" unicode="&#xd2;" horiz-adv-x="814" 
d="M638.5 861q-28.5 26 -28.5 28l-32 38q-25 28 -25 45q0 12 12 19q12 -4 31 -4q18 0 50 4q4 -8 4 -22l-1 -26q0 -9 4 -18.5t19 -34.5q15 -28 15 -44q0 -10 -5 -18q-15 7 -43.5 33zM798 549q-4 -21 -4 -35q0 -11 2 -18l2 -18q0 -13 -4 -28l-16 -53q-12 -22 -26 -59
q-7 -40 -24 -66l-45 -54q-7 -16 -16 -31q-37 -37 -134 -105q-13 4 -31.5 -8.5t-36 -28t-23.5 -20.5q-5 8 -13 8q-9 0 -32 -17q-25 -18 -29 -19q-61 -18 -113 -18q-33 0 -53 2.5t-43 15t-49 38.5q-41 41 -55 41q-7 14 -21 35q-27 36 -27 197q0 55 5 90q10 16 18 43
q6 25 26 56q39 67 64.5 103t68.5 72q7 12 28 35q69 49 92 65q14 2 38 9l29 20q8 7 41 14q32 7 44 14q19 17 43 17q10 0 58 -13q17 2 35 1q61 -22 85 -49q11 -1 31 -12q14 -12 50 -49q7 -7 16 -27q0 -12 9 -31q-4 -5 4 -40q9 -40 9 -46q0 -10 -3 -31zM686 556q0 60 -15 111.5
t-41 68.5q-14 8 -54 34q-25 13 -87 13q-36 0 -51 -4q-34 -9 -75 -41q-102 -82 -130 -127q-13 -28 -65 -119l-21 -74q-11 -24 -24 -61q-12 -91 -12 -99q0 -26 8 -42q-5 -15 -5 -27q0 -31 32 -78l45 -65q32 -17 77 -19q9 0 15 -12q42 2 103.5 33t112.5 76q60 52 87 107l15 41
q18 28 43 79q36 120 40 169q2 22 2 36zM212 682q-2 -4 -2 -8q0 -5 2 -8.5t6 -2.5l17 11q11 8 11 15q0 10 -7 10q-5 0 -27 -17zM56 216q-10 -7 -10 -19q0 -8 6 -8q15 0 15 18q0 11 -11 9z" />
    <glyph glyph-name="Uacute" unicode="&#xda;" horiz-adv-x="844" 
d="M648 921l-61 -49q-26 -30 -43 -46.5t-29 -16.5q-11 0 -12 22l14 25q32 58 53 91.5t32 35.5q6 2 9 2q6 0 15 -3q8 -4 15 -4t15 4q6 2 15 2q12 0 21 -3.5t6 -9.5q-4 -12 -50 -50zM845 799q0 -14 -13.5 -30.5t-27.5 -20.5q-8 2 -18 2l-19 -1l-13 -13q0 -3 2 -13
q3 -10 -25 -96q-30 -91 -30 -128q0 -4 -7 -17l-9 -16l-14 -47l-48 -169q-3 -3 -14 -21.5t-18 -38.5q-9 -24 -17 -36q-42 -59 -113 -110q-13 -2 -33 -13q-24 -13 -32 -14q-16 -9 -27.5 -11.5t-21.5 -3t-14 -0.5q-17 -9 -23.5 -11t-21.5 -2l-48 1q-12 11 -40 11l-23 -1
q-10 2 -21 9q-13 9 -19 11q-47 17 -86 51.5t-39 68.5q0 9 1 13q-3 8 -2 22v8q0 10 -1 13q3 9 15 43.5t19 61.5t7 41q0 5 -2 11l1 5q6 6 10 29q3 19 7 32q14 14 17 36q1 13 5 39l25 86l16 40l-1 9l1 12l5 15q18 12 18 56q0 49 -36 49l-5 5q-1 9 10.5 23.5t21.5 17.5h2
q5 0 9 -4q6 -7 9 -7l5 2l115 -4q15 0 44 7q26 7 44 5q1 -2 1 -7q0 -12 -11 -25.5t-24 -17.5q-7 1 -18 1q-32 0 -40 -32q-7 -33 -13 -56q-2 -30 -22 -62l-20 -68q4 -11 -29 -104l-7 -21l-7 -10q-3 -25 -19 -84l4 -16q-25 -87 -25 -116q0 -39 33 -98q7 -12 17 -16t32 -7
q12 -10 18.5 -11.5t28.5 -3.5l21 -1q5 -8 17 -8q11 0 32.5 9t25.5 11q11 3 30 4q18 2 33 12q15 11 82 65q9 13 42 52q3 17 17 31l16 56q8 13 18 37q6 6 9.5 10t3.5 8q0 5 -3 18l15 48q8 11 15.5 30t10.5 39q3 35 4 37l20 71v15q0 12 2.5 18.5t9.5 7.5q0 15 1.5 27t11.5 19
q-2 6 -2 12q0 13 9 32q5 12 5 19q0 16 -19 16q-8 0 -14 -1l-14 -2q-26 0 -26 38q0 26 18 26q5 0 12 -6t14 -4q23 -1 60 3q41 3 60 2q6 -2 8 -2q6 0 14 4q7 4 12 4q3 -4 3 -10zM228 683q0 13 -13 14q-10 -3 -10 -13q0 -15 13 -12q10 3 10 11zM215 650q0 -6 6 -6q5 0 9.5 3.5
t4.5 9.5q0 7 -7 7q-13 0 -13 -14zM87 142q0 6 -9 8q-8 -5 -8 -10q0 -6 10 -5q7 1 7 7z" />
    <glyph glyph-name="Ucircumflex" unicode="&#xdb;" horiz-adv-x="844" 
d="M596 856q-13 24 -36 80q-1 10 -14 10q-19 0 -95 -47q-75 -46 -91 -45q-8 2 -8 6q0 6 20.5 20t42.5 27l17 10q56 38 76.5 50.5t46.5 23.5l25 -3q2 -8 25 -48q24 -43 24 -63q0 -17 -12 -25zM845 799q0 -14 -13.5 -30.5t-27.5 -20.5q-8 2 -18 2l-19 -1l-13 -13q0 -3 2 -13
q3 -10 -25 -96q-30 -91 -30 -128q0 -4 -7 -17l-9 -16l-14 -47l-48 -169q-3 -3 -14 -21.5t-18 -38.5q-9 -24 -17 -36q-42 -59 -113 -110q-13 -2 -33 -13q-24 -13 -32 -14q-16 -9 -27.5 -11.5t-21.5 -3t-14 -0.5q-17 -9 -23.5 -11t-21.5 -2l-48 1q-12 11 -40 11l-23 -1
q-10 2 -21 9q-13 9 -19 11q-47 17 -86 51.5t-39 68.5q0 9 1 13q-3 8 -2 22v8q0 10 -1 13q3 9 15 43.5t19 61.5t7 41q0 5 -2 11l1 5q6 6 10 29q3 19 7 32q14 14 17 36q1 13 5 39l25 86l16 40l-1 9l1 12l5 15q18 12 18 56q0 49 -36 49l-5 5q-1 9 10.5 23.5t21.5 17.5h2
q5 0 9 -4q6 -7 9 -7l5 2l115 -4q15 0 44 7q26 7 44 5q1 -2 1 -7q0 -12 -11 -25.5t-24 -17.5q-7 1 -18 1q-32 0 -40 -32q-7 -33 -13 -56q-2 -30 -22 -62l-20 -68q4 -11 -29 -104l-7 -21l-7 -10q-3 -25 -19 -84l4 -16q-25 -87 -25 -116q0 -39 33 -98q7 -12 17 -16t32 -7
q12 -10 18.5 -11.5t28.5 -3.5l21 -1q5 -8 17 -8q11 0 32.5 9t25.5 11q11 3 30 4q18 2 33 12q15 11 82 65q9 13 42 52q3 17 17 31l16 56q8 13 18 37q6 6 9.5 10t3.5 8q0 5 -3 18l15 48q8 11 15.5 30t10.5 39q3 35 4 37l20 71v15q0 12 2.5 18.5t9.5 7.5q0 15 1.5 27t11.5 19
q-2 6 -2 12q0 13 9 32q5 12 5 19q0 16 -19 16q-8 0 -14 -1l-14 -2q-26 0 -26 38q0 26 18 26q5 0 12 -6t14 -4q23 -1 60 3q41 3 60 2q6 -2 8 -2q6 0 14 4q7 4 12 4q3 -4 3 -10zM228 683q0 13 -13 14q-10 -3 -10 -13q0 -15 13 -12q10 3 10 11zM215 650q0 -6 6 -6q5 0 9.5 3.5
t4.5 9.5q0 7 -7 7q-13 0 -13 -14zM87 142q0 6 -9 8q-8 -5 -8 -10q0 -6 10 -5q7 1 7 7z" />
    <glyph glyph-name="Ugrave" unicode="&#xd9;" horiz-adv-x="844" 
d="M504.5 858.5q-27.5 25.5 -29.5 29.5l-32 37q-24 29 -24 45q0 12 11 20q11 -4 30 -4t51 4q5 -11 4 -31l-1 -16q0 -8 4 -18t10 -21t9 -16q15 -27 15 -44q0 -9 -5 -17q-15 6 -42.5 31.5zM845 799q0 -14 -13.5 -30.5t-27.5 -20.5q-8 2 -18 2l-19 -1l-13 -13q0 -3 2 -13
q3 -10 -25 -96q-30 -91 -30 -128q0 -4 -7 -17l-9 -16l-14 -47l-48 -169q-3 -3 -14 -21.5t-18 -38.5q-9 -24 -17 -36q-42 -59 -113 -110q-13 -2 -33 -13q-24 -13 -32 -14q-16 -9 -27.5 -11.5t-21.5 -3t-14 -0.5q-17 -9 -23.5 -11t-21.5 -2l-48 1q-12 11 -40 11l-23 -1
q-10 2 -21 9q-13 9 -19 11q-47 17 -86 51.5t-39 68.5q0 9 1 13q-3 8 -2 22v8q0 10 -1 13q3 9 15 43.5t19 61.5t7 41q0 5 -2 11l1 5q6 6 10 29q3 19 7 32q14 14 17 36q1 13 5 39l25 86l16 40l-1 9l1 12l5 15q18 12 18 56q0 49 -36 49l-5 5q-1 9 10.5 23.5t21.5 17.5h2
q5 0 9 -4q6 -7 9 -7l5 2l115 -4q15 0 44 7q26 7 44 5q1 -2 1 -7q0 -12 -11 -25.5t-24 -17.5q-7 1 -18 1q-32 0 -40 -32q-7 -33 -13 -56q-2 -30 -22 -62l-20 -68q4 -11 -29 -104l-7 -21l-7 -10q-3 -25 -19 -84l4 -16q-25 -87 -25 -116q0 -39 33 -98q7 -12 17 -16t32 -7
q12 -10 18.5 -11.5t28.5 -3.5l21 -1q5 -8 17 -8q11 0 32.5 9t25.5 11q11 3 30 4q18 2 33 12q15 11 82 65q9 13 42 52q3 17 17 31l16 56q8 13 18 37q6 6 9.5 10t3.5 8q0 5 -3 18l15 48q8 11 15.5 30t10.5 39q3 35 4 37l20 71v15q0 12 2.5 18.5t9.5 7.5q0 15 1.5 27t11.5 19
q-2 6 -2 12q0 13 9 32q5 12 5 19q0 16 -19 16q-8 0 -14 -1l-14 -2q-26 0 -26 38q0 26 18 26q5 0 12 -6t14 -4q23 -1 60 3q41 3 60 2q6 -2 8 -2q6 0 14 4q7 4 12 4q3 -4 3 -10zM228 683q0 13 -13 14q-10 -3 -10 -13q0 -15 13 -12q10 3 10 11zM215 650q0 -6 6 -6q5 0 9.5 3.5
t4.5 9.5q0 7 -7 7q-13 0 -13 -14zM87 142q0 6 -9 8q-8 -5 -8 -10q0 -6 10 -5q7 1 7 7z" />
    <glyph glyph-name="macron" unicode="&#xaf;" horiz-adv-x="474" 
d="M380 706q34 0 34 -23q0 -17 -16 -36.5t-28 -19.5l-265 1q-38 0 -38 31q0 20 17 45l112 3z" />
    <glyph glyph-name="dotaccent" unicode="&#x2d9;" horiz-adv-x="410" 
d="M341 743q0 -21 -13.5 -44t-33 -36.5t-36.5 -10.5q-12 -4 -23 -4q-44 0 -44 50q0 35 24.5 62.5t61.5 27.5q64 0 64 -45z" />
    <glyph glyph-name="ring" unicode="&#x2da;" horiz-adv-x="316" 
d="M163 535q-34 0 -55 22.5t-21 58.5q0 35 23 75l19 19l15 15q6 2 27 16q1 0 6.5 1.5t18.5 6.5q16 6 25 6q39 0 61 -21.5t22 -56.5q0 -77 -79 -123q-31 -19 -62 -19zM254 666q0 28 -38 28q-27 0 -42 -17t-15 -38q0 -14 8 -23.5t22 -9.5q44 0 62 48q3 6 3 12z" />
    <glyph glyph-name="cedilla" unicode="&#xb8;" horiz-adv-x="466" 
d="M256 -32q-29 -35 -24 -58q3 -11 3 -21q0 -43 -32 -82t-79 -53q-9 -3 -20.5 4t-11.5 16q0 6 6 14q7 7 25 11q19 5 26 9q38 26 38 48q0 12 -13 32t-13 33q0 20 32 43q12 8 29 35q10 19 30 19q13 0 32 -6q0 -10 -28 -44z" />
    <glyph glyph-name="hungarumlaut" unicode="&#x2dd;" horiz-adv-x="465" 
d="M311 665.5q-37 -36.5 -81.5 -70t-54.5 -35.5l-5 -2q-14 0 -19 8q-1 4 98 139q10 14 31 25.5t39 11.5q29 0 29 -21q0 -19 -37 -55.5zM449 661.5q-37 -36.5 -81.5 -70t-54.5 -35.5l-4 -2q-15 0 -20 9q-1 3 44 65l54 73q10 15 31 26t39 11q29 0 29 -21q0 -19 -37 -55.5z" />
    <glyph glyph-name="ogonek" unicode="&#x2db;" horiz-adv-x="466" 
d="M316 -87q0 -21 -34 -51q-35 -30 -35 -43q0 -9 6 -14.5t23 -10.5q18 -3 18 -16q0 -10 -17 -20q-20 -11 -30 -8q-51 18 -51 74q0 42 33 83q13 16 13 35q0 8 -5 28q-5 18 -5 24q0 8 4 15q15 4 29 4q25 0 28 -26q4 -34 10 -44q13 -14 13 -30z" />
    <glyph glyph-name="caron" unicode="&#x2c7;" horiz-adv-x="535" 
d="M407 749q6 -7 6 -19q0 -23 -29 -59.5t-80 -89.5l-17 -18l-40 -6q-30 20 -93 99q-51 51 -51 69q0 25 31 25q25 0 70 -45q44 -45 60 -45q9 0 17 8q37 43 56 58.5t52 24.5z" />
    <glyph glyph-name="Lslash" unicode="&#x141;" horiz-adv-x="731" 
d="M712 222q0 -6 -7 -18l-11 -20l-28 -98q-1 -8 -2.5 -36.5t-9 -45.5t-22.5 -17q-4 0 -12 6q-9 6 -12 6h-169q-1 0 -16 -5q-13 -6 -24 -6q-39 0 -47 3q-13 5 -26 8q-9 -1 -44 1q-7 2 -26 2q-18 0 -29 -1q-30 -2 -38 -2l-17 1q-4 0 -16 4q-10 3 -16 2q-101 -18 -120 -18
q-25 0 -25 13q0 10 10.5 24.5t20.5 19.5q6 2 12 2q4 0 22 -2q31 -4 37 -4q8 0 31 23t26 33l6 22q14 53 25 85t29 59q4 5 4 14q0 6 -2 13.5t-3 10.5v2q0 5 10 20q12 16 13 18q7 15 11 39q4 25 9 37l-48 -13q-12 -2 -16 -2q-30 0 -30 37q0 16 6 34l107 31l22 6l36 136
q15 51 15 62q0 20 -26 20q-14 0 -59 -8q-12 5 -12 22q0 36 25 42h3q9 0 20 -7q13 -8 19 -10q0 1 33 7q9 0 28 -4q21 -5 35 -3q2 0 18 8q10 6 16 4q9 -9 19 -9q7 0 12 2t8.5 3t4.5 2q17 3 83 3q35 0 35 -9q0 -8 -26 -31h-63q-31 -22 -43 -34q-2 -2 -14.5 -28t-12.5 -28
q2 -10 2 -14q0 -20 -13 -47l-22 -47l58 20q11 3 17 3q21 0 21 -24q0 -18 -9 -36.5t-19 -21.5l-93 -30l-22 -76q-6 -26 -5 -21q-3 -5 -15.5 -41t-17.5 -51q0 -17 -16 -78l-19 -26q-14 -50 -14 -69q0 -34 48 -34l46 2q48 2 63 2q17 0 48 -12h2q6 0 13 5l14 7l33 3
q18 1 41.5 15.5t35.5 29.5q5 6 10 26q3 16 11 31.5t32 56.5q8 11 19 11t12 -10v-2zM383 651q4 0 11 5q4 4 4 7q0 4 -8 9q-10 -4 -12 -13q-2 -8 5 -8z" />
    <glyph glyph-name="lslash" unicode="&#x142;" horiz-adv-x="660" 
d="M467 55q-13 -54 -44 -55l-289 -9l-12 1q-16 0 -47 -11q-22 -7 -36 -7q-11 0 -16 5q-14 14 -14 35q0 8 3 12q6 10 46 16q39 4 56 38q8 33 42 142l-18 1q-47 3 -47 37q0 14 7 32l69 15l15 4l6 21q12 29 26 78q1 2 1 6q0 6 -5 13q-9 5 -13 2q-7 -4 -14 -4q-12 0 -21.5 14
t-9.5 30q0 25 21 25q36 0 97 10q65 9 90 9q73 0 74 -55q-12 -19 -21.5 -23.5t-18.5 -5t-12 -0.5q-38 -16 -54.5 -34.5t-32.5 -55.5l32 10q12 2 16 2q23 0 23 -25q0 -17 -9.5 -35.5t-18.5 -21.5l-64 -17q-1 -22 -6 -43q-6 -19 -8 -36q-15 -28 -21.5 -42t-8.5 -28
q-8 -8 -8 -19q0 -15 17 -30t32 -14q39 2 62 10t49 29.5t74 71.5q8 2 19 2q12 0 10 -6z" />
    <glyph glyph-name="Scaron" unicode="&#x160;" horiz-adv-x="788" 
d="M672 764q-21 -50 -22 -53q-2 -7 -6.5 -29t-12 -35t-18.5 -13q-7 0 -14 4q-3 5 -3 16v15q1 7 1 17q0 50 -47 52q-17 15 -49 17q9 -1 -9 -1.5t-50 -0.5q-51 0 -125 -98l-2 -25q-6 -6 -8 -21q-2 -20 -2 -21q-2 -12 -2 -17q0 -19 15 -32.5t34.5 -24.5t27.5 -16q45 -35 93 -50
q5 -5 40 -26q21 -13 23 -37q0 -6 30 -26q10 -6 11 -16q2 -7 3 -12t2 -7q-4 -9 -4 -27q0 -7 1 -12v-12q0 -34 -25 -53q3 -16 4 -27l-27 -36q-2 -15 -7 -25q-3 -5 -58.5 -44t-88.5 -61q-7 -4 -17 -3q-11 0 -14 -1q-11 -1 -80 -26q-51 -17 -79 -17q-31 0 -54 18q-21 5 -32 17
q-10 12 -21 17q-62 26 -62 62q0 21 13 53l10 48q4 14 14.5 23t21.5 9q12 0 20.5 -9.5t9.5 -28.5q-7 -15 -7 -33q0 -31 20.5 -58t53 -43t68.5 -16q28 0 50 9q85 36 121 81q6 8 15 43q0 3 10 33q7 20 7 34q-1 39 -61 79q-78 48 -117 73q-65 49 -76 113v5q0 100 89 195
q7 8 32 23q22 13 33 24q16 19 44 30l50 15q-16 18 -51 86q-10 14 -26 38q-7 13 -7 25q0 20 21 26q16 4 49 -54q35 -62 59 -62q18 0 72 54q58 58 95 68l17 -2q2 -6 2 -10q0 -22 -34.5 -55t-102.5 -89l-19 -15q20 -15 32 -15q2 0 46 16h1q3 0 15 -10q11 -12 14 -14q6 -2 46 -7
zM262 468q15 0 15 21q0 16 -13 16q-9 0 -17 -8t-8 -17q0 -14 13 -14l8 2h2z" />
    <glyph glyph-name="scaron" unicode="&#x161;" horiz-adv-x="515" 
d="M449 740q2 -6 2 -10q0 -23 -39.5 -60.5t-107.5 -92.5l-28 -23l-42 -6q-22 18 -39 47l-26 52l-20 29q-12 17 -12 32q0 17 20 28q12 5 19 5q26 0 57 -45q32 -45 48 -45q8 0 19 8q51 44 73.5 59t58.5 24zM375 430.5q-9 -29.5 -17 -31.5q-10 -2 -25.5 8.5t-29.5 23t-18 16.5
q-10 7 -26 7q-27 0 -50 -19t-24 -43q12 -34 82 -99q66 -63 73 -108q6 -33 4 -40q1 -3 1 -8q0 -29 -28.5 -62t-68 -55.5t-69.5 -22.5h-63q-82 0 -108 54q-4 7 -4 29q0 78 33 78q24 0 39 -34q16 -37 24 -50.5t17 -18t27 -4.5q24 0 49 18.5t38 44.5q5 12 5 27q0 24 -5 37
t-17 25t-45 37q-32 26 -42 52l-2 1l-8 47q-6 29 -6 47q0 52 32.5 85.5t76.5 33.5l19 1q11 1 30 1q107 0 113 -37q2 -11 -7 -40.5z" />
    <glyph glyph-name="Zcaron" unicode="&#x17d;" horiz-adv-x="883" 
d="M867 781.5q10 -2.5 10 -10.5q0 -4 -4 -11q-13 -20 -53 -48q-43 -31 -53 -41q-97 -109 -96 -115q-1 -15 -19 -25q-27 -13 -31 -17q-48 -43 -95 -97l1 -12q-7 -7 -21 -18q-20 -9 -81 -74l-79 -86l-47 -62q-8 0 -30.5 -20t-40.5 -46t-18 -41q0 -13 14 -18l211 -7
q42 -2 52 -2q148 0 214 86q23 28 35.5 46.5t14.5 32.5q4 7 16 7t12 -9q0 -4 -1 -7q-16 -49 -57 -172q-19 -13 -100 -13q-15 0 -63 2q-26 2 -92 2q-60 0 -95 -1q-140 -4 -189 -4q-110 0 -128 -1q-53 5 -56 17q37 32 105 95l2 10l20 19q36 33 60.5 57.5t40.5 46.5q-1 4 20 28
q16 3 54 44q41 45 54 56q1 16 11 19q14 5 19 11l2 11q7 6 38 35.5t49.5 51.5t18.5 31q3 8 69 73.5t101 97.5q8 17 6 20q-16 24 -244 26l-3 3q-67 0 -99 -4t-53 -20.5t-33 -53.5q-8 -2 -10 -2q-6 0 -9 3q13 47 17 62q13 41 25 59q5 4 39 4l22 1q19 0 22 1q14 13 25 13
q5 0 14 -8t12 -11l17 -2q12 -3 19 -3q13 0 17 7q0 -1 71 -10q-22 22 -58 94q-3 6 -16 23q-12 17 -12 23q0 11 12.5 24.5t28.5 18.5l24 -64q32 -62 65 -62q8 0 16 3q21 4 68 63q45 59 76 66l18 -2q2 -6 2 -10q0 -30 -73 -91q-68 -56 -102 -85q12 3 17 10q57 -15 189 -15h66
q19 0 29 -2.5zM446 798zM645 638l-2 6q-21 -1 -21 -17q0 -5 10 -4q5 4 13 15zM585 516h-3q-7 0 -12 -15l4 -3l6 2q9 11 5 16zM285 225h4l7 7l-9 5l-5 -6zM308 213q-6 7 -12 7l-8 -7l4 -13q9 0 16 13zM157 46q9 0 9 11q0 5 -6 6q-15 -6 -8 -16q2 -1 5 -1zM47 0l42 -1z" />
    <glyph glyph-name="zcaron" unicode="&#x17e;" horiz-adv-x="672" 
d="M531 732q2 -6 2 -10q0 -23 -39.5 -60.5t-107.5 -92.5l-28 -23l-42 -6q-22 18 -39 47q-11 22 -20 38.5t-26 42.5q-12 18 -12 32q0 19 20 28q12 5 19 5q26 0 57 -45q32 -45 47 -45q9 0 20 8q51 44 73.5 59t58.5 24zM486 424q-14 -14 -102 -116.5t-182 -214.5l-9 -27
q20 -6 52 -6q86 0 155 29q11 4 24 28q6 23 30 70q-3 15 8.5 28.5t26.5 11.5q6 0 18 -35v-3q0 -8 -5 -14q-2 -3 -7.5 -11.5t-9.5 -18t-6 -20.5q-3 -26 -4 -29q2 -26 2 -41q0 -12 -2 -44q-23 -23 -87 -23q-8 0 -46 2l-35 2q-10 5 -57 5q-5 5 -15 5q-23 -5 -67 -9q-10 0 -28 5
q-16 4 -29 3q-9 -7 -22 -15q-9 -3 -32.5 8t-20.5 19l9 33q1 5 16 18q7 5 21 17q17 17 38 47q19 28 36 46l17 11q34 40 102 107q15 12 35 47l9 6l20 28t23 38t8 30q0 5 -1 8q-15 7 -43 7q-18 0 -31.5 -1t-21.5 -2q-25 -2 -47 -27q-12 -8 -25 -23q-9 -15 -25 -62
q1 -20 -12 -33.5t-31 -13.5q-19 0 -27 14q-1 1 -1 6q0 12 13 63q12 48 9 58q-5 25 -5 32q0 13 12 20l39 17l57 12q2 -2 32 -14q25 5 93 5h31q11 7 15 7t9 -3q4 -4 8 -4h73l12 2l10 1q14 0 14 -35q0 -7 -41 -51z" />
    <glyph glyph-name="Eth" unicode="&#xd0;" horiz-adv-x="959" 
d="M913 320q-36 -46 -65 -89q-43 -45 -121 -117q-23 -41 -142 -77h-5q-11 0 -19 -1q-28 -10 -87 -27l-51 -8q-31 -6 -50 -6q-57 0 -100 13q-2 1 -5 1q-10 0 -25 -6q-21 -9 -29 -9q-7 0 -12 3q-26 14 -46 14l-21 -1q-22 -2 -29 -2q-17 -11 -26 -11l-23 -1q-10 -1 -25 -1
q-50 0 -50 22q0 16 25 44q2 3 10.5 13.5t16.5 17t15 8.5h1q6 0 26 -13q20 -16 33 -16q16 0 27 23q4 21 5 24q4 4 17 26q1 23 12 73l53 184h-63q-38 0 -38 30q0 21 17 46q30 0 53 1l54 2l8 29q-1 2 -1 7q0 11 18 20q23 12 27 18q4 4 4 13q0 15 -17 20l-4 15q24 86 24 96
q0 20 -16 27q-15 7 -58 7q-8 -3 -14 -3q-19 0 -19 24q0 31 29 39l130 -3q34 -8 50 -8t34 7q20 6 39 6q173 0 193 -1q31 -2 68 -15q42 -16 63 -23q8 -3 25 -15q14 -13 26 -16l26 -31l14 -16q29 -32 29 -43q0 -5 -1 -9t-1 -7q0 -11 15 -28q15 -16 15 -42q0 -31 4 -78zM803 469
q2 6 2 10q0 6 -5 24q-4 18 -4 22l1 24q0 60 -30.5 105.5t-80.5 55.5q-8 2 -15 11q-7 8 -14 10l-21 -1l-28 1q-8 2 -24 12q-17 10 -27 10q-4 0 -6 -1q-15 -6 -42 -6q-29 -1 -42 -10t-21 -39q-28 -121 -55 -218h45q36 0 36 -31q0 -19 -13 -38.5t-25 -18.5l-66 9
q-34 -115 -72 -226q-2 -5 -11 -17q-11 -14 -10 -18q0 -3 3 -9q3 -7 3 -11q0 -7 -4 -19t-4 -19t3 -10q17 -19 45 -23l55 -2q7 -2 16 -7q11 -6 14 -6q2 0 6 2q18 9 35 13q29 6 40 9.5t33 17.5l38 23q20 7 59 29q37 30 79 72q8 9 12 27q5 17 9 24q16 13 36 44zM868 534
q0 16 -12 16q-7 0 -13.5 -5.5t-6.5 -12.5q0 -18 11 -18l8 2q13 6 13 18zM299 400q-9 -4 -9 -9q0 -6 13 -6q22 0 20 15h-24zM191 122l6 2q4 4 4 9q0 6 -4 11q-10 -12 -6 -22z" />
    <glyph glyph-name="eth" unicode="&#xf0;" horiz-adv-x="697" 
d="M563 316q0 -67 -27 -123.5t-89 -110.5q-73 -62 -153 -86q-10 -3 -62 -4q-4 1 -17 1.5t-31 1.5q-11 0 -55 2l-17 1l-18 -1l-28 -1q-34 0 -68 22q-2 6 -2 9q0 14 12 24q3 0 14 0.5t18.5 4t9.5 10.5q19 45 59 164h-33q-30 0 -30 25q0 16 14 36l70 2q26 81 29 101q4 24 4 28
q0 13 -7.5 21.5t-26.5 19.5q-28 15 -28 25t24 20q37 0 50.5 -3t22.5 -8t15 -8q6 -2 8 -2q7 0 29 11q20 10 30 10h121q33 0 70 -25.5t63 -63.5t28 -73q1 -10 1 -30zM438.5 384q-6.5 7 -13.5 15q-36 61 -106 61q-36 0 -45 -18q-25 -53 -53 -149l75 -1q26 0 26 -18
q0 -14 -12.5 -29.5t-21.5 -15.5l-85 1l-27 -95q-3 -18 -15 -51q-4 -9 -11 -17q-7 -11 -5 -18q5 -15 59 -15q74 0 123.5 22t94.5 83q47 64 47 139q0 48 -19 92q-5 7 -11.5 14z" />
    <glyph glyph-name="Yacute" unicode="&#xdd;" horiz-adv-x="700" 
d="M539 929q-45 -36 -59 -48.5t-20.5 -21t-11.5 -13.5q-29 -29 -41 -29t-13 22q11 18 13 24q31 57 53.5 91.5t33.5 36.5q3 1 8 1q6 0 15 -3t15 -3q7 0 15 4q6 2 15 2q12 0 21 -3.5t6 -9.5q-4 -13 -50 -50zM696 785q0 -13 -17 -19q-38 -14 -45 -18q-26 -25 -99 -103
t-131.5 -146t-58.5 -80l-24 -29q-8 -26 -15 -29q-2 -6 0 -8l3 -9q-9 -13 -15 -27q-14 -30 -16 -60q-27 -91 -44 -155q-2 -14 -2 -20q0 -54 34 -54q9 0 18 4q6 2 9 2q8 0 21 -5q3 -3 3 -7q0 -15 -23 -26q-2 -2 -9 -2q-6 0 -10 2l-17 5q-12 2 -22 2q-20 0 -41 -4h-3
q-3 0 -15 4q-9 4 -16 4h-65q-13 0 -35 -5q-19 -6 -27 -6q-13 0 -27 7q-8 5 -9 11q-2 33 31 33q9 0 29 -3l18 -2q6 0 11 3t14 11q15 13 16 18q20 55 54 166l23 85q4 18 3 34q-5 23 -3 34q-7 52 -41 152q-35 103 -47 147q-10 38 -23 51t-47 16l-17 1q6 19 9 23.5t14 6.5
q29 5 104 4q18 -4 42 -5q16 3 26 4l90 -2l29 -2q0 -18 -25 -28q-82 1 -82 -25q0 -4 3 -15q2 -13 1 -17q4 -17 24 -77q-2 -12 -2 -26q6 -5 16 -20q19 -64 26 -98l16 -34q58 65 224 241l39 45q2 21 -32 30t-34 13t9 11q182 0 180 -2v-2zM178 658q0 -3 7 -3q12 0 12 9
q0 6 -6 10q-13 -4 -13 -16zM250.5 524.5q-6.5 -6.5 -6.5 -18.5q0 -9 8 -9t16.5 8t8.5 16q0 10 -9 10q-11 0 -17.5 -6.5zM177 180l-6 -11q0 -7 6 -7q5 0 11.5 5t6.5 9q0 6 -12 6zM178 83q0 11 -16 11q-9 -4 -9 -14q0 -12 13 -8q12 5 12 11z" />
    <glyph glyph-name="Thorn" unicode="&#xde;" horiz-adv-x="779" 
d="M770 456q0 -14 -1 -22q-2 -3 -8 -20q0 -5 4 -10t4 -10q0 -18 -24.5 -50t-57 -61.5t-54.5 -39.5q-10 -9 -51 -35q-1 0 -33 -7l-67 -19l-66 -3l-32 -1q-16 0 -34 2q-5 0 -19 7q-15 7 -23 5q-4 -5 -15 -14q-8 -6 -10.5 -18t-2.5 -19l-14 -57v-1q0 -1 10 -23q16 -32 50 -37
q36 -4 36 -16q0 -5 -12 -19q-13 -15 -28 -15q-7 0 -22 9q-21 13 -24 14h-93q-15 -11 -31 -11q-9 0 -34 5q-18 3 -28 3q-18 0 -50 -9q-8 -2 -17 5t-9 16q0 4 3 7q14 18 50 23l54 3q21 3 21 13q0 8 -9 17v2q0 6 10 19q11 14 11 19l2 13q-2 16 -2 19q0 6 4 13v1q7 9 16 31
l22 78q1 4 5 12q17 56 17 71q0 12 -3 33v1q0 5 13 16q12 11 14 20l2 10q0 11 8 30l22 77l5 15l37 138q10 34 10 48q0 15 -16 19q-12 2 -53 2q-17 0 -17 15q0 29 29 35q21 -9 82 -9q73 0 120 9q4 1 27 -2.5t34 -5.5l27 4l12 1q9 0 12 -3q5 -5 5 -11q0 -11 -13 -22t-26 -11
q-10 0 -18 8q-3 3 -23 -6t-40 -22.5t-23 -20.5q-1 -3 -1 -9q0 -1 2 -7l2 -6q0 -7 -16 -17l-7 -23q1 3 2.5 5t2.5 -1q4 -19 -12 -39q15 4 45 4q37 0 93 -10q68 -13 90 -14h7q12 0 20 -1q33 -12 45 -28q0 -9 4 -21q16 -14 42 -51q6 -12 6 -40zM346 676q0 -5 7 -5q12 0 12 10
q0 7 -6 10q-13 -4 -13 -15zM639 456q0 36 -10 65t-27 33q-28 0 -68 4q-25 19 -40 19q-8 0 -26 -3h-4q-10 0 -24 6q-15 7 -19 7q-13 0 -23 -34l-6 -19q2 -10 1 -15q-4 -7 -12 -30q1 -11 -5 -39l-12 -15l-14 -47q-3 -21 -3 -35l1 -15q0 -10 -22 -49q-3 -6 -3 -12
q0 -11 0.5 -15.5t0.5 -5.5l-9 -31q6 -6 17 -8l10 -8l8 -1l11 1q15 7 37 11q9 1 37 7q67 21 101 37q19 9 29 30q13 26 20 33q18 14 31 32l21 72q2 12 2 25z" />
    <glyph glyph-name="thorn" unicode="&#xfe;" horiz-adv-x="662" 
d="M474 233q-1 -17 -22 -38t-49.5 -38t-50.5 -23q-19 -4 -50 -3q-40 3 -49 2q-69 -6 -69 -55q0 -5 2 -25l15 1q45 0 45 -23q0 -12 -16 -21.5t-39 -9.5q-25 0 -52 12q-11 0 -50 -11q-41 -11 -57 -11t-24 6.5t-8 16.5q0 15 17 26q15 9 32 11q14 9 20 21t10 23.5t5 15.5l57 182
l21 74q7 23 10 41q2 8 4 14l2 7q0 4 -13 14l-12 15q-11 11 -11 20q0 5 3 11q13 8 54 10q58 2 62 3l37 -3l29 11q2 1 6 1q8 0 14 -6t6 -13q0 -6 -4 -10q-10 -12 -31 -23q-5 -3 -15 -8t-16 -19t-14 -38q14 1 40 1q78 0 109 -14q27 -12 48 -43t21 -61q0 -15 -4 -24
q-5 -13 -13 -19zM403 280q0 30 -25.5 50t-62.5 20q-10 0 -15 -1q-22 -2 -29 -8t-17 -26q-11 -25 -20 -53q-1 -17 -11 -51v-3q0 -4 -3 -10q-5 -8 -5 -11q0 -4 4 -8q25 -22 44 -22q12 0 28 8q22 1 48.5 14.5t43.5 33.5t13 38q7 14 7 29z" />
    <glyph glyph-name="g140" horiz-adv-x="1000" 
 />
    <glyph glyph-name="yacute" unicode="&#xfd;" horiz-adv-x="576" 
d="M406 679q0 -26 -35.5 -62.5t-66.5 -50.5h-3q-11 0 -11 12t18 46.5t25 46.5q5 12 47 41q26 -11 26 -33zM487 430q-29 0 -44.5 -7.5t-33.5 -29.5q-19 -25 -28 -32q-14 -14 -64 -43q-44 -25 -61.5 -49t-16.5 -67q-1 -12 -13 -42q0 -7 -14 -43q-15 -34 -15 -50q0 -14 10 -20
q1 0 26 -7q5 -2 7.5 -12t-1.5 -14q-24 -25 -85 -25q-7 0 -39 2l-34 1q-2 -1 -17 -2t-36 -1q-26 0 -33 4q-5 8 -5 15q0 13 10.5 23.5t24.5 10.5q17 0 29 -17q28 37 53 111.5t25 124.5q0 9 -2 23q-3 15 -27 66t-38 74q-6 10 -23 13q-19 5 -33 18q-5 15 -5 23q0 36 83 36h110
q8 6 15 6q14 0 25 -12.5t11 -27.5q0 -18 -16 -25q-17 0 -27 -6.5t-12 -30.5q-2 -32 -1 -36q8 -13 12 -23t9 -34q3 -13 17 -21q64 56 98 88.5t42 53.5q-16 20 -16 35q0 23 25.5 28t96.5 5q16 10 29 10q27 0 27 -47q0 -22 -3 -32t-10.5 -12.5t-25.5 -2.5h-6z" />
    <glyph glyph-name="exclam" unicode="!" horiz-adv-x="431" 
d="M417 601l-8 -18q-85 -228 -124 -317q-9 -18 -25 -54q-17 -35 -32 -35t-15 20q0 -2 10 58l3 21q3 21 14 42q12 22 16 64l57 225q14 56 23 65l29 11q6 0 19 3l17 2q22 0 22 -34q1 -31 -6 -53zM198 0q-22 -16 -47 -16q-43 0 -43 41q0 30 28.5 55t59.5 25q35 0 35 -37
q0 -13 -4 -28q-7 -24 -29 -40z" />
    <glyph glyph-name="quotedbl" unicode="&#x22;" horiz-adv-x="525" 
d="M507 681.5q-25 -45.5 -55.5 -85.5t-38.5 -42l-3 -4h-3q-12 0 -19 10q-3 3 21 83q17 53 29 94q5 20 23.5 36t36.5 16q34 0 34 -36q0 -26 -25 -71.5zM369 674.5q-25 -45.5 -55.5 -85.5t-38.5 -42l-3 -4h-3q-12 0 -19 10q-3 3 21 83q17 53 29 94q5 20 23 36t37 16
q34 0 34 -36q0 -26 -25 -71.5z" />
    <glyph glyph-name="quotesingle" unicode="'" horiz-adv-x="320" 
d="M148 565q-26 -17 -37 -17q-22 0 -22 27q0 19 13 31.5t30.5 23t25.5 15.5q24 18 24 37q0 14 -13 30q-10 11 -10 38q0 60 41 60q22 0 47.5 -14.5t31.5 -29.5q5 -18 5 -31q0 -79 -136 -170z" />
    <glyph glyph-name="parenleft" unicode="(" horiz-adv-x="475" 
d="M496 791q-133 -88 -230.5 -230t-146.5 -306l-5 -25q-11 -67 -24 -127l-6 -55q-14 -65 -14 -117q0 -37 7.5 -81t21.5 -104l7 -34q18 -9 18 -31q0 -21 -13.5 -38t-30.5 -17q-4 0 -10 2q-37 43 -50 101t-17 172l-3 2l24 243q20 143 85 247q0 1 9.5 19t45.5 89q38 75 65 97
q10 31 54 81.5t96.5 93.5t83.5 52q22 -6 36 -24z" />
    <glyph glyph-name="parenright" unicode=")" horiz-adv-x="425" 
d="M432 553l-24 -243q-20 -143 -85 -247q0 -1 -9.5 -19t-45.5 -89q-40 -78 -65 -97q-10 -31 -54 -82t-96.5 -94t-83.5 -52q-23 6 -36 25l2 10q138 90 239 242q91 135 138 293q14 75 30 153l-3 1q16 71 16 153q0 100 -29 237q-18 9 -18 31q0 20 13.5 37.5t30.5 17.5q3 0 9 -2
q39 -43 51.5 -101t16.5 -173z" />
    <glyph glyph-name="asterisk" unicode="*" horiz-adv-x="522" 
d="M403 605q-22 -11 -43.5 -20t-28.5 -12l-7 -11q12 -29 60 -65q39 -29 34 -58q-8 -5 -21 -5q-45 0 -82 32q-23 20 -37 20q-15 0 -20 -22.5t-6 -48t-2 -33.5q-3 -12 -19 -24t-30 -12q-29 0 -29 51l2 29q1 13 1 27q0 41 -33 41q-15 0 -48 -11q-33 -12 -41 -12q-7 0 -14.5 7.5
t-7.5 14.5q0 15 43 49t43 58q0 5 -1 8q-29 14 -60 41.5t-31 46.5q0 24 26 24q22 0 57 -20q46 -26 62 -26q10 0 15 6.5t10 18.5t8 18q1 22 10 41.5t22 17.5q22 -4 31 -20t12 -50q3 -29 8 -43l1 -14q17 -11 35 -11q33 0 64 33q7 7 19 7q36 0 36 -35q0 -5 -2 -15
q-14 -12 -36 -23z" />
    <glyph glyph-name="comma" unicode="," horiz-adv-x="210" 
d="M178 86q0 -50 -35 -102t-85 -86t-90 -34q-19 0 -29 10q-2 10 -2 15q0 19 15 25q35 14 48.5 21t23.5 16.5t32 36.5q15 18 15 33q0 13 -20 36q-21 23 -21 37q0 15 11.5 32t30.5 28.5t39 11.5q46 0 60 -38q7 -18 7 -42z" />
    <glyph glyph-name="period" unicode="." horiz-adv-x="174" 
d="M152 76l-5 -19q-2 -23 -25.5 -42t-51.5 -22q-5 -1 -15 -1q-47 0 -47 43q0 25 15.5 55.5t39 52.5t44.5 23q45 2 52 -29q2 -7 -7 -61z" />
    <glyph glyph-name="slash" unicode="/" horiz-adv-x="506" 
d="M675 891q-1 -6 -2 -22.5t-8 -32.5t-22 -37l-648 -885q-11 -27 -24 -45.5t-39 -48.5l-19 -9l-23 12l-14 32l13 20q26 20 47 46q276 356 647 885l17 46q7 16 29 27l32 15z" />
    <glyph glyph-name="colon" unicode=":" horiz-adv-x="416" 
d="M417 375q-3 -14 -4 -19q-4 -27 -32.5 -46.5t-59.5 -19.5q-47 0 -47 44q0 25 15.5 56t39 52.5t44.5 21.5q43 3 52 -28q1 -6 -8 -61zM251 76l-5 -19q-2 -23 -25.5 -42t-51.5 -22q-5 -1 -15 -1q-47 0 -47 43q0 25 15.5 55.5t39 52.5t44.5 23q43 1 52 -29q2 -7 -7 -61z" />
    <glyph glyph-name="semicolon" unicode=";" horiz-adv-x="329" 
d="M318 375l-4 -19q-4 -27 -32.5 -46.5t-59.5 -19.5q-47 0 -47 44q0 25 15.5 56t39 52.5t44.5 21.5q43 3 52 -28q2 -10 -8 -61zM237 86q0 -50 -35 -102t-85 -86t-89 -34q-20 0 -30 10q-2 10 -2 15q0 19 16 25q35 14 48 21t23.5 16.5t32.5 36.5q15 18 15 33q0 13 -21 36
t-21 37q0 15 11.5 32t30.5 28.5t39 11.5q46 0 60 -38q7 -18 7 -42z" />
    <glyph glyph-name="question" unicode="?" horiz-adv-x="501" 
d="M483 529q2 -9 -10 -51.5t-19 -49.5q-8 -8 -60 -72q-36 -45 -88 -83q-13 -20 -39 -78q-20 -46 -33 -47q-8 -11 -16 -11q-10 0 -19.5 16t-9.5 27q0 3 1 3l6 -6q-2 4 -2 8q0 9 14 32q13 22 13 30q1 24 33 62l40 38q66 63 94.5 104.5t28.5 79.5q-1 22 -11.5 32.5t-29.5 12.5
q-6 1 -9.5 2t-2.5 2q-34 -29 -54 -29q-17 0 -17 26q0 27 16.5 57.5t43 50.5t53.5 20q30 0 56 -24q6 -6 18.5 -25t13.5 -24v-16q0 -37 -11 -87zM187.5 -3q-19.5 -16 -41.5 -16q-17 0 -26.5 11t-9.5 28q0 29 25 54q25 28 54 28q30 0 30 -35q0 -12 -5 -30q-7 -24 -26.5 -40z
" />
    <glyph glyph-name="bracketleft" unicode="[" horiz-adv-x="468" 
d="M462 892q2 -6 2 -12q0 -40 -84 -47q-67 -6 -69 -11q-203 -652 -297 -1024q-3 -14 35 -14h21q9 1 21 1q40 0 41 -13l-14 -47l-177 4l-7 15q1 7 5 26.5t11 38t18 36.5l278 968q4 16 6 47q2 13 23 37z" />
    <glyph glyph-name="bracketright" unicode="]" horiz-adv-x="564" 
d="M553 902q6 -16 6 -24q0 -7 -8 -21q-10 -15 -16 -39l-278 -969q1 -22 -3.5 -40.5t-10.5 -36t-9 -24.5l-16 -15h-29l-169 -3l14 47q9 13 51 13q15 0 27 -1h25q42 0 47 14q116 359 290 1023q2 5 -58 8q-59 3 -58 9q1 24 2.5 30t10.5 17z" />
    <glyph glyph-name="underscore" unicode="_" horiz-adv-x="1585" 
d="M1594 289q0 -21 -20 -41q-3 -2 -38 -29q-58 -45 -165 -45q-65 0 -148 16q-211 46 -243 46q-70 0 -141 -70q-15 -15 -30 -14q-24 0 -69 39q-30 23 -76 46t-63 20q-14 7 -34 7q-28 0 -80 -20q-67 -27 -78 -29l-82 -22q-54 -15 -82 -16q-16 0 -49 -4l-49 -2q-110 0 -170 104
l11 38q60 -78 153 -78q38 0 80 13q194 57 240 57q10 0 15 -3q7 9 33 9q10 0 55 -5q34 -4 46 -3q45 -2 74.5 -15.5t68.5 -45.5q35 -30 58 -41q26 45 66 64t100 25q43 5 47 11q135 -11 229 -41q98 -32 133 -33q13 -16 37 -16q46 0 113 52q9 6 20 38q7 25 16 25q6 0 15 -9
q7 -13 7 -28z" />
    <glyph glyph-name="braceleft" unicode="{" horiz-adv-x="432" 
d="M431 921q-109 -66 -106 -185v-49q0 -136 -14 -153q2 -4 2 -9q0 -12 -15 -50q-15 -34 -17 -47q-16 -50 -58 -92l-71 -67q41 -27 41 -83q0 -15 -5 -45l-5 -33q0 -6 2 -8q-35 -100 -85 -182q-46 -76 -57 -105q-24 -17 -24 -50q0 -32 19 -69q4 -9 24 -15q19 -7 19 -13
q0 -5 -12 -12t-23 -7q-19 0 -31 19l-12 27q-12 22 -12 55q0 52 18 99t78 168l15 30q46 91 46 123q0 38 -30 78q-6 8 -6 17q0 22 49 62q26 25 55 61t30 49q17 23 17 59q0 20 -4 49q-5 30 -3 44v65q0 41 6 66q4 16 5 23q16 65 27 93t34.5 50t74.5 46z" />
    <glyph glyph-name="bar" unicode="|" horiz-adv-x="384" 
d="M91 -151q1 -22 -3.5 -40.5t-10.5 -36t-9 -24.5l-16 -15h-29l-29 21l5 21q16 24 27 56q128 392 278 968l-3 44q2 17 18 33l27 25l15 3q3 -9 12 -27q4 -9 4 -18t-8 -41z" />
    <glyph glyph-name="braceright" unicode="}" horiz-adv-x="491" 
d="M382 613l-15 -26l-19 -28q-32 -47 -47 -76t-11 -48q-3 -6 -3 -16q0 -48 25 -94q18 -28 18 -46t-20 -33q-44 -34 -63.5 -59t-25.5 -53.5t-11 -88.5q-9 -117 -17 -172t-27 -99t-58 -81q-22 -22 -38 -34t-32 -12q-10 0 -21 6q-4 4 -4 10t23 14q25 7 37 17q70 64 70 101
q0 11 -7 18q6 25 6 50q0 19 -1 36q-2 32 -2 41q0 69 19 160q7 3 20 37q18 47 42 78.5t68 53.5q-5 17 -25 55q-18 32 -18 63q0 19 6 41q4 10 11 56q8 42 20 50q-6 19 102 202q35 59 35 106q0 46 -35 79l33 9q54 -36 54 -89q0 -19 -7.5 -44.5t-16 -48.5t-11.5 -30
q-9 -27 -54 -105z" />
    <glyph glyph-name="quotesinglbase" unicode="&#x201a;" horiz-adv-x="349" 
d="M345 228q0 -50 -35 -102t-85 -86t-90 -34q-18 0 -29 9q-2 12 -2 15q0 20 15 26q35 14 48.5 21t23.5 16.5t32 36.5q15 18 15 33q0 13 -20 36q-21 21 -21 37q0 15 11.5 32t30 28.5t38.5 11.5q47 0 61 -38q7 -18 7 -42z" />
    <glyph glyph-name="quotedblbase" unicode="&#x201e;" horiz-adv-x="550" 
d="M554 226q0 -50 -35 -102t-85 -86t-90 -34q-19 0 -29 10q-2 10 -2 15q0 19 15 25q35 14 48.5 21t24 17t31.5 36q15 18 15 33q0 13 -20 36q-21 23 -21 37q0 15 11.5 32t30 29t38.5 12q48 0 61 -39q7 -18 7 -42zM366 224q0 -49 -35 -101t-85 -86.5t-89 -34.5q-19 0 -29 10
q-2 10 -2 15q0 19 15 25q35 14 48.5 21t24 17t31.5 36q15 18 15 33q0 13 -20 36q-21 22 -21 38q0 15 11.5 32t30 28.5t38.5 11.5q48 0 61 -39q6 -19 6 -42z" />
    <glyph glyph-name="ellipsis" unicode="&#x2026;" horiz-adv-x="609" 
d="M552 83l-6 -20q1 2 1.5 2.5t-0.5 -1.5q-2 -23 -25.5 -42t-51.5 -22q-5 -1 -15 -1q-47 0 -47 44q0 26 16.5 56.5t40.5 52t46 21.5q49 0 49 -42q0 -21 -8 -48zM351 78l-4 -20q-4 -27 -32.5 -46t-59.5 -19q-47 0 -47 44q0 25 15.5 55.5t39 52t44.5 22.5q43 3 52 -29
q1 -5 -8 -60zM152 76l-5 -19q-2 -23 -25.5 -42t-51.5 -22q-5 -1 -15 -1q-47 0 -47 43q0 25 15.5 55.5t39 52.5t44.5 23q45 2 52 -29q2 -7 -7 -61z" />
    <glyph glyph-name="quoteleft" unicode="&#x2018;" horiz-adv-x="254" 
d="M249 579q0 -20 -15 -26q-35 -14 -48.5 -21t-23.5 -16.5t-32 -36.5q-15 -18 -15 -33q0 -14 21 -35q20 -23 20 -38t-11.5 -32t-30.5 -28.5t-39 -11.5q-41 0 -54 23.5t-13 56.5q0 50 35 102t85 86t89 34q19 0 30 -9q2 -12 2 -15z" />
    <glyph glyph-name="quoteright" unicode="&#x2019;" horiz-adv-x="349" 
d="M356 512q0 -50 -35 -101.5t-85 -86t-90 -34.5q-19 0 -29 10q-2 10 -2 15q0 20 15 26q36 14 49 20.5t23.5 16.5t31.5 36q15 18 15 33q0 13 -20 36q-21 23 -21 38t11.5 32t30 28.5t38.5 11.5q47 0 61 -38q7 -20 7 -43z" />
    <glyph glyph-name="quotedblleft" unicode="&#x201c;" horiz-adv-x="452" 
d="M246 592q0 -21 -15 -27q-35 -14 -48.5 -21t-24 -17t-31.5 -36q-15 -18 -15 -33q0 -13 21 -36q20 -23 20 -37q0 -15 -11.5 -32t-30 -28.5t-38.5 -11.5q-41 0 -54 23.5t-13 56.5q0 50 35 102t85 86t89 34q20 0 30 -9q1 -5 1 -14zM446 580q0 -21 -15 -27q-35 -14 -48.5 -21
t-24 -17t-31.5 -36q-15 -18 -15 -33q0 -14 21 -35q20 -23 20 -38t-11.5 -32t-30 -28.5t-38.5 -11.5q-41 0 -54 23.5t-13 56.5q0 50 35 102t85 86t89 34q19 0 30 -9q1 -5 1 -14z" />
    <glyph glyph-name="quotedblright" unicode="&#x201d;" horiz-adv-x="550" 
d="M543 514q0 -50 -35 -101.5t-85 -86t-90 -34.5q-19 0 -29 10q-2 10 -2 15q0 19 15 25q35 14 48.5 21t23.5 16.5t32 36.5q15 18 15 33q0 13 -20 36q-21 23 -21 38t11.5 32t30.5 28.5t39 11.5q47 0 60 -39q7 -18 7 -42zM356 512q0 -50 -35 -101.5t-85 -86t-90 -34.5
q-19 0 -29 10q-2 10 -2 15q0 20 15 26q36 14 49 20.5t23.5 16.5t31.5 36q15 18 15 33q0 13 -20 36q-21 23 -21 38t11.5 32t30 28.5t38.5 11.5q47 0 61 -38q7 -20 7 -43z" />
    <glyph glyph-name="bullet" unicode="&#x2022;" horiz-adv-x="316" 
d="M109 123q-42 0 -73 34t-31 81q0 22 6 41q14 28 43 46t50 18q48 0 79 -32t31 -77q0 -58 -49 -92q-26 -19 -56 -19z" />
    <glyph glyph-name="endash" unicode="&#x2013;" horiz-adv-x="625" 
d="M575 280q-2 -4 -7.5 -20.5t-14.5 -25t-21 -8.5h-473q-15 -15 -25 -15l-24 6l-8 20v47l10 57l11 3q10 -16 12.5 -18t14.5 -2h473q3 0 12 13t13 13q6 0 11.5 -12t13.5 -35z" />
    <glyph glyph-name="emdash" unicode="&#x2014;" horiz-adv-x="1328" 
d="M1206 269l-36 -42q-14 -11 -51 -11h-980q-29 -16 -51 -16l-51 7l-15 19v47l20 57l22 3q21 -16 26.5 -18t29.5 -2h980q6 0 25 14q16 13 27 13q13 0 28 -19l23 -28z" />
    <glyph glyph-name="guillemotleft" unicode="&#xab;" horiz-adv-x="583" 
d="M191 334q-96 -61 -96 -94q0 -21 50 -66q34 -24 52 -40t18 -32q0 -11 -11.5 -22t-22.5 -11t-26 18q-16 17 -24 19q-76 60 -97 81q-32 32 -32 54q0 28 54 68l167 115q17 13 33 13q25 0 25 -27q0 -13 -7 -27q-4 -8 -83 -49zM436 346l-44 -24q-95 -62 -95 -93q0 -23 49 -66
q14 -11 42 -31q28 -22 28 -41q0 -11 -11 -22.5t-23 -11.5q-11 0 -26 18q-16 17 -24 19q-76 63 -96 81q-33 31 -33 54q0 27 54 69q112 76 167 115q20 12 33 12q25 0 25 -27q0 -12 -6 -26q-3 -7 -40 -26z" />
    <glyph glyph-name="periodcentered" unicode="&#xb7;" horiz-adv-x="287" 
d="M75 174q-27 0 -44.5 22.5t-17.5 52.5t22 47.5t51 17.5t49.5 -17t20.5 -47t-18 -53t-42 -20q-11 -3 -21 -3z" />
    <glyph glyph-name="guillemotright" unicode="&#xbb;" horiz-adv-x="602" 
d="M575 324q32 -41 32 -62q0 -28 -49 -62q-29 -20 -163 -94q-10 -2 -34 -19q-25 -18 -37 -18q-19 0 -19 20q0 17 26 34.5t70 40.5l19 10q53 33 69 46q24 20 24 39q0 25 -47 75q-17 13 -36.5 28.5t-18.5 20.5q3 23 17.5 38.5t30.5 15.5t26 -13zM367 312q33 -39 33 -62
q0 -27 -50 -62q-29 -20 -163 -94q-10 -2 -34 -19q-26 -18 -37 -18q-18 0 -18 21t45 48q41 21 81.5 44.5t56.5 37.5q24 21 24 40q0 25 -47 74l-31 24q-23 17 -23 34q0 13 17 30q13 15 31 15q15 0 25 -12z" />
    <glyph glyph-name="questiondown" unicode="&#xbf;" horiz-adv-x="501" 
d="M382.5 649q-12.5 -19 -31 -30.5t-35.5 -11.5q-29 0 -29 34q0 18 6.5 37.5t24.5 33.5q20 15 41 15q36 0 36 -39q0 -20 -12.5 -39zM312 524q0 -9 -14 -32t-14 -31q0 -19 -17 -41t-34 -38.5t-21 -20.5q-66 -63 -94.5 -104t-28.5 -79q0 -22 10.5 -32.5t30.5 -13.5
q5 -1 8.5 -2t2.5 -2q35 29 54 29q18 0 18 -26q0 -27 -17 -57t-43.5 -50t-53.5 -20q-29 0 -55 24q-6 6 -18.5 25.5t-12.5 24.5q-2 4 -2 15q0 37 11 86q-1 10 11 52.5t18 48.5q7 7 60 72q36 45 88 84q15 20 40 77q20 46 33 47q8 11 16 11q10 0 19.5 -15.5t9.5 -26.5
q0 -3 -1 -3q-3 0 -6 5q2 -4 2 -7z" />
    <glyph glyph-name="exclamdown" unicode="&#xa1;" horiz-adv-x="431" 
d="M317.5 632.5q-13.5 -18.5 -34.5 -30.5t-40 -12q-35 0 -35 38q0 14 4 27q7 25 29 41t47 16q43 0 43 -41q0 -20 -13.5 -38.5zM199 378q-12 -22 -16 -64l-57 -225q-13 -55 -23 -66l-29 -10l-18 -2l-18 -3q-12 0 -17.5 12t-5.5 30q0 24 7 45q2 4 3.5 8t4.5 9q81 221 124 317
l25 55q17 35 32 35t15 -20l-13 -79q-5 -25 -14 -42z" />
    <glyph glyph-name="Abreve" unicode="&#x102;" horiz-adv-x="808" 
d="M716.5 46q6.5 -7 6.5 -15q0 -15 -23 -21q-54 -16 -98 -16q-22 0 -58 6t-58 6q-8 0 -28 -2h-7q-18 0 -18 15q0 17 11 21.5t40 4.5q13 0 21 2.5t13 10.5q6 8 6 20q0 15 -7 33q2 10 2 22l-1 21q-5 18 -4 42q1 12 2 21t1 15q0 10 -5 14t-20 6q-26 5 -35 8q-7 0 -22 -4
q-18 -5 -24 -5l-134 -4q-6 2 -9 2q-15 0 -27.5 -18t-15.5 -38q-60 -63 -90 -117q-29 -26 -29 -36t34 -13q33 -3 33 -15q0 -9 -10.5 -18.5t-20.5 -9.5q-3 0 -7 2q-9 6 -43 6q-23 0 -42 -1t-42 -1q-47 0 -47 12q0 5 3 9q7 9 32 13q36 7 57.5 20.5t38.5 48.5q17 15 29 28
q9 19 31 56l83 107q17 28 23 36l23 24q39 51 86 118q3 6 14.5 28.5t23 39t22.5 25.5q18 14 29 33l21 37q29 35 59 76l27 55q23 41 37 41q18 0 18 -37q0 -13 -1 -21q-1 -14 4 -58q7 -41 7 -61q0 -25 -7 -40q3 -13 4.5 -43t1.5 -42q-4 -11 -5 -26q2 -7 6 -13q4 -7 4 -14
q-1 -18 3 -43l5 -41q-2 -7 -8 -41l5 -95q0 -3 7 -10q6 -6 6 -12q0 -4 -5 -17q-4 -12 -3 -18l14 -70q13 -39 48 -41q6 -1 12.5 -8zM509 573q-8 11 -18 9q-19 -3 -33 -24t-35 -61q-70 -92 -83 -125q-38 -42 -42 -52l-1 -4q0 -8 18 -8l45 3l67 3q12 5 33 9l20 -1l21 1
q14 14 14 25q0 4 -9 29q-2 4 -4 42t-2 70q0 20 1 21l13 43q3 9 -5 20zM558 556q0 -7 7 -7q5 0 9 4t4 10q0 9 -9 7q-11 -5 -11 -14zM535 42q0 -8 9 -7q10 7 10 17q0 8 -8 10q-11 -8 -11 -20zM678 862q-40 -24 -77 -24q-38 0 -61 24t-23 64q0 20 6 39q1 8 9 13q14 8 23 17
q30 -6 30 -14l-2 -9l-3 -12q-1 -4 -1 -11q0 -21 13 -33.5t34 -12.5q28 0 54 21t38 58q13 9 31 9q22 0 19 -12q-16 -73 -90 -117z" />
    <glyph glyph-name="uni1EAE" unicode="&#x1eae;" horiz-adv-x="808" 
d="M716.5 46q6.5 -7 6.5 -15q0 -15 -23 -21q-54 -16 -98 -16q-22 0 -58 6t-58 6q-8 0 -28 -2h-7q-18 0 -18 15q0 17 11 21.5t40 4.5q13 0 21 2.5t13 10.5q6 8 6 20q0 15 -7 33q2 10 2 22l-1 21q-5 18 -4 42q1 12 2 21t1 15q0 10 -5 14t-20 6q-26 5 -35 8q-7 0 -22 -4
q-18 -5 -24 -5l-134 -4q-6 2 -9 2q-15 0 -27.5 -18t-15.5 -38q-60 -63 -90 -117q-29 -26 -29 -36t34 -13q33 -3 33 -15q0 -9 -10.5 -18.5t-20.5 -9.5q-3 0 -7 2q-9 6 -43 6q-23 0 -42 -1t-42 -1q-47 0 -47 12q0 5 3 9q7 9 32 13q36 7 57.5 20.5t38.5 48.5q17 15 29 28
q9 19 31 56l83 107q17 28 23 36l23 24q39 51 86 118q3 6 14.5 28.5t23 39t22.5 25.5q18 14 29 33l21 37q29 35 59 76l27 55q23 41 37 41q18 0 18 -37q0 -13 -1 -21q-1 -14 4 -58q7 -41 7 -61q0 -25 -7 -40q3 -13 4.5 -43t1.5 -42q-4 -11 -5 -26q2 -7 6 -13q4 -7 4 -14
q-1 -18 3 -43l5 -41q-2 -7 -8 -41l5 -95q0 -3 7 -10q6 -6 6 -12q0 -4 -5 -17q-4 -12 -3 -18l14 -70q13 -39 48 -41q6 -1 12.5 -8zM509 573q-8 11 -18 9q-19 -3 -33 -24t-35 -61q-70 -92 -83 -125q-38 -42 -42 -52l-1 -4q0 -8 18 -8l45 3l67 3q12 5 33 9l20 -1l21 1
q14 14 14 25q0 4 -9 29q-2 4 -4 42t-2 70q0 20 1 21l13 43q3 9 -5 20zM558 556q0 -7 7 -7q5 0 9 4t4 10q0 9 -9 7q-11 -5 -11 -14zM535 42q0 -8 9 -7q10 7 10 17q0 8 -8 10q-11 -8 -11 -20zM678 862q-40 -24 -77 -24q-38 0 -61 24t-23 64q0 20 6 39q1 8 9 13q14 8 23 17
q30 -6 30 -14l-2 -9l-3 -12q-1 -4 -1 -11q0 -21 13 -33.5t34 -12.5q28 0 54 21t38 58q13 9 31 9q22 0 19 -12q-16 -73 -90 -117zM741 1150q0 -26 -35.5 -62.5t-66.5 -50.5h-3q-11 0 -11 12t18 46.5t25 46.5q5 12 47 41q26 -11 26 -33z" />
    <glyph glyph-name="uni1EB6" unicode="&#x1eb6;" horiz-adv-x="808" 
d="M716.5 46q6.5 -7 6.5 -15q0 -15 -23 -21q-54 -16 -98 -16q-22 0 -58 6t-58 6q-8 0 -28 -2h-7q-18 0 -18 15q0 17 11 21.5t40 4.5q13 0 21 2.5t13 10.5q6 8 6 20q0 15 -7 33q2 10 2 22l-1 21q-5 18 -4 42q1 12 2 21t1 15q0 10 -5 14t-20 6q-26 5 -35 8q-7 0 -22 -4
q-18 -5 -24 -5l-134 -4q-6 2 -9 2q-15 0 -27.5 -18t-15.5 -38q-60 -63 -90 -117q-29 -26 -29 -36t34 -13q33 -3 33 -15q0 -9 -10.5 -18.5t-20.5 -9.5q-3 0 -7 2q-9 6 -43 6q-23 0 -42 -1t-42 -1q-47 0 -47 12q0 5 3 9q7 9 32 13q36 7 57.5 20.5t38.5 48.5q17 15 29 28
q9 19 31 56l83 107q17 28 23 36l23 24q39 51 86 118q3 6 14.5 28.5t23 39t22.5 25.5q18 14 29 33l21 37q29 35 59 76l27 55q23 41 37 41q18 0 18 -37q0 -13 -1 -21q-1 -14 4 -58q7 -41 7 -61q0 -25 -7 -40q3 -13 4.5 -43t1.5 -42q-4 -11 -5 -26q2 -7 6 -13q4 -7 4 -14
q-1 -18 3 -43l5 -41q-2 -7 -8 -41l5 -95q0 -3 7 -10q6 -6 6 -12q0 -4 -5 -17q-4 -12 -3 -18l14 -70q13 -39 48 -41q6 -1 12.5 -8zM509 573q-8 11 -18 9q-19 -3 -33 -24t-35 -61q-70 -92 -83 -125q-38 -42 -42 -52l-1 -4q0 -8 18 -8l45 3l67 3q12 5 33 9l20 -1l21 1
q14 14 14 25q0 4 -9 29q-2 4 -4 42t-2 70q0 20 1 21l13 43q3 9 -5 20zM558 556q0 -7 7 -7q5 0 9 4t4 10q0 9 -9 7q-11 -5 -11 -14zM535 42q0 -8 9 -7q10 7 10 17q0 8 -8 10q-11 -8 -11 -20zM381 -97q0 -17 -11 -36t-27.5 -30.5t-30.5 -8.5q-7 -3 -19 -3q-36 0 -36 41
q0 29 20.5 51.5t51.5 22.5q52 0 52 -37zM678 862q-40 -24 -77 -24q-38 0 -61 24t-23 64q0 20 6 39q1 8 9 13q14 8 23 17q30 -6 30 -14l-2 -9l-3 -12q-1 -4 -1 -11q0 -21 13 -33.5t34 -12.5q28 0 54 21t38 58q13 9 31 9q22 0 19 -12q-16 -73 -90 -117z" />
    <glyph glyph-name="uni1EB0" unicode="&#x1eb0;" horiz-adv-x="808" 
d="M716.5 46q6.5 -7 6.5 -15q0 -15 -23 -21q-54 -16 -98 -16q-22 0 -58 6t-58 6q-8 0 -28 -2h-7q-18 0 -18 15q0 17 11 21.5t40 4.5q13 0 21 2.5t13 10.5q6 8 6 20q0 15 -7 33q2 10 2 22l-1 21q-5 18 -4 42q1 12 2 21t1 15q0 10 -5 14t-20 6q-26 5 -35 8q-7 0 -22 -4
q-18 -5 -24 -5l-134 -4q-6 2 -9 2q-15 0 -27.5 -18t-15.5 -38q-60 -63 -90 -117q-29 -26 -29 -36t34 -13q33 -3 33 -15q0 -9 -10.5 -18.5t-20.5 -9.5q-3 0 -7 2q-9 6 -43 6q-23 0 -42 -1t-42 -1q-47 0 -47 12q0 5 3 9q7 9 32 13q36 7 57.5 20.5t38.5 48.5q17 15 29 28
q9 19 31 56l83 107q17 28 23 36l23 24q39 51 86 118q3 6 14.5 28.5t23 39t22.5 25.5q18 14 29 33l21 37q29 35 59 76l27 55q23 41 37 41q18 0 18 -37q0 -13 -1 -21q-1 -14 4 -58q7 -41 7 -61q0 -25 -7 -40q3 -13 4.5 -43t1.5 -42q-4 -11 -5 -26q2 -7 6 -13q4 -7 4 -14
q-1 -18 3 -43l5 -41q-2 -7 -8 -41l5 -95q0 -3 7 -10q6 -6 6 -12q0 -4 -5 -17q-4 -12 -3 -18l14 -70q13 -39 48 -41q6 -1 12.5 -8zM509 573q-8 11 -18 9q-19 -3 -33 -24t-35 -61q-70 -92 -83 -125q-38 -42 -42 -52l-1 -4q0 -8 18 -8l45 3l67 3q12 5 33 9l20 -1l21 1
q14 14 14 25q0 4 -9 29q-2 4 -4 42t-2 70q0 20 1 21l13 43q3 9 -5 20zM558 556q0 -7 7 -7q5 0 9 4t4 10q0 9 -9 7q-11 -5 -11 -14zM535 42q0 -8 9 -7q10 7 10 17q0 8 -8 10q-11 -8 -11 -20zM678 862q-40 -24 -77 -24q-38 0 -61 24t-23 64q0 20 6 39q1 8 9 13q14 8 23 17
q30 -6 30 -14l-2 -9l-3 -12q-1 -4 -1 -11q0 -21 13 -33.5t34 -12.5q28 0 54 21t38 58q13 9 31 9q22 0 19 -12q-16 -73 -90 -117zM660.5 1085q-35.5 36 -35.5 63q0 21 26 33q5 -4 19.5 -14t20 -15.5t7.5 -11.5q7 -12 25.5 -47t18.5 -47t-15 -11q-31 14 -66.5 50z" />
    <glyph glyph-name="uni1EB2" unicode="&#x1eb2;" horiz-adv-x="808" 
d="M716.5 46q6.5 -7 6.5 -15q0 -15 -23 -21q-54 -16 -98 -16q-22 0 -58 6t-58 6q-8 0 -28 -2h-7q-18 0 -18 15q0 17 11 21.5t40 4.5q13 0 21 2.5t13 10.5q6 8 6 20q0 15 -7 33q2 10 2 22l-1 21q-5 18 -4 42q1 12 2 21t1 15q0 10 -5 14t-20 6q-26 5 -35 8q-7 0 -22 -4
q-18 -5 -24 -5l-134 -4q-6 2 -9 2q-15 0 -27.5 -18t-15.5 -38q-60 -63 -90 -117q-29 -26 -29 -36t34 -13q33 -3 33 -15q0 -9 -10.5 -18.5t-20.5 -9.5q-3 0 -7 2q-9 6 -43 6q-23 0 -42 -1t-42 -1q-47 0 -47 12q0 5 3 9q7 9 32 13q36 7 57.5 20.5t38.5 48.5q17 15 29 28
q9 19 31 56l83 107q17 28 23 36l23 24q39 51 86 118q3 6 14.5 28.5t23 39t22.5 25.5q18 14 29 33l21 37q29 35 59 76l27 55q23 41 37 41q18 0 18 -37q0 -13 -1 -21q-1 -14 4 -58q7 -41 7 -61q0 -25 -7 -40q3 -13 4.5 -43t1.5 -42q-4 -11 -5 -26q2 -7 6 -13q4 -7 4 -14
q-1 -18 3 -43l5 -41q-2 -7 -8 -41l5 -95q0 -3 7 -10q6 -6 6 -12q0 -4 -5 -17q-4 -12 -3 -18l14 -70q13 -39 48 -41q6 -1 12.5 -8zM509 573q-8 11 -18 9q-19 -3 -33 -24t-35 -61q-70 -92 -83 -125q-38 -42 -42 -52l-1 -4q0 -8 18 -8l45 3l67 3q12 5 33 9l20 -1l21 1
q14 14 14 25q0 4 -9 29q-2 4 -4 42t-2 70q0 20 1 21l13 43q3 9 -5 20zM558 556q0 -7 7 -7q5 0 9 4t4 10q0 9 -9 7q-11 -5 -11 -14zM535 42q0 -8 9 -7q10 7 10 17q0 8 -8 10q-11 -8 -11 -20zM678 862q-40 -24 -77 -24q-38 0 -61 24t-23 64q0 20 6 39q1 8 9 13q14 8 23 17
q30 -6 30 -14l-2 -9l-3 -12q-1 -4 -1 -11q0 -21 13 -33.5t34 -12.5q28 0 54 21t38 58q13 9 31 9q22 0 19 -12q-16 -73 -90 -117zM861 996q41 30 45 43q2 9 -3 14.5t-21 10.5q-15 3 -15 13q0 12 22 23t31 8q38 -15 38 -52q0 -52 -53 -105q-16 -15 -21 -35q-1 -5 -1 -18
q0 -9 0.5 -18t-0.5 -16q-2 -8 -7 -15q-15 -4 -30 -4q-8 0 -11 3.5t-5.5 10t-5.5 12.5q-13 22 -13 45q0 11 6 29q3 21 44 51z" />
    <glyph glyph-name="uni1EB4" unicode="&#x1eb4;" horiz-adv-x="808" 
d="M716.5 46q6.5 -7 6.5 -15q0 -15 -23 -21q-54 -16 -98 -16q-22 0 -58 6t-58 6q-8 0 -28 -2h-7q-18 0 -18 15q0 17 11 21.5t40 4.5q13 0 21 2.5t13 10.5q6 8 6 20q0 15 -7 33q2 10 2 22l-1 21q-5 18 -4 42q1 12 2 21t1 15q0 10 -5 14t-20 6q-26 5 -35 8q-7 0 -22 -4
q-18 -5 -24 -5l-134 -4q-6 2 -9 2q-15 0 -27.5 -18t-15.5 -38q-60 -63 -90 -117q-29 -26 -29 -36t34 -13q33 -3 33 -15q0 -9 -10.5 -18.5t-20.5 -9.5q-3 0 -7 2q-9 6 -43 6q-23 0 -42 -1t-42 -1q-47 0 -47 12q0 5 3 9q7 9 32 13q36 7 57.5 20.5t38.5 48.5q17 15 29 28
q9 19 31 56l83 107q17 28 23 36l23 24q39 51 86 118q3 6 14.5 28.5t23 39t22.5 25.5q18 14 29 33l21 37q29 35 59 76l27 55q23 41 37 41q18 0 18 -37q0 -13 -1 -21q-1 -14 4 -58q7 -41 7 -61q0 -25 -7 -40q3 -13 4.5 -43t1.5 -42q-4 -11 -5 -26q2 -7 6 -13q4 -7 4 -14
q-1 -18 3 -43l5 -41q-2 -7 -8 -41l5 -95q0 -3 7 -10q6 -6 6 -12q0 -4 -5 -17q-4 -12 -3 -18l14 -70q13 -39 48 -41q6 -1 12.5 -8zM509 573q-8 11 -18 9q-19 -3 -33 -24t-35 -61q-70 -92 -83 -125q-38 -42 -42 -52l-1 -4q0 -8 18 -8l45 3l67 3q12 5 33 9l20 -1l21 1
q14 14 14 25q0 4 -9 29q-2 4 -4 42t-2 70q0 20 1 21l13 43q3 9 -5 20zM558 556q0 -7 7 -7q5 0 9 4t4 10q0 9 -9 7q-11 -5 -11 -14zM535 42q0 -8 9 -7q10 7 10 17q0 8 -8 10q-11 -8 -11 -20zM678 862q-40 -24 -77 -24q-38 0 -61 24t-23 64q0 20 6 39q1 8 9 13q14 8 23 17
q30 -6 30 -14l-2 -9l-3 -12q-1 -4 -1 -11q0 -21 13 -33.5t34 -12.5q28 0 54 21t38 58q13 9 31 9q22 0 19 -12q-16 -73 -90 -117zM882 1018q-15 0 -44 23q-32 25 -57 25q-15 0 -24 -9q-5 -16 -13 -29q-30 -30 -100 -30q-60 0 -104.5 24t-46.5 62q8 6 18 6q13 0 46 -15
q25 -12 46 -12q23 0 37 20q3 2 6 15q3 14 7 15q22 27 76 27q40 0 79 -14t64 -38t25 -51q0 -8 -3 -16q-6 -3 -12 -3z" />
    <glyph glyph-name="uni1EA4" unicode="&#x1ea4;" horiz-adv-x="808" 
d="M716.5 46q6.5 -7 6.5 -15q0 -15 -23 -21q-54 -16 -98 -16q-22 0 -58 6t-58 6q-8 0 -28 -2h-7q-18 0 -18 15q0 17 11 21.5t40 4.5q13 0 21 2.5t13 10.5q6 8 6 20q0 15 -7 33q2 10 2 22l-1 21q-5 18 -4 42q1 12 2 21t1 15q0 10 -5 14t-20 6q-26 5 -35 8q-7 0 -22 -4
q-18 -5 -24 -5l-134 -4q-6 2 -9 2q-15 0 -27.5 -18t-15.5 -38q-60 -63 -90 -117q-29 -26 -29 -36t34 -13q33 -3 33 -15q0 -9 -10.5 -18.5t-20.5 -9.5q-3 0 -7 2q-9 6 -43 6q-23 0 -42 -1t-42 -1q-47 0 -47 12q0 5 3 9q7 9 32 13q36 7 57.5 20.5t38.5 48.5q17 15 29 28
q9 19 31 56l83 107q17 28 23 36l23 24q39 51 86 118q3 6 14.5 28.5t23 39t22.5 25.5q18 14 29 33l21 37q29 35 59 76l27 55q23 41 37 41q18 0 18 -37q0 -13 -1 -21q-1 -14 4 -58q7 -41 7 -61q0 -25 -7 -40q3 -13 4.5 -43t1.5 -42q-4 -11 -5 -26q2 -7 6 -13q4 -7 4 -14
q-1 -18 3 -43l5 -41q-2 -7 -8 -41l5 -95q0 -3 7 -10q6 -6 6 -12q0 -4 -5 -17q-4 -12 -3 -18l14 -70q13 -39 48 -41q6 -1 12.5 -8zM509 573q-8 11 -18 9q-19 -3 -33 -24t-35 -61q-70 -92 -83 -125q-38 -42 -42 -52l-1 -4q0 -8 18 -8l45 3l67 3q12 5 33 9l20 -1l21 1
q14 14 14 25q0 4 -9 29q-2 4 -4 42t-2 70q0 20 1 21l13 43q3 9 -5 20zM558 556q0 -7 7 -7q5 0 9 4t4 10q0 9 -9 7q-11 -5 -11 -14zM535 42q0 -8 9 -7q10 7 10 17q0 8 -8 10q-11 -8 -11 -20zM724 837q-14 8 -19 28.5t-6 42.5t-2 29q-5 17 -12 17q-10 0 -57 -56t-75 -56
q-16 0 -16 11q0 10 14 28.5t30 36.5t21 24q41 55 59.5 77t39.5 40l20 -5q2 -12 22 -79q18 -63 18 -96q0 -27 -10 -38zM682 1111q0 -26 -35.5 -62.5t-66.5 -50.5h-3q-11 0 -11 12t18 46.5t25 46.5q5 12 47 41q26 -11 26 -33z" />
    <glyph glyph-name="uni1EAC" unicode="&#x1eac;" horiz-adv-x="808" 
d="M716.5 46q6.5 -7 6.5 -15q0 -15 -23 -21q-54 -16 -98 -16q-22 0 -58 6t-58 6q-8 0 -28 -2h-7q-18 0 -18 15q0 17 11 21.5t40 4.5q13 0 21 2.5t13 10.5q6 8 6 20q0 15 -7 33q2 10 2 22l-1 21q-5 18 -4 42q1 12 2 21t1 15q0 10 -5 14t-20 6q-26 5 -35 8q-7 0 -22 -4
q-18 -5 -24 -5l-134 -4q-6 2 -9 2q-15 0 -27.5 -18t-15.5 -38q-60 -63 -90 -117q-29 -26 -29 -36t34 -13q33 -3 33 -15q0 -9 -10.5 -18.5t-20.5 -9.5q-3 0 -7 2q-9 6 -43 6q-23 0 -42 -1t-42 -1q-47 0 -47 12q0 5 3 9q7 9 32 13q36 7 57.5 20.5t38.5 48.5q17 15 29 28
q9 19 31 56l83 107q17 28 23 36l23 24q39 51 86 118q3 6 14.5 28.5t23 39t22.5 25.5q18 14 29 33l21 37q29 35 59 76l27 55q23 41 37 41q18 0 18 -37q0 -13 -1 -21q-1 -14 4 -58q7 -41 7 -61q0 -25 -7 -40q3 -13 4.5 -43t1.5 -42q-4 -11 -5 -26q2 -7 6 -13q4 -7 4 -14
q-1 -18 3 -43l5 -41q-2 -7 -8 -41l5 -95q0 -3 7 -10q6 -6 6 -12q0 -4 -5 -17q-4 -12 -3 -18l14 -70q13 -39 48 -41q6 -1 12.5 -8zM509 573q-8 11 -18 9q-19 -3 -33 -24t-35 -61q-70 -92 -83 -125q-38 -42 -42 -52l-1 -4q0 -8 18 -8l45 3l67 3q12 5 33 9l20 -1l21 1
q14 14 14 25q0 4 -9 29q-2 4 -4 42t-2 70q0 20 1 21l13 43q3 9 -5 20zM558 556q0 -7 7 -7q5 0 9 4t4 10q0 9 -9 7q-11 -5 -11 -14zM535 42q0 -8 9 -7q10 7 10 17q0 8 -8 10q-11 -8 -11 -20zM381 -97q0 -17 -11 -36t-27.5 -30.5t-30.5 -8.5q-7 -3 -19 -3q-36 0 -36 41
q0 29 20.5 51.5t51.5 22.5q52 0 52 -37zM724 837q-14 8 -19 28.5t-6 42.5t-2 29q-5 17 -12 17q-10 0 -57 -56t-75 -56q-16 0 -16 11q0 10 14 28.5t30 36.5t21 24q41 55 59.5 77t39.5 40l20 -5q2 -12 22 -79q18 -63 18 -96q0 -27 -10 -38z" />
    <glyph glyph-name="uni1EA6" unicode="&#x1ea6;" horiz-adv-x="808" 
d="M716.5 46q6.5 -7 6.5 -15q0 -15 -23 -21q-54 -16 -98 -16q-22 0 -58 6t-58 6q-8 0 -28 -2h-7q-18 0 -18 15q0 17 11 21.5t40 4.5q13 0 21 2.5t13 10.5q6 8 6 20q0 15 -7 33q2 10 2 22l-1 21q-5 18 -4 42q1 12 2 21t1 15q0 10 -5 14t-20 6q-26 5 -35 8q-7 0 -22 -4
q-18 -5 -24 -5l-134 -4q-6 2 -9 2q-15 0 -27.5 -18t-15.5 -38q-60 -63 -90 -117q-29 -26 -29 -36t34 -13q33 -3 33 -15q0 -9 -10.5 -18.5t-20.5 -9.5q-3 0 -7 2q-9 6 -43 6q-23 0 -42 -1t-42 -1q-47 0 -47 12q0 5 3 9q7 9 32 13q36 7 57.5 20.5t38.5 48.5q17 15 29 28
q9 19 31 56l83 107q17 28 23 36l23 24q39 51 86 118q3 6 14.5 28.5t23 39t22.5 25.5q18 14 29 33l21 37q29 35 59 76l27 55q23 41 37 41q18 0 18 -37q0 -13 -1 -21q-1 -14 4 -58q7 -41 7 -61q0 -25 -7 -40q3 -13 4.5 -43t1.5 -42q-4 -11 -5 -26q2 -7 6 -13q4 -7 4 -14
q-1 -18 3 -43l5 -41q-2 -7 -8 -41l5 -95q0 -3 7 -10q6 -6 6 -12q0 -4 -5 -17q-4 -12 -3 -18l14 -70q13 -39 48 -41q6 -1 12.5 -8zM509 573q-8 11 -18 9q-19 -3 -33 -24t-35 -61q-70 -92 -83 -125q-38 -42 -42 -52l-1 -4q0 -8 18 -8l45 3l67 3q12 5 33 9l20 -1l21 1
q14 14 14 25q0 4 -9 29q-2 4 -4 42t-2 70q0 20 1 21l13 43q3 9 -5 20zM558 556q0 -7 7 -7q5 0 9 4t4 10q0 9 -9 7q-11 -5 -11 -14zM535 42q0 -8 9 -7q10 7 10 17q0 8 -8 10q-11 -8 -11 -20zM724 837q-14 8 -19 28.5t-6 42.5t-2 29q-5 17 -12 17q-10 0 -57 -56t-75 -56
q-16 0 -16 11q0 10 14 28.5t30 36.5t21 24q41 55 59.5 77t39.5 40l20 -5q2 -12 22 -79q18 -63 18 -96q0 -27 -10 -38zM743.5 1068q-35.5 36 -35.5 63q0 21 26 33q5 -4 19.5 -14t20 -15.5t7.5 -11.5q7 -12 25.5 -47t18.5 -47t-15 -11q-31 14 -66.5 50z" />
    <glyph glyph-name="uni1EA8" unicode="&#x1ea8;" horiz-adv-x="808" 
d="M716.5 46q6.5 -7 6.5 -15q0 -15 -23 -21q-54 -16 -98 -16q-22 0 -58 6t-58 6q-8 0 -28 -2h-7q-18 0 -18 15q0 17 11 21.5t40 4.5q13 0 21 2.5t13 10.5q6 8 6 20q0 15 -7 33q2 10 2 22l-1 21q-5 18 -4 42q1 12 2 21t1 15q0 10 -5 14t-20 6q-26 5 -35 8q-7 0 -22 -4
q-18 -5 -24 -5l-134 -4q-6 2 -9 2q-15 0 -27.5 -18t-15.5 -38q-60 -63 -90 -117q-29 -26 -29 -36t34 -13q33 -3 33 -15q0 -9 -10.5 -18.5t-20.5 -9.5q-3 0 -7 2q-9 6 -43 6q-23 0 -42 -1t-42 -1q-47 0 -47 12q0 5 3 9q7 9 32 13q36 7 57.5 20.5t38.5 48.5q17 15 29 28
q9 19 31 56l83 107q17 28 23 36l23 24q39 51 86 118q3 6 14.5 28.5t23 39t22.5 25.5q18 14 29 33l21 37q29 35 59 76l27 55q23 41 37 41q18 0 18 -37q0 -13 -1 -21q-1 -14 4 -58q7 -41 7 -61q0 -25 -7 -40q3 -13 4.5 -43t1.5 -42q-4 -11 -5 -26q2 -7 6 -13q4 -7 4 -14
q-1 -18 3 -43l5 -41q-2 -7 -8 -41l5 -95q0 -3 7 -10q6 -6 6 -12q0 -4 -5 -17q-4 -12 -3 -18l14 -70q13 -39 48 -41q6 -1 12.5 -8zM509 573q-8 11 -18 9q-19 -3 -33 -24t-35 -61q-70 -92 -83 -125q-38 -42 -42 -52l-1 -4q0 -8 18 -8l45 3l67 3q12 5 33 9l20 -1l21 1
q14 14 14 25q0 4 -9 29q-2 4 -4 42t-2 70q0 20 1 21l13 43q3 9 -5 20zM558 556q0 -7 7 -7q5 0 9 4t4 10q0 9 -9 7q-11 -5 -11 -14zM535 42q0 -8 9 -7q10 7 10 17q0 8 -8 10q-11 -8 -11 -20zM724 837q-14 8 -19 28.5t-6 42.5t-2 29q-5 17 -12 17q-10 0 -57 -56t-75 -56
q-16 0 -16 11q0 10 14 28.5t30 36.5t21 24q41 55 59.5 77t39.5 40l20 -5q2 -12 22 -79q18 -63 18 -96q0 -27 -10 -38zM864 1019q41 30 45 43q2 9 -3 14.5t-21 10.5q-15 3 -15 13q0 12 22 23t31 8q38 -15 38 -52q0 -52 -53 -105q-16 -15 -21 -35q-1 -5 -1 -18q0 -9 0.5 -18
t-0.5 -16q-2 -8 -7 -15q-15 -4 -30 -4q-8 0 -11 3.5t-5.5 10t-5.5 12.5q-13 22 -13 45q0 11 6 29q3 21 44 51z" />
    <glyph glyph-name="uni1EAA" unicode="&#x1eaa;" horiz-adv-x="808" 
d="M716.5 46q6.5 -7 6.5 -15q0 -15 -23 -21q-54 -16 -98 -16q-22 0 -58 6t-58 6q-8 0 -28 -2h-7q-18 0 -18 15q0 17 11 21.5t40 4.5q13 0 21 2.5t13 10.5q6 8 6 20q0 15 -7 33q2 10 2 22l-1 21q-5 18 -4 42q1 12 2 21t1 15q0 10 -5 14t-20 6q-26 5 -35 8q-7 0 -22 -4
q-18 -5 -24 -5l-134 -4q-6 2 -9 2q-15 0 -27.5 -18t-15.5 -38q-60 -63 -90 -117q-29 -26 -29 -36t34 -13q33 -3 33 -15q0 -9 -10.5 -18.5t-20.5 -9.5q-3 0 -7 2q-9 6 -43 6q-23 0 -42 -1t-42 -1q-47 0 -47 12q0 5 3 9q7 9 32 13q36 7 57.5 20.5t38.5 48.5q17 15 29 28
q9 19 31 56l83 107q17 28 23 36l23 24q39 51 86 118q3 6 14.5 28.5t23 39t22.5 25.5q18 14 29 33l21 37q29 35 59 76l27 55q23 41 37 41q18 0 18 -37q0 -13 -1 -21q-1 -14 4 -58q7 -41 7 -61q0 -25 -7 -40q3 -13 4.5 -43t1.5 -42q-4 -11 -5 -26q2 -7 6 -13q4 -7 4 -14
q-1 -18 3 -43l5 -41q-2 -7 -8 -41l5 -95q0 -3 7 -10q6 -6 6 -12q0 -4 -5 -17q-4 -12 -3 -18l14 -70q13 -39 48 -41q6 -1 12.5 -8zM509 573q-8 11 -18 9q-19 -3 -33 -24t-35 -61q-70 -92 -83 -125q-38 -42 -42 -52l-1 -4q0 -8 18 -8l45 3l67 3q12 5 33 9l20 -1l21 1
q14 14 14 25q0 4 -9 29q-2 4 -4 42t-2 70q0 20 1 21l13 43q3 9 -5 20zM558 556q0 -7 7 -7q5 0 9 4t4 10q0 9 -9 7q-11 -5 -11 -14zM535 42q0 -8 9 -7q10 7 10 17q0 8 -8 10q-11 -8 -11 -20zM724 837q-14 8 -19 28.5t-6 42.5t-2 29q-5 17 -12 17q-10 0 -57 -56t-75 -56
q-16 0 -16 11q0 10 14 28.5t30 36.5t21 24q41 55 59.5 77t39.5 40l20 -5q2 -12 22 -79q18 -63 18 -96q0 -27 -10 -38zM872 1077q-15 0 -44 23q-32 25 -57 25q-15 0 -24 -9q-5 -16 -13 -29q-30 -30 -100 -30q-60 0 -104.5 24t-46.5 62q8 6 18 6q13 0 46 -15q25 -12 46 -12
q23 0 37 20q3 2 6 15q3 14 7 15q22 27 76 27q40 0 79 -14t64 -38t25 -51q0 -8 -3 -16q-6 -3 -12 -3z" />
    <glyph glyph-name="uni1EA0" unicode="&#x1ea0;" horiz-adv-x="808" 
d="M716.5 46q6.5 -7 6.5 -15q0 -15 -23 -21q-54 -16 -98 -16q-22 0 -58 6t-58 6q-8 0 -28 -2h-7q-18 0 -18 15q0 17 11 21.5t40 4.5q13 0 21 2.5t13 10.5q6 8 6 20q0 15 -7 33q2 10 2 22l-1 21q-5 18 -4 42q1 12 2 21t1 15q0 10 -5 14t-20 6q-26 5 -35 8q-7 0 -22 -4
q-18 -5 -24 -5l-134 -4q-6 2 -9 2q-15 0 -27.5 -18t-15.5 -38q-60 -63 -90 -117q-29 -26 -29 -36t34 -13q33 -3 33 -15q0 -9 -10.5 -18.5t-20.5 -9.5q-3 0 -7 2q-9 6 -43 6q-23 0 -42 -1t-42 -1q-47 0 -47 12q0 5 3 9q7 9 32 13q36 7 57.5 20.5t38.5 48.5q17 15 29 28
q9 19 31 56l83 107q17 28 23 36l23 24q39 51 86 118q3 6 14.5 28.5t23 39t22.5 25.5q18 14 29 33l21 37q29 35 59 76l27 55q23 41 37 41q18 0 18 -37q0 -13 -1 -21q-1 -14 4 -58q7 -41 7 -61q0 -25 -7 -40q3 -13 4.5 -43t1.5 -42q-4 -11 -5 -26q2 -7 6 -13q4 -7 4 -14
q-1 -18 3 -43l5 -41q-2 -7 -8 -41l5 -95q0 -3 7 -10q6 -6 6 -12q0 -4 -5 -17q-4 -12 -3 -18l14 -70q13 -39 48 -41q6 -1 12.5 -8zM509 573q-8 11 -18 9q-19 -3 -33 -24t-35 -61q-70 -92 -83 -125q-38 -42 -42 -52l-1 -4q0 -8 18 -8l45 3l67 3q12 5 33 9l20 -1l21 1
q14 14 14 25q0 4 -9 29q-2 4 -4 42t-2 70q0 20 1 21l13 43q3 9 -5 20zM558 556q0 -7 7 -7q5 0 9 4t4 10q0 9 -9 7q-11 -5 -11 -14zM535 42q0 -8 9 -7q10 7 10 17q0 8 -8 10q-11 -8 -11 -20zM381 -97q0 -17 -11 -36t-27.5 -30.5t-30.5 -8.5q-7 -3 -19 -3q-36 0 -36 41
q0 29 20.5 51.5t51.5 22.5q52 0 52 -37z" />
    <glyph glyph-name="uni1EA2" unicode="&#x1ea2;" horiz-adv-x="808" 
d="M716.5 46q6.5 -7 6.5 -15q0 -15 -23 -21q-54 -16 -98 -16q-22 0 -58 6t-58 6q-8 0 -28 -2h-7q-18 0 -18 15q0 17 11 21.5t40 4.5q13 0 21 2.5t13 10.5q6 8 6 20q0 15 -7 33q2 10 2 22l-1 21q-5 18 -4 42q1 12 2 21t1 15q0 10 -5 14t-20 6q-26 5 -35 8q-7 0 -22 -4
q-18 -5 -24 -5l-134 -4q-6 2 -9 2q-15 0 -27.5 -18t-15.5 -38q-60 -63 -90 -117q-29 -26 -29 -36t34 -13q33 -3 33 -15q0 -9 -10.5 -18.5t-20.5 -9.5q-3 0 -7 2q-9 6 -43 6q-23 0 -42 -1t-42 -1q-47 0 -47 12q0 5 3 9q7 9 32 13q36 7 57.5 20.5t38.5 48.5q17 15 29 28
q9 19 31 56l83 107q17 28 23 36l23 24q39 51 86 118q3 6 14.5 28.5t23 39t22.5 25.5q18 14 29 33l21 37q29 35 59 76l27 55q23 41 37 41q18 0 18 -37q0 -13 -1 -21q-1 -14 4 -58q7 -41 7 -61q0 -25 -7 -40q3 -13 4.5 -43t1.5 -42q-4 -11 -5 -26q2 -7 6 -13q4 -7 4 -14
q-1 -18 3 -43l5 -41q-2 -7 -8 -41l5 -95q0 -3 7 -10q6 -6 6 -12q0 -4 -5 -17q-4 -12 -3 -18l14 -70q13 -39 48 -41q6 -1 12.5 -8zM509 573q-8 11 -18 9q-19 -3 -33 -24t-35 -61q-70 -92 -83 -125q-38 -42 -42 -52l-1 -4q0 -8 18 -8l45 3l67 3q12 5 33 9l20 -1l21 1
q14 14 14 25q0 4 -9 29q-2 4 -4 42t-2 70q0 20 1 21l13 43q3 9 -5 20zM558 556q0 -7 7 -7q5 0 9 4t4 10q0 9 -9 7q-11 -5 -11 -14zM535 42q0 -8 9 -7q10 7 10 17q0 8 -8 10q-11 -8 -11 -20zM667 1020q41 30 45 43q2 9 -3 14.5t-21 10.5q-15 3 -15 13q0 12 22 23t31 8
q38 -15 38 -52q0 -52 -53 -105q-16 -15 -21 -35q-1 -5 -1 -18q0 -9 0.5 -18t-0.5 -16q-2 -8 -7 -15q-15 -4 -30 -4q-8 0 -11 3.5t-5.5 10t-5.5 12.5q-13 22 -13 45q0 11 6 29q3 21 44 51z" />
    <glyph glyph-name="Dcroat" unicode="&#x110;" horiz-adv-x="959" 
d="M913 320q-36 -46 -65 -89q-43 -45 -121 -117q-23 -41 -142 -77h-5q-11 0 -19 -1q-28 -10 -87 -27l-51 -8q-31 -6 -50 -6q-57 0 -100 13q-2 1 -5 1q-10 0 -25 -6q-21 -9 -29 -9q-7 0 -12 3q-26 14 -46 14l-21 -1q-22 -2 -29 -2q-17 -11 -26 -11l-23 -1q-10 -1 -25 -1
q-50 0 -50 22q0 16 25 44q2 3 10.5 13.5t16.5 17t15 8.5h1q6 0 26 -13q20 -16 33 -16q16 0 27 23q4 21 5 24q4 4 17 26q1 23 12 73l53 184h-63q-38 0 -38 30q0 21 17 46q30 0 53 1l54 2l8 29q-1 2 -1 7q0 11 18 20q23 12 27 18q4 4 4 13q0 15 -17 20l-4 15q24 86 24 96
q0 20 -16 27q-15 7 -58 7q-8 -3 -14 -3q-19 0 -19 24q0 31 29 39l130 -3q34 -8 50 -8t34 7q20 6 39 6q173 0 193 -1q31 -2 68 -15q42 -16 63 -23q8 -3 25 -15q14 -13 26 -16l26 -31l14 -16q29 -32 29 -43q0 -5 -1 -9t-1 -7q0 -11 15 -28q15 -16 15 -42q0 -31 4 -78zM803 469
q2 6 2 10q0 6 -5 24q-4 18 -4 22l1 24q0 60 -30.5 105.5t-80.5 55.5q-8 2 -15 11q-7 8 -14 10l-21 -1l-28 1q-8 2 -24 12q-17 10 -27 10q-4 0 -6 -1q-15 -6 -42 -6q-29 -1 -42 -10t-21 -39q-28 -121 -55 -218h45q36 0 36 -31q0 -19 -13 -38.5t-25 -18.5l-66 9
q-34 -115 -72 -226q-2 -5 -11 -17q-11 -14 -10 -18q0 -3 3 -9q3 -7 3 -11q0 -7 -4 -19t-4 -19t3 -10q17 -19 45 -23l55 -2q7 -2 16 -7q11 -6 14 -6q2 0 6 2q18 9 35 13q29 6 40 9.5t33 17.5l38 23q20 7 59 29q37 30 79 72q8 9 12 27q5 17 9 24q16 13 36 44zM868 534
q0 16 -12 16q-7 0 -13.5 -5.5t-6.5 -12.5q0 -18 11 -18l8 2q13 6 13 18zM299 400q-9 -4 -9 -9q0 -6 13 -6q22 0 20 15h-24zM191 122l6 2q4 4 4 9q0 6 -4 11q-10 -12 -6 -22z" />
    <glyph glyph-name="uni1EBE" unicode="&#x1ebe;" horiz-adv-x="846" 
d="M832 741q-6 -13 -11 -43q-6 -36 -11.5 -47t-24.5 -11q-6 0 -10 4q-3 2 -11 29q-8 29 -11 33q-16 25 -72 25l-148 2l-43 1q-10 0 -13 -2t-3.5 -7t-1.5 -7q-1 -5 -4.5 -25t-8.5 -35t-12 -23q-17 -20 -17 -30l3 -12q1 -3 2.5 -8.5t1.5 -9.5q0 -12 -14 -26q-19 -19 -20 -25
q1 -6 1 -28q-11 -53 -11 -49q0 -13 7 -23q8 1 39 -1l41 -1q45 0 81.5 18t36.5 49q0 25 25 25l24 -5q6 2 14 2q6 0 8 -2l2 -10q-10 -5 -16.5 -12.5t-9.5 -26.5l-14 -43l-18 -71q1 -4 1 -11q0 -29 -30 -29q-15 0 -26.5 9t-11.5 22q0 7 3 14q1 34 -80 34q-28 0 -48 -1l-40 -2
q-9 -4 -14 -21q-1 -3 -2 -11.5t-16 -52.5q-13 -38 -13 -42q1 -13 -10 -36q-11 -21 -13 -37q4 -8 2 -29l-16 -23q-16 -43 -16 -62q0 -16 12 -21q10 2 14 2q10 0 22 -5l10 -5l42 -1q34 20 64 23q6 1 17 -4t13 -6q10 -2 15 -2q16 0 33 7l4 1q5 0 11 -3l15 -4q10 -2 15 -2
q38 0 73 17.5t35 42.5q18 17 20 30q2 21 6 28q8 14 50 14q26 0 26 -8q0 -6 -11 -19t-21 -24q-5 -26 -17 -78q-14 -45 -51 -64q-6 -3 -22 6t-21 13h-2l-13 -2l-16 -3q-14 -2 -49 -2q-45 0 -84 3q-19 -10 -29 -10t-23 10l-66 1q-21 -12 -32 -12q-4 0 -16 5q-19 6 -23 7h-3
l-10 -2l-11 -3h-6q-5 0 -15 2q-15 6 -48 4q-10 -1 -26 -1t-21 2h-2q-3 0 -11 -3l-13 -6q-1 -1 -4 -1q-6 0 -10 4q-10 6 -15 5l-28 -10h-40q-7 4 -7 18t8.5 27t19.5 13q6 0 30 -10q8 -4 27 5t34 26.5t15 39.5l15 20l32 126l8 16q5 11 5 19q0 38 33 144q17 21 23 43l47 183
q7 28 7 42q0 30 -43 39q-14 -9 -28 -9q-30 0 -30 28q0 23 27 33h3q8 0 17 -4q16 -7 25 -7l12 2q11 3 18 1q22 -5 37 -5q20 0 56 10q19 -15 71 -15q55 0 94 13h1q3 0 11 -5q8 -7 12 -7q3 -1 9 -1q14 0 30 6q20 7 27 7h56q7 0 20 4q12 4 20 4q12 -5 33 -8l23 9q17 6 25 6
q15 0 15 -10q0 -14 -27 -56zM390 650q0 8 -3.5 12.5t-8.5 4.5q-6 0 -10.5 -5t-4.5 -13q0 -18 17 -16q10 4 10 17zM368 549q0 6 -3.5 9t-9.5 3t-12 -4.5t-6 -10.5q0 -15 17 -10q14 5 14 13zM644 837q-14 8 -19 28.5t-6 42.5t-2 29q-5 17 -12 17q-10 0 -57 -56t-75 -56
q-16 0 -16 11q0 10 14 28.5t30 36.5t21 24q41 55 59.5 77t39.5 40l20 -5q2 -12 22 -79q18 -63 18 -96q0 -27 -10 -38zM602 1111q0 -26 -35.5 -62.5t-66.5 -50.5h-3q-11 0 -11 12t18 46.5t25 46.5q5 12 47 41q26 -11 26 -33z" />
    <glyph glyph-name="uni1EC6" unicode="&#x1ec6;" horiz-adv-x="846" 
d="M832 741q-6 -13 -11 -43q-6 -36 -11.5 -47t-24.5 -11q-6 0 -10 4q-3 2 -11 29q-8 29 -11 33q-16 25 -72 25l-148 2l-43 1q-10 0 -13 -2t-3.5 -7t-1.5 -7q-1 -5 -4.5 -25t-8.5 -35t-12 -23q-17 -20 -17 -30l3 -12q1 -3 2.5 -8.5t1.5 -9.5q0 -12 -14 -26q-19 -19 -20 -25
q1 -6 1 -28q-11 -53 -11 -49q0 -13 7 -23q8 1 39 -1l41 -1q45 0 81.5 18t36.5 49q0 25 25 25l24 -5q6 2 14 2q6 0 8 -2l2 -10q-10 -5 -16.5 -12.5t-9.5 -26.5l-14 -43l-18 -71q1 -4 1 -11q0 -29 -30 -29q-15 0 -26.5 9t-11.5 22q0 7 3 14q1 34 -80 34q-28 0 -48 -1l-40 -2
q-9 -4 -14 -21q-1 -3 -2 -11.5t-16 -52.5q-13 -38 -13 -42q1 -13 -10 -36q-11 -21 -13 -37q4 -8 2 -29l-16 -23q-16 -43 -16 -62q0 -16 12 -21q10 2 14 2q10 0 22 -5l10 -5l42 -1q34 20 64 23q6 1 17 -4t13 -6q10 -2 15 -2q16 0 33 7l4 1q5 0 11 -3l15 -4q10 -2 15 -2
q38 0 73 17.5t35 42.5q18 17 20 30q2 21 6 28q8 14 50 14q26 0 26 -8q0 -6 -11 -19t-21 -24q-5 -26 -17 -78q-14 -45 -51 -64q-6 -3 -22 6t-21 13h-2l-13 -2l-16 -3q-14 -2 -49 -2q-45 0 -84 3q-19 -10 -29 -10t-23 10l-66 1q-21 -12 -32 -12q-4 0 -16 5q-19 6 -23 7h-3
l-10 -2l-11 -3h-6q-5 0 -15 2q-15 6 -48 4q-10 -1 -26 -1t-21 2h-2q-3 0 -11 -3l-13 -6q-1 -1 -4 -1q-6 0 -10 4q-10 6 -15 5l-28 -10h-40q-7 4 -7 18t8.5 27t19.5 13q6 0 30 -10q8 -4 27 5t34 26.5t15 39.5l15 20l32 126l8 16q5 11 5 19q0 38 33 144q17 21 23 43l47 183
q7 28 7 42q0 30 -43 39q-14 -9 -28 -9q-30 0 -30 28q0 23 27 33h3q8 0 17 -4q16 -7 25 -7l12 2q11 3 18 1q22 -5 37 -5q20 0 56 10q19 -15 71 -15q55 0 94 13h1q3 0 11 -5q8 -7 12 -7q3 -1 9 -1q14 0 30 6q20 7 27 7h56q7 0 20 4q12 4 20 4q12 -5 33 -8l23 9q17 6 25 6
q15 0 15 -10q0 -14 -27 -56zM390 650q0 8 -3.5 12.5t-8.5 4.5q-6 0 -10.5 -5t-4.5 -13q0 -18 17 -16q10 4 10 17zM368 549q0 6 -3.5 9t-9.5 3t-12 -4.5t-6 -10.5q0 -15 17 -10q14 5 14 13zM400 -97q0 -17 -11 -36t-27.5 -30.5t-30.5 -8.5q-7 -3 -19 -3q-36 0 -36 41
q0 29 20.5 51.5t51.5 22.5q52 0 52 -37zM644 837q-14 8 -19 28.5t-6 42.5t-2 29q-5 17 -12 17q-10 0 -57 -56t-75 -56q-16 0 -16 11q0 10 14 28.5t30 36.5t21 24q41 55 59.5 77t39.5 40l20 -5q2 -12 22 -79q18 -63 18 -96q0 -27 -10 -38z" />
    <glyph glyph-name="uni1EC0" unicode="&#x1ec0;" horiz-adv-x="846" 
d="M832 741q-6 -13 -11 -43q-6 -36 -11.5 -47t-24.5 -11q-6 0 -10 4q-3 2 -11 29q-8 29 -11 33q-16 25 -72 25l-148 2l-43 1q-10 0 -13 -2t-3.5 -7t-1.5 -7q-1 -5 -4.5 -25t-8.5 -35t-12 -23q-17 -20 -17 -30l3 -12q1 -3 2.5 -8.5t1.5 -9.5q0 -12 -14 -26q-19 -19 -20 -25
q1 -6 1 -28q-11 -53 -11 -49q0 -13 7 -23q8 1 39 -1l41 -1q45 0 81.5 18t36.5 49q0 25 25 25l24 -5q6 2 14 2q6 0 8 -2l2 -10q-10 -5 -16.5 -12.5t-9.5 -26.5l-14 -43l-18 -71q1 -4 1 -11q0 -29 -30 -29q-15 0 -26.5 9t-11.5 22q0 7 3 14q1 34 -80 34q-28 0 -48 -1l-40 -2
q-9 -4 -14 -21q-1 -3 -2 -11.5t-16 -52.5q-13 -38 -13 -42q1 -13 -10 -36q-11 -21 -13 -37q4 -8 2 -29l-16 -23q-16 -43 -16 -62q0 -16 12 -21q10 2 14 2q10 0 22 -5l10 -5l42 -1q34 20 64 23q6 1 17 -4t13 -6q10 -2 15 -2q16 0 33 7l4 1q5 0 11 -3l15 -4q10 -2 15 -2
q38 0 73 17.5t35 42.5q18 17 20 30q2 21 6 28q8 14 50 14q26 0 26 -8q0 -6 -11 -19t-21 -24q-5 -26 -17 -78q-14 -45 -51 -64q-6 -3 -22 6t-21 13h-2l-13 -2l-16 -3q-14 -2 -49 -2q-45 0 -84 3q-19 -10 -29 -10t-23 10l-66 1q-21 -12 -32 -12q-4 0 -16 5q-19 6 -23 7h-3
l-10 -2l-11 -3h-6q-5 0 -15 2q-15 6 -48 4q-10 -1 -26 -1t-21 2h-2q-3 0 -11 -3l-13 -6q-1 -1 -4 -1q-6 0 -10 4q-10 6 -15 5l-28 -10h-40q-7 4 -7 18t8.5 27t19.5 13q6 0 30 -10q8 -4 27 5t34 26.5t15 39.5l15 20l32 126l8 16q5 11 5 19q0 38 33 144q17 21 23 43l47 183
q7 28 7 42q0 30 -43 39q-14 -9 -28 -9q-30 0 -30 28q0 23 27 33h3q8 0 17 -4q16 -7 25 -7l12 2q11 3 18 1q22 -5 37 -5q20 0 56 10q19 -15 71 -15q55 0 94 13h1q3 0 11 -5q8 -7 12 -7q3 -1 9 -1q14 0 30 6q20 7 27 7h56q7 0 20 4q12 4 20 4q12 -5 33 -8l23 9q17 6 25 6
q15 0 15 -10q0 -14 -27 -56zM390 650q0 8 -3.5 12.5t-8.5 4.5q-6 0 -10.5 -5t-4.5 -13q0 -18 17 -16q10 4 10 17zM368 549q0 6 -3.5 9t-9.5 3t-12 -4.5t-6 -10.5q0 -15 17 -10q14 5 14 13zM644 837q-14 8 -19 28.5t-6 42.5t-2 29q-5 17 -12 17q-10 0 -57 -56t-75 -56
q-16 0 -16 11q0 10 14 28.5t30 36.5t21 24q41 55 59.5 77t39.5 40l20 -5q2 -12 22 -79q18 -63 18 -96q0 -27 -10 -38zM663.5 1068q-35.5 36 -35.5 63q0 21 26 33q5 -4 19.5 -14t20 -15.5t7.5 -11.5q7 -12 25.5 -47t18.5 -47t-15 -11q-31 14 -66.5 50z" />
    <glyph glyph-name="uni1EC2" unicode="&#x1ec2;" horiz-adv-x="846" 
d="M832 741q-6 -13 -11 -43q-6 -36 -11.5 -47t-24.5 -11q-6 0 -10 4q-3 2 -11 29q-8 29 -11 33q-16 25 -72 25l-148 2l-43 1q-10 0 -13 -2t-3.5 -7t-1.5 -7q-1 -5 -4.5 -25t-8.5 -35t-12 -23q-17 -20 -17 -30l3 -12q1 -3 2.5 -8.5t1.5 -9.5q0 -12 -14 -26q-19 -19 -20 -25
q1 -6 1 -28q-11 -53 -11 -49q0 -13 7 -23q8 1 39 -1l41 -1q45 0 81.5 18t36.5 49q0 25 25 25l24 -5q6 2 14 2q6 0 8 -2l2 -10q-10 -5 -16.5 -12.5t-9.5 -26.5l-14 -43l-18 -71q1 -4 1 -11q0 -29 -30 -29q-15 0 -26.5 9t-11.5 22q0 7 3 14q1 34 -80 34q-28 0 -48 -1l-40 -2
q-9 -4 -14 -21q-1 -3 -2 -11.5t-16 -52.5q-13 -38 -13 -42q1 -13 -10 -36q-11 -21 -13 -37q4 -8 2 -29l-16 -23q-16 -43 -16 -62q0 -16 12 -21q10 2 14 2q10 0 22 -5l10 -5l42 -1q34 20 64 23q6 1 17 -4t13 -6q10 -2 15 -2q16 0 33 7l4 1q5 0 11 -3l15 -4q10 -2 15 -2
q38 0 73 17.5t35 42.5q18 17 20 30q2 21 6 28q8 14 50 14q26 0 26 -8q0 -6 -11 -19t-21 -24q-5 -26 -17 -78q-14 -45 -51 -64q-6 -3 -22 6t-21 13h-2l-13 -2l-16 -3q-14 -2 -49 -2q-45 0 -84 3q-19 -10 -29 -10t-23 10l-66 1q-21 -12 -32 -12q-4 0 -16 5q-19 6 -23 7h-3
l-10 -2l-11 -3h-6q-5 0 -15 2q-15 6 -48 4q-10 -1 -26 -1t-21 2h-2q-3 0 -11 -3l-13 -6q-1 -1 -4 -1q-6 0 -10 4q-10 6 -15 5l-28 -10h-40q-7 4 -7 18t8.5 27t19.5 13q6 0 30 -10q8 -4 27 5t34 26.5t15 39.5l15 20l32 126l8 16q5 11 5 19q0 38 33 144q17 21 23 43l47 183
q7 28 7 42q0 30 -43 39q-14 -9 -28 -9q-30 0 -30 28q0 23 27 33h3q8 0 17 -4q16 -7 25 -7l12 2q11 3 18 1q22 -5 37 -5q20 0 56 10q19 -15 71 -15q55 0 94 13h1q3 0 11 -5q8 -7 12 -7q3 -1 9 -1q14 0 30 6q20 7 27 7h56q7 0 20 4q12 4 20 4q12 -5 33 -8l23 9q17 6 25 6
q15 0 15 -10q0 -14 -27 -56zM390 650q0 8 -3.5 12.5t-8.5 4.5q-6 0 -10.5 -5t-4.5 -13q0 -18 17 -16q10 4 10 17zM368 549q0 6 -3.5 9t-9.5 3t-12 -4.5t-6 -10.5q0 -15 17 -10q14 5 14 13zM644 837q-14 8 -19 28.5t-6 42.5t-2 29q-5 17 -12 17q-10 0 -57 -56t-75 -56
q-16 0 -16 11q0 10 14 28.5t30 36.5t21 24q41 55 59.5 77t39.5 40l20 -5q2 -12 22 -79q18 -63 18 -96q0 -27 -10 -38zM784 1019q41 30 45 43q2 9 -3 14.5t-21 10.5q-15 3 -15 13q0 12 22 23t31 8q38 -15 38 -52q0 -52 -53 -105q-16 -15 -21 -35q-1 -5 -1 -18q0 -9 0.5 -18
t-0.5 -16q-2 -8 -7 -15q-15 -4 -30 -4q-8 0 -11 3.5t-5.5 10t-5.5 12.5q-13 22 -13 45q0 11 6 29q3 21 44 51z" />
    <glyph glyph-name="uni1EC4" unicode="&#x1ec4;" horiz-adv-x="846" 
d="M832 741q-6 -13 -11 -43q-6 -36 -11.5 -47t-24.5 -11q-6 0 -10 4q-3 2 -11 29q-8 29 -11 33q-16 25 -72 25l-148 2l-43 1q-10 0 -13 -2t-3.5 -7t-1.5 -7q-1 -5 -4.5 -25t-8.5 -35t-12 -23q-17 -20 -17 -30l3 -12q1 -3 2.5 -8.5t1.5 -9.5q0 -12 -14 -26q-19 -19 -20 -25
q1 -6 1 -28q-11 -53 -11 -49q0 -13 7 -23q8 1 39 -1l41 -1q45 0 81.5 18t36.5 49q0 25 25 25l24 -5q6 2 14 2q6 0 8 -2l2 -10q-10 -5 -16.5 -12.5t-9.5 -26.5l-14 -43l-18 -71q1 -4 1 -11q0 -29 -30 -29q-15 0 -26.5 9t-11.5 22q0 7 3 14q1 34 -80 34q-28 0 -48 -1l-40 -2
q-9 -4 -14 -21q-1 -3 -2 -11.5t-16 -52.5q-13 -38 -13 -42q1 -13 -10 -36q-11 -21 -13 -37q4 -8 2 -29l-16 -23q-16 -43 -16 -62q0 -16 12 -21q10 2 14 2q10 0 22 -5l10 -5l42 -1q34 20 64 23q6 1 17 -4t13 -6q10 -2 15 -2q16 0 33 7l4 1q5 0 11 -3l15 -4q10 -2 15 -2
q38 0 73 17.5t35 42.5q18 17 20 30q2 21 6 28q8 14 50 14q26 0 26 -8q0 -6 -11 -19t-21 -24q-5 -26 -17 -78q-14 -45 -51 -64q-6 -3 -22 6t-21 13h-2l-13 -2l-16 -3q-14 -2 -49 -2q-45 0 -84 3q-19 -10 -29 -10t-23 10l-66 1q-21 -12 -32 -12q-4 0 -16 5q-19 6 -23 7h-3
l-10 -2l-11 -3h-6q-5 0 -15 2q-15 6 -48 4q-10 -1 -26 -1t-21 2h-2q-3 0 -11 -3l-13 -6q-1 -1 -4 -1q-6 0 -10 4q-10 6 -15 5l-28 -10h-40q-7 4 -7 18t8.5 27t19.5 13q6 0 30 -10q8 -4 27 5t34 26.5t15 39.5l15 20l32 126l8 16q5 11 5 19q0 38 33 144q17 21 23 43l47 183
q7 28 7 42q0 30 -43 39q-14 -9 -28 -9q-30 0 -30 28q0 23 27 33h3q8 0 17 -4q16 -7 25 -7l12 2q11 3 18 1q22 -5 37 -5q20 0 56 10q19 -15 71 -15q55 0 94 13h1q3 0 11 -5q8 -7 12 -7q3 -1 9 -1q14 0 30 6q20 7 27 7h56q7 0 20 4q12 4 20 4q12 -5 33 -8l23 9q17 6 25 6
q15 0 15 -10q0 -14 -27 -56zM390 650q0 8 -3.5 12.5t-8.5 4.5q-6 0 -10.5 -5t-4.5 -13q0 -18 17 -16q10 4 10 17zM368 549q0 6 -3.5 9t-9.5 3t-12 -4.5t-6 -10.5q0 -15 17 -10q14 5 14 13zM644 837q-14 8 -19 28.5t-6 42.5t-2 29q-5 17 -12 17q-10 0 -57 -56t-75 -56
q-16 0 -16 11q0 10 14 28.5t30 36.5t21 24q41 55 59.5 77t39.5 40l20 -5q2 -12 22 -79q18 -63 18 -96q0 -27 -10 -38zM792 1077q-15 0 -44 23q-32 25 -57 25q-15 0 -24 -9q-5 -16 -13 -29q-30 -30 -100 -30q-60 0 -104.5 24t-46.5 62q8 6 18 6q13 0 46 -15q25 -12 46 -12
q23 0 37 20q3 2 6 15q3 14 7 15q22 27 76 27q40 0 79 -14t64 -38t25 -51q0 -8 -3 -16q-6 -3 -12 -3z" />
    <glyph glyph-name="uni1EB8" unicode="&#x1eb8;" horiz-adv-x="846" 
d="M832 741q-6 -13 -11 -43q-6 -36 -11.5 -47t-24.5 -11q-6 0 -10 4q-3 2 -11 29q-8 29 -11 33q-16 25 -72 25l-148 2l-43 1q-10 0 -13 -2t-3.5 -7t-1.5 -7q-1 -5 -4.5 -25t-8.5 -35t-12 -23q-17 -20 -17 -30l3 -12q1 -3 2.5 -8.5t1.5 -9.5q0 -12 -14 -26q-19 -19 -20 -25
q1 -6 1 -28q-11 -53 -11 -49q0 -13 7 -23q8 1 39 -1l41 -1q45 0 81.5 18t36.5 49q0 25 25 25l24 -5q6 2 14 2q6 0 8 -2l2 -10q-10 -5 -16.5 -12.5t-9.5 -26.5l-14 -43l-18 -71q1 -4 1 -11q0 -29 -30 -29q-15 0 -26.5 9t-11.5 22q0 7 3 14q1 34 -80 34q-28 0 -48 -1l-40 -2
q-9 -4 -14 -21q-1 -3 -2 -11.5t-16 -52.5q-13 -38 -13 -42q1 -13 -10 -36q-11 -21 -13 -37q4 -8 2 -29l-16 -23q-16 -43 -16 -62q0 -16 12 -21q10 2 14 2q10 0 22 -5l10 -5l42 -1q34 20 64 23q6 1 17 -4t13 -6q10 -2 15 -2q16 0 33 7l4 1q5 0 11 -3l15 -4q10 -2 15 -2
q38 0 73 17.5t35 42.5q18 17 20 30q2 21 6 28q8 14 50 14q26 0 26 -8q0 -6 -11 -19t-21 -24q-5 -26 -17 -78q-14 -45 -51 -64q-6 -3 -22 6t-21 13h-2l-13 -2l-16 -3q-14 -2 -49 -2q-45 0 -84 3q-19 -10 -29 -10t-23 10l-66 1q-21 -12 -32 -12q-4 0 -16 5q-19 6 -23 7h-3
l-10 -2l-11 -3h-6q-5 0 -15 2q-15 6 -48 4q-10 -1 -26 -1t-21 2h-2q-3 0 -11 -3l-13 -6q-1 -1 -4 -1q-6 0 -10 4q-10 6 -15 5l-28 -10h-40q-7 4 -7 18t8.5 27t19.5 13q6 0 30 -10q8 -4 27 5t34 26.5t15 39.5l15 20l32 126l8 16q5 11 5 19q0 38 33 144q17 21 23 43l47 183
q7 28 7 42q0 30 -43 39q-14 -9 -28 -9q-30 0 -30 28q0 23 27 33h3q8 0 17 -4q16 -7 25 -7l12 2q11 3 18 1q22 -5 37 -5q20 0 56 10q19 -15 71 -15q55 0 94 13h1q3 0 11 -5q8 -7 12 -7q3 -1 9 -1q14 0 30 6q20 7 27 7h56q7 0 20 4q12 4 20 4q12 -5 33 -8l23 9q17 6 25 6
q15 0 15 -10q0 -14 -27 -56zM390 650q0 8 -3.5 12.5t-8.5 4.5q-6 0 -10.5 -5t-4.5 -13q0 -18 17 -16q10 4 10 17zM368 549q0 6 -3.5 9t-9.5 3t-12 -4.5t-6 -10.5q0 -15 17 -10q14 5 14 13zM400 -97q0 -17 -11 -36t-27.5 -30.5t-30.5 -8.5q-7 -3 -19 -3q-36 0 -36 41
q0 29 20.5 51.5t51.5 22.5q52 0 52 -37z" />
    <glyph glyph-name="uni1EBA" unicode="&#x1eba;" horiz-adv-x="846" 
d="M832 741q-6 -13 -11 -43q-6 -36 -11.5 -47t-24.5 -11q-6 0 -10 4q-3 2 -11 29q-8 29 -11 33q-16 25 -72 25l-148 2l-43 1q-10 0 -13 -2t-3.5 -7t-1.5 -7q-1 -5 -4.5 -25t-8.5 -35t-12 -23q-17 -20 -17 -30l3 -12q1 -3 2.5 -8.5t1.5 -9.5q0 -12 -14 -26q-19 -19 -20 -25
q1 -6 1 -28q-11 -53 -11 -49q0 -13 7 -23q8 1 39 -1l41 -1q45 0 81.5 18t36.5 49q0 25 25 25l24 -5q6 2 14 2q6 0 8 -2l2 -10q-10 -5 -16.5 -12.5t-9.5 -26.5l-14 -43l-18 -71q1 -4 1 -11q0 -29 -30 -29q-15 0 -26.5 9t-11.5 22q0 7 3 14q1 34 -80 34q-28 0 -48 -1l-40 -2
q-9 -4 -14 -21q-1 -3 -2 -11.5t-16 -52.5q-13 -38 -13 -42q1 -13 -10 -36q-11 -21 -13 -37q4 -8 2 -29l-16 -23q-16 -43 -16 -62q0 -16 12 -21q10 2 14 2q10 0 22 -5l10 -5l42 -1q34 20 64 23q6 1 17 -4t13 -6q10 -2 15 -2q16 0 33 7l4 1q5 0 11 -3l15 -4q10 -2 15 -2
q38 0 73 17.5t35 42.5q18 17 20 30q2 21 6 28q8 14 50 14q26 0 26 -8q0 -6 -11 -19t-21 -24q-5 -26 -17 -78q-14 -45 -51 -64q-6 -3 -22 6t-21 13h-2l-13 -2l-16 -3q-14 -2 -49 -2q-45 0 -84 3q-19 -10 -29 -10t-23 10l-66 1q-21 -12 -32 -12q-4 0 -16 5q-19 6 -23 7h-3
l-10 -2l-11 -3h-6q-5 0 -15 2q-15 6 -48 4q-10 -1 -26 -1t-21 2h-2q-3 0 -11 -3l-13 -6q-1 -1 -4 -1q-6 0 -10 4q-10 6 -15 5l-28 -10h-40q-7 4 -7 18t8.5 27t19.5 13q6 0 30 -10q8 -4 27 5t34 26.5t15 39.5l15 20l32 126l8 16q5 11 5 19q0 38 33 144q17 21 23 43l47 183
q7 28 7 42q0 30 -43 39q-14 -9 -28 -9q-30 0 -30 28q0 23 27 33h3q8 0 17 -4q16 -7 25 -7l12 2q11 3 18 1q22 -5 37 -5q20 0 56 10q19 -15 71 -15q55 0 94 13h1q3 0 11 -5q8 -7 12 -7q3 -1 9 -1q14 0 30 6q20 7 27 7h56q7 0 20 4q12 4 20 4q12 -5 33 -8l23 9q17 6 25 6
q15 0 15 -10q0 -14 -27 -56zM390 650q0 8 -3.5 12.5t-8.5 4.5q-6 0 -10.5 -5t-4.5 -13q0 -18 17 -16q10 4 10 17zM368 549q0 6 -3.5 9t-9.5 3t-12 -4.5t-6 -10.5q0 -15 17 -10q14 5 14 13zM587 1020q41 30 45 43q2 9 -3 14.5t-21 10.5q-15 3 -15 13q0 12 22 23t31 8
q38 -15 38 -52q0 -52 -53 -105q-16 -15 -21 -35q-1 -5 -1 -18q0 -9 0.5 -18t-0.5 -16q-2 -8 -7 -15q-15 -4 -30 -4q-8 0 -11 3.5t-5.5 10t-5.5 12.5q-13 22 -13 45q0 11 6 29q3 21 44 51z" />
    <glyph glyph-name="uni1EBC" unicode="&#x1ebc;" horiz-adv-x="846" 
d="M832 741q-6 -13 -11 -43q-6 -36 -11.5 -47t-24.5 -11q-6 0 -10 4q-3 2 -11 29q-8 29 -11 33q-16 25 -72 25l-148 2l-43 1q-10 0 -13 -2t-3.5 -7t-1.5 -7q-1 -5 -4.5 -25t-8.5 -35t-12 -23q-17 -20 -17 -30l3 -12q1 -3 2.5 -8.5t1.5 -9.5q0 -12 -14 -26q-19 -19 -20 -25
q1 -6 1 -28q-11 -53 -11 -49q0 -13 7 -23q8 1 39 -1l41 -1q45 0 81.5 18t36.5 49q0 25 25 25l24 -5q6 2 14 2q6 0 8 -2l2 -10q-10 -5 -16.5 -12.5t-9.5 -26.5l-14 -43l-18 -71q1 -4 1 -11q0 -29 -30 -29q-15 0 -26.5 9t-11.5 22q0 7 3 14q1 34 -80 34q-28 0 -48 -1l-40 -2
q-9 -4 -14 -21q-1 -3 -2 -11.5t-16 -52.5q-13 -38 -13 -42q1 -13 -10 -36q-11 -21 -13 -37q4 -8 2 -29l-16 -23q-16 -43 -16 -62q0 -16 12 -21q10 2 14 2q10 0 22 -5l10 -5l42 -1q34 20 64 23q6 1 17 -4t13 -6q10 -2 15 -2q16 0 33 7l4 1q5 0 11 -3l15 -4q10 -2 15 -2
q38 0 73 17.5t35 42.5q18 17 20 30q2 21 6 28q8 14 50 14q26 0 26 -8q0 -6 -11 -19t-21 -24q-5 -26 -17 -78q-14 -45 -51 -64q-6 -3 -22 6t-21 13h-2l-13 -2l-16 -3q-14 -2 -49 -2q-45 0 -84 3q-19 -10 -29 -10t-23 10l-66 1q-21 -12 -32 -12q-4 0 -16 5q-19 6 -23 7h-3
l-10 -2l-11 -3h-6q-5 0 -15 2q-15 6 -48 4q-10 -1 -26 -1t-21 2h-2q-3 0 -11 -3l-13 -6q-1 -1 -4 -1q-6 0 -10 4q-10 6 -15 5l-28 -10h-40q-7 4 -7 18t8.5 27t19.5 13q6 0 30 -10q8 -4 27 5t34 26.5t15 39.5l15 20l32 126l8 16q5 11 5 19q0 38 33 144q17 21 23 43l47 183
q7 28 7 42q0 30 -43 39q-14 -9 -28 -9q-30 0 -30 28q0 23 27 33h3q8 0 17 -4q16 -7 25 -7l12 2q11 3 18 1q22 -5 37 -5q20 0 56 10q19 -15 71 -15q55 0 94 13h1q3 0 11 -5q8 -7 12 -7q3 -1 9 -1q14 0 30 6q20 7 27 7h56q7 0 20 4q12 4 20 4q12 -5 33 -8l23 9q17 6 25 6
q15 0 15 -10q0 -14 -27 -56zM390 650q0 8 -3.5 12.5t-8.5 4.5q-6 0 -10.5 -5t-4.5 -13q0 -18 17 -16q10 4 10 17zM368 549q0 6 -3.5 9t-9.5 3t-12 -4.5t-6 -10.5q0 -15 17 -10q14 5 14 13zM763 931q-15 0 -44 23q-32 25 -57 25q-15 0 -24 -9q-5 -16 -13 -29
q-30 -30 -100 -30q-60 0 -104.5 24t-46.5 62q8 6 18 6q13 0 46 -15q25 -12 46 -12q23 0 37 20q3 2 6 15q3 14 7 15q22 27 76 27q40 0 79 -14t64 -38t25 -51q0 -8 -3 -16q-6 -3 -12 -3z" />
    <glyph glyph-name="uni1ECA" unicode="&#x1eca;" horiz-adv-x="567" 
d="M564 781q0 -12 -12.5 -22.5t-26.5 -10.5q-10 0 -18 8q-2 3 -22.5 -6t-40.5 -22.5t-22 -20.5q-1 -4 -3 -33q0 -16 -19 -29q-18 -60 -24 -86t-9 -59q0 -5 -9 -16t-11 -16l-17 -69q2 -13 1 -16q-5 -6 -13 -31q1 -11 -5 -38q-12 -16 -19 -31q-10 -64 -9 -81q1 -7 -22 -49
q-4 -7 -3 -17l2 -14q0 -5 -3 -13.5t-5 -14.5q-5 -16 -3 -24q4 -13 46 -13q24 -1 34 -5t10 -13t-10 -27q-11 -20 -28 -28q-13 6 -46.5 9t-72.5 3q-51 0 -75 -4l-71 3q-3 0 -17 -3q-12 -4 -19 -4q-14 0 -14 12q0 11 11 23.5t23 15.5h7q16 0 27 1q10 7 28 15q19 6 26 11
t10 12.5t10 34.5q10 28 17.5 54.5t7.5 41.5q0 13 -3 34v1q0 4 13 15q13 12 15 20l2 14l111 386q10 34 10 47q0 16 -16 19q-9 2 -54 3q-16 0 -16 15q0 29 29 35q21 -9 81 -9q75 0 120 9h4q8 0 27 -3l31 -5l27 4l12 1q9 0 12 -3q4 -4 4 -11zM309 552q0 -5 7 -5q4 0 8 3t4 8
q0 8 -6 9q-13 -4 -13 -15zM261 -97q0 -17 -11 -36t-27.5 -30.5t-30.5 -8.5q-7 -3 -19 -3q-36 0 -36 41q0 29 20.5 51.5t51.5 22.5q52 0 52 -37z" />
    <glyph glyph-name="uni1EC8" unicode="&#x1ec8;" horiz-adv-x="567" 
d="M564 781q0 -12 -12.5 -22.5t-26.5 -10.5q-10 0 -18 8q-2 3 -22.5 -6t-40.5 -22.5t-22 -20.5q-1 -4 -3 -33q0 -16 -19 -29q-18 -60 -24 -86t-9 -59q0 -5 -9 -16t-11 -16l-17 -69q2 -13 1 -16q-5 -6 -13 -31q1 -11 -5 -38q-12 -16 -19 -31q-10 -64 -9 -81q1 -7 -22 -49
q-4 -7 -3 -17l2 -14q0 -5 -3 -13.5t-5 -14.5q-5 -16 -3 -24q4 -13 46 -13q24 -1 34 -5t10 -13t-10 -27q-11 -20 -28 -28q-13 6 -46.5 9t-72.5 3q-51 0 -75 -4l-71 3q-3 0 -17 -3q-12 -4 -19 -4q-14 0 -14 12q0 11 11 23.5t23 15.5h7q16 0 27 1q10 7 28 15q19 6 26 11
t10 12.5t10 34.5q10 28 17.5 54.5t7.5 41.5q0 13 -3 34v1q0 4 13 15q13 12 15 20l2 14l111 386q10 34 10 47q0 16 -16 19q-9 2 -54 3q-16 0 -16 15q0 29 29 35q21 -9 81 -9q75 0 120 9h4q8 0 27 -3l31 -5l27 4l12 1q9 0 12 -3q4 -4 4 -11zM309 552q0 -5 7 -5q4 0 8 3t4 8
q0 8 -6 9q-13 -4 -13 -15zM448 1020q41 30 45 43q2 9 -3 14.5t-21 10.5q-15 3 -15 13q0 12 22 23t31 8q38 -15 38 -52q0 -52 -53 -105q-16 -15 -21 -35q-1 -5 -1 -18q0 -9 0.5 -18t-0.5 -16q-2 -8 -7 -15q-15 -4 -30 -4q-8 0 -11 3.5t-5.5 10t-5.5 12.5q-13 22 -13 45
q0 11 6 29q3 21 44 51z" />
    <glyph glyph-name="Itilde" unicode="&#x128;" horiz-adv-x="567" 
d="M564 781q0 -12 -12.5 -22.5t-26.5 -10.5q-10 0 -18 8q-2 3 -22.5 -6t-40.5 -22.5t-22 -20.5q-1 -4 -3 -33q0 -16 -19 -29q-18 -60 -24 -86t-9 -59q0 -5 -9 -16t-11 -16l-17 -69q2 -13 1 -16q-5 -6 -13 -31q1 -11 -5 -38q-12 -16 -19 -31q-10 -64 -9 -81q1 -7 -22 -49
q-4 -7 -3 -17l2 -14q0 -5 -3 -13.5t-5 -14.5q-5 -16 -3 -24q4 -13 46 -13q24 -1 34 -5t10 -13t-10 -27q-11 -20 -28 -28q-13 6 -46.5 9t-72.5 3q-51 0 -75 -4l-71 3q-3 0 -17 -3q-12 -4 -19 -4q-14 0 -14 12q0 11 11 23.5t23 15.5h7q16 0 27 1q10 7 28 15q19 6 26 11
t10 12.5t10 34.5q10 28 17.5 54.5t7.5 41.5q0 13 -3 34v1q0 4 13 15q13 12 15 20l2 14l111 386q10 34 10 47q0 16 -16 19q-9 2 -54 3q-16 0 -16 15q0 29 29 35q21 -9 81 -9q75 0 120 9h4q8 0 27 -3l31 -5l27 4l12 1q9 0 12 -3q4 -4 4 -11zM309 552q0 -5 7 -5q4 0 8 3t4 8
q0 8 -6 9q-13 -4 -13 -15zM624 931q-15 0 -44 23q-32 25 -57 25q-15 0 -24 -9q-5 -16 -13 -29q-30 -30 -100 -30q-60 0 -104.5 24t-46.5 62q8 6 18 6q13 0 46 -15q25 -12 46 -12q23 0 37 20q3 2 6 15q3 14 7 15q22 27 76 27q40 0 79 -14t64 -38t25 -51q0 -8 -3 -16
q-6 -3 -12 -3z" />
    <glyph glyph-name="uni1ED0" unicode="&#x1ed0;" horiz-adv-x="814" 
d="M798 549q-4 -21 -4 -35q0 -11 2 -18l2 -18q0 -13 -4 -28l-16 -53q-12 -22 -26 -59q-7 -40 -24 -66l-45 -54q-7 -16 -16 -31q-37 -37 -134 -105q-13 4 -31.5 -8.5t-36 -28t-23.5 -20.5q-5 8 -13 8q-9 0 -32 -17q-25 -18 -29 -19q-61 -18 -113 -18q-33 0 -53 2.5t-43 15
t-49 38.5q-41 41 -55 41q-7 14 -21 35q-27 36 -27 197q0 55 5 90q10 16 18 43q6 25 26 56q39 67 64.5 103t68.5 72q7 12 28 35q69 49 92 65q14 2 38 9l29 20q8 7 41 14q32 7 44 14q19 17 43 17q10 0 58 -13q17 2 35 1q61 -22 85 -49q11 -1 31 -12q14 -12 50 -49q7 -7 16 -27
q0 -12 9 -31q-4 -5 4 -40q9 -40 9 -46q0 -10 -3 -31zM686 556q0 60 -15 111.5t-41 68.5q-14 8 -54 34q-25 13 -87 13q-36 0 -51 -4q-34 -9 -75 -41q-102 -82 -130 -127q-13 -28 -65 -119l-21 -74q-11 -24 -24 -61q-12 -91 -12 -99q0 -26 8 -42q-5 -15 -5 -27q0 -31 32 -78
l45 -65q32 -17 77 -19q9 0 15 -12q42 2 103.5 33t112.5 76q60 52 87 107l15 41q18 28 43 79q36 120 40 169q2 22 2 36zM212 682q-2 -4 -2 -8q0 -5 2 -8.5t6 -2.5l17 11q11 8 11 15q0 10 -7 10q-5 0 -27 -17zM56 216q-10 -7 -10 -19q0 -8 6 -8q15 0 15 18q0 11 -11 9z
M633 867q-14 8 -19 28.5t-6 42.5t-2 29q-5 17 -12 17q-10 0 -57 -56t-75 -56q-16 0 -16 11q0 10 14 28.5t30 36.5t21 24q41 55 59.5 77t39.5 40l20 -5q2 -12 22 -79q18 -63 18 -96q0 -27 -10 -38zM591 1141q0 -26 -35.5 -62.5t-66.5 -50.5h-3q-11 0 -11 12t18 46.5t25 46.5
q5 12 47 41q26 -11 26 -33z" />
    <glyph glyph-name="uni1ED8" unicode="&#x1ed8;" horiz-adv-x="814" 
d="M798 549q-4 -21 -4 -35q0 -11 2 -18l2 -18q0 -13 -4 -28l-16 -53q-12 -22 -26 -59q-7 -40 -24 -66l-45 -54q-7 -16 -16 -31q-37 -37 -134 -105q-13 4 -31.5 -8.5t-36 -28t-23.5 -20.5q-5 8 -13 8q-9 0 -32 -17q-25 -18 -29 -19q-61 -18 -113 -18q-33 0 -53 2.5t-43 15
t-49 38.5q-41 41 -55 41q-7 14 -21 35q-27 36 -27 197q0 55 5 90q10 16 18 43q6 25 26 56q39 67 64.5 103t68.5 72q7 12 28 35q69 49 92 65q14 2 38 9l29 20q8 7 41 14q32 7 44 14q19 17 43 17q10 0 58 -13q17 2 35 1q61 -22 85 -49q11 -1 31 -12q14 -12 50 -49q7 -7 16 -27
q0 -12 9 -31q-4 -5 4 -40q9 -40 9 -46q0 -10 -3 -31zM686 556q0 60 -15 111.5t-41 68.5q-14 8 -54 34q-25 13 -87 13q-36 0 -51 -4q-34 -9 -75 -41q-102 -82 -130 -127q-13 -28 -65 -119l-21 -74q-11 -24 -24 -61q-12 -91 -12 -99q0 -26 8 -42q-5 -15 -5 -27q0 -31 32 -78
l45 -65q32 -17 77 -19q9 0 15 -12q42 2 103.5 33t112.5 76q60 52 87 107l15 41q18 28 43 79q36 120 40 169q2 22 2 36zM212 682q-2 -4 -2 -8q0 -5 2 -8.5t6 -2.5l17 11q11 8 11 15q0 10 -7 10q-5 0 -27 -17zM56 216q-10 -7 -10 -19q0 -8 6 -8q15 0 15 18q0 11 -11 9z
M279 -97q0 -17 -11 -36t-27.5 -30.5t-30.5 -8.5q-7 -3 -19 -3q-36 0 -36 41q0 29 20.5 51.5t51.5 22.5q52 0 52 -37zM633 867q-14 8 -19 28.5t-6 42.5t-2 29q-5 17 -12 17q-10 0 -57 -56t-75 -56q-16 0 -16 11q0 10 14 28.5t30 36.5t21 24q41 55 59.5 77t39.5 40l20 -5
q2 -12 22 -79q18 -63 18 -96q0 -27 -10 -38z" />
    <glyph glyph-name="uni1ED2" unicode="&#x1ed2;" horiz-adv-x="814" 
d="M798 549q-4 -21 -4 -35q0 -11 2 -18l2 -18q0 -13 -4 -28l-16 -53q-12 -22 -26 -59q-7 -40 -24 -66l-45 -54q-7 -16 -16 -31q-37 -37 -134 -105q-13 4 -31.5 -8.5t-36 -28t-23.5 -20.5q-5 8 -13 8q-9 0 -32 -17q-25 -18 -29 -19q-61 -18 -113 -18q-33 0 -53 2.5t-43 15
t-49 38.5q-41 41 -55 41q-7 14 -21 35q-27 36 -27 197q0 55 5 90q10 16 18 43q6 25 26 56q39 67 64.5 103t68.5 72q7 12 28 35q69 49 92 65q14 2 38 9l29 20q8 7 41 14q32 7 44 14q19 17 43 17q10 0 58 -13q17 2 35 1q61 -22 85 -49q11 -1 31 -12q14 -12 50 -49q7 -7 16 -27
q0 -12 9 -31q-4 -5 4 -40q9 -40 9 -46q0 -10 -3 -31zM686 556q0 60 -15 111.5t-41 68.5q-14 8 -54 34q-25 13 -87 13q-36 0 -51 -4q-34 -9 -75 -41q-102 -82 -130 -127q-13 -28 -65 -119l-21 -74q-11 -24 -24 -61q-12 -91 -12 -99q0 -26 8 -42q-5 -15 -5 -27q0 -31 32 -78
l45 -65q32 -17 77 -19q9 0 15 -12q42 2 103.5 33t112.5 76q60 52 87 107l15 41q18 28 43 79q36 120 40 169q2 22 2 36zM212 682q-2 -4 -2 -8q0 -5 2 -8.5t6 -2.5l17 11q11 8 11 15q0 10 -7 10q-5 0 -27 -17zM56 216q-10 -7 -10 -19q0 -8 6 -8q15 0 15 18q0 11 -11 9z
M633 867q-14 8 -19 28.5t-6 42.5t-2 29q-5 17 -12 17q-10 0 -57 -56t-75 -56q-16 0 -16 11q0 10 14 28.5t30 36.5t21 24q41 55 59.5 77t39.5 40l20 -5q2 -12 22 -79q18 -63 18 -96q0 -27 -10 -38zM652.5 1098q-35.5 36 -35.5 63q0 21 26 33q5 -4 19.5 -14t20 -15.5
t7.5 -11.5q7 -12 25.5 -47t18.5 -47t-15 -11q-31 14 -66.5 50z" />
    </font>
</defs>
</svg>
